<svg width="22" height="24" viewBox="0 0 22 24" fill="none" xmlns="http://www.w3.org/2000/svg">
<path d="M6.26315 1V4.15789M14.6842 1V4.15789M1.52631 8.46316H19.421M21 18.8947C21 19.6842 20.7789 20.4316 20.3895 21.0632C20.0184 21.6868 19.4913 22.2031 18.86 22.5612C18.2288 22.9193 17.5152 23.1068 16.7895 23.1053C15.7263 23.1053 14.7579 22.7158 14.021 22.0526C13.6947 21.7789 13.4105 21.4421 13.1895 21.0632C12.7888 20.411 12.5774 19.6602 12.5789 18.8947C12.5789 16.5684 14.4631 14.6842 16.7895 14.6842C18.0526 14.6842 19.1789 15.2421 19.9474 16.1158C20.6243 16.8834 20.9985 17.8713 21 18.8947Z" stroke="#0E5FC1" stroke-width="1.5" stroke-miterlimit="10" stroke-linecap="round" stroke-linejoin="round"/>
<path d="M15.1468 18.8942L16.1889 19.9363L18.431 17.8627" stroke="#0E5FC1" stroke-width="1.5" stroke-linecap="round" stroke-linejoin="round"/>
<path d="M19.9474 7.84211V16.1158C19.1789 15.2421 18.0526 14.6842 16.7895 14.6842C14.4632 14.6842 12.5789 16.5684 12.5789 18.8947C12.5789 19.6842 12.8 20.4316 13.1895 21.0632C13.4105 21.4421 13.6947 21.7789 14.0211 22.0526H6.26316C2.57895 22.0526 1 19.9474 1 16.7895V7.84211C1 4.68421 2.57895 2.57895 6.26316 2.57895H14.6842C18.3684 2.57895 19.9474 4.68421 19.9474 7.84211Z" stroke="#0E5FC1" stroke-width="1.5" stroke-miterlimit="10" stroke-linecap="round" stroke-linejoin="round"/>
<path d="M10.4694 13.316H10.4799M6.57361 13.316H6.58413M6.57361 16.4739H6.58413" stroke="#0E5FC1" stroke-width="2" stroke-linecap="round" stroke-linejoin="round"/>
</svg>
