<svg width="72" height="70" viewBox="0 0 72 70" fill="none" xmlns="http://www.w3.org/2000/svg">
<ellipse cx="36" cy="35.125" rx="35" ry="34.125" fill="#E6F1FF" stroke="#0E5FC1"/>
<g clip-path="url(#clip0_1_13)">
<path d="M23.9066 46.9731C23.5148 43.5779 27.6872 39.3708 31.6665 39.0547C36.6061 38.6623 40.7399 42.3082 41.1317 46.9731C35.3863 46.9731 29.6465 46.9731 23.9066 46.9731Z" fill="#0E5FC1"/>
<path d="M21.125 50.875C21.9639 49.8668 22.7531 48.9077 23.5644 47.9649C23.6472 47.8723 23.8514 47.8559 24.0004 47.8559C26.611 47.8505 29.2215 47.8504 31.832 47.8504C37.8368 47.8504 43.8416 47.8505 49.8464 47.845C50.1444 47.845 50.3541 47.9322 50.5638 48.1338C51.4083 48.9513 52.2692 49.7469 53.1247 50.548C53.224 50.6407 53.3289 50.7224 53.5 50.875C42.666 50.875 31.9369 50.875 21.125 50.875Z" fill="#0E5FC1"/>
<path d="M32.9966 23.2835C33.7968 24.8693 34.5971 26.4442 35.3974 28.0301C30.4191 28.6459 27.2567 32.913 30.1818 38.4607C28.5703 38.8912 27.1629 39.676 25.9487 40.8041C21.2519 33.2182 25.4464 25.3979 32.9966 23.2835Z" fill="#0E5FC1"/>
<path d="M38.2232 31.725C36.5729 28.4715 34.9393 25.2399 33.278 21.9646C34.3984 21.436 35.5078 20.9129 36.6613 20.3679C38.3446 23.5505 40.0169 26.7004 41.7057 29.8884C40.5412 30.4988 39.3987 31.1037 38.2232 31.725Z" fill="#0E5FC1"/>
<path d="M38.4108 40.2536C41.8823 40.2536 45.26 40.2536 48.6598 40.2536C48.6598 41.1147 48.6598 41.9539 48.6598 42.8531C48.5604 42.864 48.45 42.8858 48.3341 42.8858C45.8836 42.8858 43.4387 42.8913 40.9882 42.8804C40.8668 42.8804 40.6902 42.8422 40.6405 42.7605C40.05 41.834 39.327 41.0111 38.4108 40.2536Z" fill="#0E5FC1"/>
<path d="M42.9916 30.1773C43.251 30.6677 43.4939 31.1146 43.7643 31.616C41.9541 32.5369 40.1548 33.4525 38.328 34.3844C38.0907 33.9048 37.8754 33.4579 37.6381 32.9784C39.4208 32.0465 41.1814 31.1255 42.9916 30.1773Z" fill="#0E5FC1"/>
<path d="M34.5198 16.357C33.3443 16.9619 32.1963 17.5504 31.0207 18.1553C30.7944 17.7085 30.5847 17.278 30.3474 16.8093C31.5009 16.2044 32.6433 15.6104 33.8189 15C34.0562 15.4632 34.2825 15.8883 34.5198 16.357Z" fill="#0E5FC1"/>
<path d="M32.5495 18.3134C33.0462 18.0682 33.5043 17.8393 33.9845 17.5995C34.4205 18.4169 34.84 19.2071 35.287 20.0464C34.7958 20.2862 34.3156 20.5205 33.8024 20.7712C33.3829 19.9483 32.9745 19.1472 32.5495 18.3134Z" fill="#0E5FC1"/>
</g>
<defs>
<clipPath id="clip0_1_13">
<rect width="32.375" height="35.875" fill="white" transform="translate(21.125 15)"/>
</clipPath>
</defs>
</svg>
