<svg width="30" height="25" viewBox="0 0 30 25" fill="none" xmlns="http://www.w3.org/2000/svg">
<path d="M29.543 9.61083C29.2575 8.86121 28.6711 8.19195 27.9574 7.70938C25.897 6.40109 22.7569 6.30792 20.6339 7.49068C19.4761 8.081 18.7151 9.24918 18.4782 10.4522C18.0486 12.4287 18.1596 14.7803 19.6823 16.2618C21.4579 17.8183 24.0421 18.1622 26.3401 17.5228C26.4492 17.5018 26.7952 17.4147 27.0339 17.2881L27.1011 17.2593C27.8148 16.9627 28.4954 16.4798 29.0036 15.8258C30.1764 14.1111 30.2567 11.5418 29.543 9.61083ZM25.8017 14.0492C25.7206 14.424 25.4685 14.8123 25.0709 14.9532C24.4379 15.2316 23.5816 15.1544 22.9952 14.8287C22.5034 14.4848 22.4401 13.9091 22.3768 13.3643C22.3288 12.2904 22.2512 11.1531 22.5521 10.1713C22.7879 9.56318 23.4383 9.40671 24.0265 9.36084C24.6442 9.36084 25.2455 9.45507 25.6271 9.95328C25.8646 10.3107 25.85 10.7783 25.897 11.1993C25.8803 12.0866 25.9599 13.1449 25.8017 14.0492ZM7.01584 15.0165C6.49238 14.9845 5.90598 15.0303 5.39923 14.9681L5.41488 9.49953L5.44688 9.45401L7.01584 9.43872C7.0322 8.55111 7.04784 7.59914 6.99948 6.79013L1.02416 6.77342L0.0401843 6.79048C0.0245375 7.6155 0.0245375 8.58027 0.0401843 9.42236C0.579645 9.43907 1.08603 9.42236 1.60949 9.47108V14.7672L1.5942 14.9848L0.0245375 15.0168C-0.00817916 15.8733 -0.00817916 16.7307 0.0245375 17.5872H7.01548L7.01584 15.0165ZM24.6114 18.7543C23.9464 19.7055 23.1061 20.6244 22.1887 21.3392C22.1552 21.3879 22.0603 21.3694 22.0301 21.3246C21.6325 21.0761 21.2047 20.8727 20.8235 20.6244C21.3313 20.0174 21.8231 19.41 22.2036 18.7376H21.7104C21.3164 19.3162 20.9031 19.9232 20.3804 20.4356C19.6823 20.1557 19.0486 19.9068 18.3353 19.7183L18.256 19.659C18.3669 19.3442 18.5725 19.0487 18.6354 18.7369H18.2076L17.7798 19.5786C16.8456 19.3762 15.8147 19.266 14.8634 19.2045C14.8154 19.0647 14.8784 18.862 14.8154 18.7369H14.4033C14.3706 18.9243 14.4509 19.0654 14.3556 19.2208C13.3727 19.266 12.4218 19.3762 11.5033 19.5651L11.0737 18.7369C10.9169 18.7369 10.7405 18.707 10.631 18.7536L11.0264 19.6728L10.9791 19.7183C10.2686 19.9239 9.57008 20.1687 8.8867 20.4516L8.82376 20.4196C8.37889 19.9367 7.95074 19.4093 7.60153 18.8795C7.52294 18.6131 7.20573 18.7689 7.03113 18.7376C7.41021 19.4239 7.91909 20.0306 8.42548 20.6547C7.99768 20.9047 7.5713 21.1835 7.12536 21.3879C6.15568 20.6494 5.31039 19.7605 4.62151 18.755C4.43091 18.7244 4.30538 18.7383 4.1137 18.755C5.25521 20.5309 7.03113 22.0881 8.88599 23.0074C8.88599 23.0074 8.88599 22.9935 8.90306 22.9935C8.91657 22.9935 8.94822 23.0223 8.91657 23.0387C10.1697 23.6464 11.5022 24.0824 12.9119 24.2702C17.7791 24.9081 22.4244 22.8374 25.1178 18.755C24.9495 18.7377 24.7798 18.7374 24.6114 18.7543ZM18.0024 20.1561L18.049 20.1248C18.7325 20.2806 19.3811 20.4989 19.9839 20.7941C19.4761 21.3691 18.826 21.8687 18.2243 22.2891C17.8602 22.5063 17.4943 22.7425 17.1134 22.9281L16.4331 22.6322L16.4797 22.5245C17.0515 21.7617 17.559 20.9818 18.0024 20.1561ZM14.8784 19.6885C15.7827 19.7055 16.6867 19.7987 17.5255 20.0003L17.5423 20.0476C17.0992 20.8879 16.543 21.6998 15.9417 22.4615C15.6707 22.4935 15.4182 22.3858 15.149 22.3691L14.878 22.3371C14.8471 21.4178 14.8304 20.6077 14.8784 19.6885ZM11.8201 19.9687C12.6444 19.8129 13.5 19.6885 14.3873 19.6885L14.4036 22.3239C14.0701 22.3993 13.7056 22.3993 13.3884 22.4793C12.7383 21.714 12.1999 20.8879 11.7408 20.0306L11.8201 19.9687ZM9.26649 20.8108C9.88632 20.5138 10.5353 20.2944 11.2003 20.1245L11.2647 20.1408C11.7231 20.9978 12.2945 21.8072 12.8649 22.6173C12.6448 22.7428 12.3738 22.8178 12.1526 22.9444C11.0806 22.4149 10.1051 21.709 9.26685 20.8563V20.8108H9.26649ZM11.3123 23.4743C9.98056 23.1304 8.74304 22.5387 7.60188 21.73V21.6817C7.98239 21.4502 8.36431 21.2002 8.77504 21.027C9.67936 21.9174 10.6139 22.5874 11.6285 23.2247C11.5495 23.3182 11.4229 23.4121 11.3123 23.4743ZM17.193 23.6756C15.5131 24.0362 13.6416 24.05 11.962 23.6457C11.93 23.5682 12.0413 23.5515 12.0886 23.506C13.563 22.5547 15.8606 22.5547 17.3047 23.5817C17.3517 23.6756 17.2251 23.6457 17.193 23.6756ZM18.7154 23.241L17.9704 23.4739C17.8431 23.4117 17.7329 23.3182 17.6208 23.2243L17.6529 23.1767C18.6678 22.5871 19.5867 21.8684 20.459 21.0117C20.8871 21.1827 21.2996 21.4178 21.6812 21.6813C20.7925 22.3858 19.7616 22.8509 18.7154 23.241ZM4.59057 5.58994C4.98269 5.0473 5.41162 4.53223 5.87433 4.04837C6.28506 3.65898 6.66698 3.28523 7.1115 3.00359C7.524 3.26817 7.9831 3.48864 8.37925 3.73686C7.88815 4.3414 7.38069 4.95162 7.01619 5.60417C7.12643 5.65289 7.3334 5.6376 7.49235 5.60417C7.88815 5.02879 8.31488 4.4527 8.82412 3.93814C9.50404 4.18813 10.1708 4.45199 10.8692 4.63975L10.9308 4.70163L10.536 5.60417C10.711 5.6376 10.8219 5.62124 10.9951 5.60417C11.1374 5.34102 11.2476 5.04586 11.4062 4.77951C12.3269 4.98292 13.2941 5.09138 14.277 5.12161C14.4029 5.2322 14.3083 5.46477 14.356 5.60417H14.7838C14.8304 5.45126 14.7678 5.27772 14.8304 5.13903C15.7507 5.09067 16.7172 4.99714 17.608 4.7788L17.6852 4.79516L18.1134 5.60346C18.2563 5.60346 18.4462 5.63689 18.5572 5.57145L18.16 4.67034L18.193 4.63904C18.921 4.45199 19.6037 4.17177 20.3011 3.89191C20.794 4.40576 21.2523 5.01315 21.6659 5.6031C21.8395 5.6031 22.0141 5.62017 22.141 5.5711C21.9452 5.22331 21.7168 4.89491 21.459 4.59032C21.2496 4.29199 21.016 4.01141 20.7605 3.75144V3.67072L21.8704 3.03311L22.0304 2.97087C22.9956 3.70143 23.8402 4.57883 24.5336 5.5711C24.7238 5.5711 24.8828 5.63653 25.0417 5.55794C22.9152 2.3827 19.4124 0.339714 15.6255 0.0456239L15.6088 0.0758508L15.5764 0.0456239C15.149 -0.000249861 14.6238 -0.018386 14.1647 0.0274877C13.9908 0.0139746 13.7852 0.0274877 13.5786 0.0456239C9.77466 0.339714 6.27154 2.2881 4.08276 5.60488C4.24136 5.58995 4.43162 5.65324 4.59057 5.58994ZM11.1704 4.2212L11.1071 4.23471C10.4564 4.06509 9.8216 3.86061 9.2192 3.59675L9.24978 3.50322C10.1217 2.67785 11.041 1.99188 12.0555 1.46344C12.2945 1.55697 12.5321 1.63414 12.7696 1.74473L12.723 1.86635C12.1196 2.61598 11.6452 3.42428 11.1704 4.2212ZM14.324 4.64047C13.8812 4.7027 13.4847 4.6266 13.0392 4.5921C12.6131 4.52951 12.073 4.48435 11.6452 4.34211C12.105 3.48935 12.6448 2.6622 13.2941 1.90084L14.309 2.03918C14.356 2.84783 14.324 3.78309 14.324 4.64047ZM14.8151 4.65718C14.7838 3.82896 14.8001 2.91113 14.8151 2.05411C15.1334 2.00859 15.4804 1.96023 15.7983 1.91436C16.4164 2.69208 17.0202 3.48935 17.4327 4.34211C16.5756 4.54949 15.697 4.65524 14.8151 4.65718ZM19.8736 3.5651C19.2542 3.82861 18.6194 4.07825 17.9388 4.2212C17.4477 3.39547 16.9089 2.5701 16.3047 1.77247C16.527 1.65049 16.798 1.55697 17.0352 1.43286C18.0675 1.94636 19.065 2.67785 19.9042 3.51638L19.8736 3.5651ZM17.8431 0.901578C19.1749 1.2451 20.4273 1.83612 21.5688 2.6462L21.5372 2.70843L20.4444 3.31511H20.3637C19.5248 2.47693 18.5422 1.74473 17.5423 1.16686C17.5739 1.05769 17.7332 0.979101 17.8431 0.901578ZM17.2098 0.745109V0.778181C15.8296 1.77247 13.595 1.86635 12.1373 0.947096C12.0555 0.884864 11.8991 0.854638 11.882 0.745465C13.5633 0.35785 15.5437 0.326556 17.2098 0.745109ZM7.53894 2.67785C8.53856 1.94636 9.64771 1.40121 10.8212 1.02711C10.8692 0.97839 10.8998 0.932516 10.9624 0.932516V0.964521C11.089 0.995104 11.1847 0.853926 11.2953 0.946385C11.3909 1.02711 11.5029 1.08863 11.5812 1.16615C10.599 1.77247 9.63135 2.49045 8.74339 3.36098C8.31524 3.20807 7.92051 2.97301 7.53858 2.70843L7.53894 2.67785ZM14.3403 15.1381C12.8503 15.5438 11.2323 15.2345 10.1548 14.1111C10.0286 13.9553 9.94856 13.7697 9.82125 13.6146L7.68189 13.6296C7.64811 14.8909 7.63318 16.34 7.68189 17.5868L10.0588 17.5715L10.0904 16.8233C10.3611 16.9478 10.631 17.1032 10.8998 17.2429C12.5484 17.9293 14.6707 18.085 16.304 17.2429C17.4939 16.5904 18.1283 15.329 17.9533 13.971C17.7798 12.6485 16.511 11.4483 15.2279 11.1222L11.3906 10.0152L11.1068 9.87434C10.9798 9.76623 10.9002 9.62683 10.9311 9.45401C11.2323 8.94122 11.9307 9.09697 12.4538 9.11084C13.5633 9.26696 14.7045 9.6407 15.3549 10.6538C16.0515 10.6538 16.8598 10.6673 17.6201 10.6375C17.6525 9.36048 17.6077 8.2396 17.5888 6.94624C16.8755 6.92988 16.0032 6.92988 15.2909 6.9626C15.2589 7.14787 15.3215 7.41174 15.2422 7.5995L14.5135 7.20975C12.7689 6.4779 10.3273 6.40145 8.74268 7.53869C7.71177 8.28512 7.39563 9.62612 7.66518 10.8096C7.87037 11.9294 8.94822 12.7558 9.97914 13.1442C11.3898 13.642 12.8635 14.0026 14.2927 14.4848C14.4342 14.5481 14.6241 14.6893 14.5935 14.8604C14.5942 14.9987 14.4506 15.0787 14.3403 15.1381Z" fill="#0E5FC1"/>
</svg>
