<svg width="30" height="30" viewBox="0 0 30 30" fill="none" xmlns="http://www.w3.org/2000/svg">
<path d="M28.1896 26.1621H1.81073C0.81083 26.1621 0.000244141 25.3515 0.000244141 24.3516V5.64838C0.000302734 4.64848 0.810889 3.83789 1.81073 3.83789H28.1896C29.1895 3.83789 30.0001 4.64848 30.0001 5.64838V24.3517C30.0001 25.3515 29.1895 26.1621 28.1896 26.1621Z" fill="#FAFAFA"/>
<path d="M3.62183 26.1621L28.4385 7.7334V26.1621H3.62183Z" fill="#F5F5F5"/>
<path d="M3.62198 26.1621H1.81073C0.81083 26.1621 0.000244141 25.3515 0.000244141 24.3516V5.64838C0.000302734 4.64848 0.810889 3.83789 1.81073 3.83789H3.62198V26.1621Z" fill="#F44336"/>
<path d="M1.81104 3.83789H3.62188V26.1621H1.81104V3.83789Z" fill="#E53935"/>
<path d="M26.3782 26.1621H28.1894C29.1893 26.1621 29.9999 25.3515 29.9999 24.3516V5.64838C29.9999 4.64848 29.1893 3.83789 28.1894 3.83789H26.3782V26.1621Z" fill="#F44336"/>
<path d="M28.189 3.83789H26.3782C27.3783 3.83789 28.189 4.6483 28.189 5.64797V24.352C28.189 25.3517 27.3783 26.1621 26.3782 26.1621H28.189C29.1892 26.1621 29.9999 25.3517 29.9999 24.352V5.64797C29.9999 4.6483 29.1891 3.83789 28.189 3.83789Z" fill="#E53935"/>
<path d="M1.81104 3.83789H28.1891V5.64961L15.0001 15.4641L1.81104 5.221V3.83789Z" fill="#FAFAFA"/>
<path d="M29.6415 4.56868C29.0444 3.76677 27.9099 3.60066 27.1076 4.19767L15 13.2075L2.8923 4.19767C2.09009 3.60066 0.955657 3.76683 0.358411 4.56868C-0.238777 5.37054 -0.0726047 6.5045 0.729602 7.10152L13.9186 16.916C14.2395 17.1548 14.6198 17.2742 15 17.2742C15.3803 17.2742 15.7605 17.1548 16.0814 16.916L29.2704 7.10146C30.0726 6.5045 30.2388 5.37054 29.6415 4.56868Z" fill="#F44336"/>
<path d="M29.6415 4.56872C29.0869 3.82399 28.069 3.62805 27.284 4.0821C27.4914 4.20175 27.6785 4.36452 27.8306 4.56872C28.4279 5.37057 28.2617 6.50454 27.4595 7.10155L14.2704 16.916C14.2137 16.9582 14.1546 16.9953 14.0945 17.0301C14.3744 17.1919 14.6869 17.2742 14.9999 17.2742C15.3801 17.2742 15.7604 17.1548 16.0813 16.916L29.2703 7.10149C30.0725 6.50454 30.2387 5.37057 29.6415 4.56872Z" fill="#E53935"/>
</svg>
