<svg width="24" height="24" viewBox="0 0 24 24" fill="none" xmlns="http://www.w3.org/2000/svg">
<path d="M2 13.1L2 19.9C2 21.4 2.64 22 4.23 22L8.27 22C9.86 22 10.5 21.4 10.5 19.9L10.5 13.1C10.5 11.6 9.86 11 8.27 11L4.23 11C2.64 11 2 11.6 2 13.1ZM2 4.1L2 5.9C2 7.4 2.64 8 4.23 8L8.27 8C9.86 8 10.5 7.4 10.5 5.9L10.5 4.1C10.5 2.6 9.86 2 8.27 2L4.23 2C2.64 2 2 2.6 2 4.1ZM13.5 10.9L13.5 4.1C13.5 2.6 14.14 2 15.73 2L19.77 2C21.36 2 22 2.6 22 4.1L22 10.9C22 12.4 21.36 13 19.77 13L15.73 13C14.14 13 13.5 12.4 13.5 10.9ZM13.5 19.9L13.5 18.1C13.5 16.6 14.14 16 15.73 16L19.77 16C21.36 16 22 16.6 22 18.1L22 19.9C22 21.4 21.36 22 19.77 22L15.73 22C14.14 22 13.5 21.4 13.5 19.9Z" stroke="#9A9ADC" stroke-width="1.5" stroke-linecap="round" stroke-linejoin="round"/>
</svg>
