<svg width="22" height="22" viewBox="0 0 22 22" fill="none" xmlns="http://www.w3.org/2000/svg">
<path d="M10.4 1.4L5.3 6.5C5.1 6.7 5.1 7 5.3 7.2L7 8.9C7.2 9.1 7.5 9.1 7.7 8.9L12.8 3.8C13 3.6 13 3.3 12.8 3.1L11.1 1.4C10.9 1.2 10.6 1.2 10.4 1.4ZM14.3 5.3L5.3 14.3C5.1 14.5 5.1 14.8 5.3 15L7 16.7C7.2 16.9 7.5 16.9 7.7 16.7L16.7 7.7C16.9 7.5 16.9 7.2 16.7 7L15 5.3C14.8 5.1 14.5 5.1 14.3 5.3ZM18.2 9.2L9.2 18.2C9 18.4 9 18.7 9.2 18.9L10.9 20.6C11.1 20.8 11.4 20.8 11.6 20.6L20.6 11.6C20.8 11.4 20.8 11.1 20.6 10.9L18.9 9.2C18.7 9 18.4 9 18.2 9.2ZM3.1 12.8L1.4 11.1C1.2 10.9 1.2 10.6 1.4 10.4L3.1 8.7C3.3 8.5 3.6 8.5 3.8 8.7L5.5 10.4C5.7 10.6 5.7 10.9 5.5 11.1L3.8 12.8C3.6 13 3.3 13 3.1 12.8Z" stroke="#9A9ADC" stroke-width="1.5" stroke-miterlimit="10" stroke-linecap="round" stroke-linejoin="round"/>
</svg>
