<svg width="30" height="30" viewBox="0 0 30 30" fill="none" xmlns="http://www.w3.org/2000/svg">
<g clip-path="url(#clip0_82_364)">
<path d="M0.69693 30C0.528473 30 0.364594 29.9334 0.243058 29.8105C0.0828402 29.6484 0.0210422 29.4131 0.0812381 29.1932L2.03154 22.0713C0.817322 19.8756 0.17714 17.3918 0.178055 14.8705C0.181488 6.67076 6.85431 0 15.0533 0C19.0301 0.00160218 22.7669 1.55067 25.5755 4.36134C28.3836 7.17224 29.9295 10.9087 29.9283 14.8824C29.9247 23.0823 23.2519 29.7535 15.0533 29.7535C15.0533 29.7535 15.0471 29.7535 15.0469 29.7535C12.6521 29.7526 10.2779 29.1689 8.16397 28.0634L0.85875 29.9792C0.805191 29.9931 0.750717 30 0.69693 30Z" fill="#E5E5E5"/>
<path d="M0.697021 29.3616L2.71668 21.9863C1.47087 19.8278 0.815582 17.3792 0.816498 14.8706C0.819702 7.02296 7.20596 0.638306 15.0534 0.638306C18.8615 0.639908 22.436 2.12215 25.124 4.81242C27.8117 7.5027 29.2915 11.0788 29.2901 14.8821C29.2867 22.7295 22.8995 29.1151 15.0534 29.1151C15.0529 29.1151 15.0536 29.1151 15.0534 29.1151H15.0472C12.6646 29.1142 10.3236 28.5166 8.24417 27.3825L0.697021 29.3616ZM8.59367 24.8059L9.02603 25.0621C10.8424 26.1401 12.925 26.7102 15.0488 26.7114H15.0534C21.5752 26.7114 26.8834 21.4041 26.8861 14.8812C26.8873 11.7201 25.6577 8.74759 23.4236 6.51164C21.1893 4.2757 18.2186 3.04363 15.0578 3.04225C8.53073 3.04225 3.22273 8.34888 3.22022 14.8716C3.2193 17.1068 3.8446 19.2835 5.0293 21.1672L5.31082 21.6149L4.11514 25.9801L8.59367 24.8059Z" fill="white"/>
<path d="M1.19189 28.8648L3.14174 21.7445C1.93874 19.6608 1.30634 17.2966 1.30702 14.8753C1.31 7.2993 7.47539 1.13574 15.0507 1.13574C18.7274 1.13734 22.1783 2.56831 24.7727 5.16544C27.3677 7.76256 28.796 11.2148 28.7946 14.886C28.7914 22.4623 22.6258 28.6265 15.0514 28.6265C15.0507 28.6265 15.0516 28.6265 15.0514 28.6265H15.0452C12.7452 28.6256 10.485 28.0484 8.47766 26.9543L1.19189 28.8648Z" fill="#64B161"/>
<path d="M0.697021 29.3616L2.71668 21.9863C1.47087 19.8278 0.815582 17.3792 0.816498 14.8706C0.819702 7.02296 7.20596 0.638306 15.0534 0.638306C18.8615 0.639908 22.436 2.12215 25.124 4.81242C27.8117 7.5027 29.2915 11.0788 29.2901 14.8821C29.2867 22.7295 22.8995 29.1151 15.0534 29.1151C15.0529 29.1151 15.0536 29.1151 15.0534 29.1151H15.0472C12.6646 29.1142 10.3236 28.5166 8.24417 27.3825L0.697021 29.3616ZM8.59367 24.8059L9.02603 25.0621C10.8424 26.1401 12.925 26.7102 15.0488 26.7114H15.0534C21.5752 26.7114 26.8834 21.4041 26.8861 14.8812C26.8873 11.7201 25.6577 8.74759 23.4236 6.51164C21.1893 4.2757 18.2186 3.04363 15.0578 3.04225C8.53073 3.04225 3.22273 8.34888 3.22022 14.8716C3.2193 17.1068 3.8446 19.2835 5.0293 21.1672L5.31082 21.6149L4.11514 25.9801L8.59367 24.8059Z" fill="white"/>
<path fill-rule="evenodd" clip-rule="evenodd" d="M11.4952 8.92063C11.2287 8.32828 10.9481 8.31638 10.6945 8.30608C10.4872 8.29715 10.2498 8.29761 10.0129 8.29761C9.7758 8.29761 9.39037 8.38688 9.06444 8.74279C8.73828 9.0987 7.81909 9.95929 7.81909 11.7096C7.81909 13.46 9.09396 15.1512 9.2718 15.3888C9.44965 15.6262 11.7327 19.3327 15.3484 20.7586C18.3534 21.9438 18.9647 21.708 19.617 21.6487C20.2693 21.5895 21.7216 20.7882 22.018 19.9575C22.3146 19.1269 22.3146 18.4151 22.2256 18.2661C22.1366 18.118 21.8994 18.029 21.5438 17.8511C21.1881 17.6733 19.4392 16.8125 19.113 16.6939C18.7869 16.5751 18.5498 16.5161 18.3126 16.8722C18.0753 17.2279 17.3941 18.029 17.1865 18.2661C16.9789 18.5039 16.7713 18.5337 16.4157 18.3556C16.06 18.1773 14.9142 17.8019 13.5551 16.59C12.4977 15.6472 11.7836 14.4827 11.576 14.1265C11.3686 13.7709 11.5725 13.5951 11.7323 13.4008C12.02 13.0508 12.5027 12.4216 12.6213 12.1845C12.7398 11.9469 12.6805 11.7393 12.5917 11.5612C12.5027 11.3834 11.8112 9.62421 11.4952 8.92063Z" fill="white"/>
</g>
<defs>
<clipPath id="clip0_82_364">
<rect width="30" height="30" fill="white"/>
</clipPath>
</defs>
</svg>
