<svg width="22" height="22" viewBox="0 0 22 22" fill="none" xmlns="http://www.w3.org/2000/svg">
<path d="M12.1 15.5374C12.1 15.5374 13.9333 14.3458 14.3 14.1624C14.6666 13.9791 15.0791 13.8874 15.3083 14.0708C15.675 14.2999 18.7458 16.3166 19.0208 16.4999C19.2958 16.6833 19.3875 17.1874 19.0666 17.6916C18.7 18.1958 17.0958 20.2124 16.4083 20.1666C15.7208 20.1666 12.5583 20.3499 7.10414 14.9416C1.64997 9.48742 1.83331 6.32492 1.83331 5.63742C1.83331 4.94992 3.80414 3.29992 4.30831 2.97908C4.81247 2.61242 5.31664 2.74992 5.49997 3.02492C5.68331 3.29992 7.69997 6.37075 7.92914 6.73742C8.06664 6.96658 8.02081 7.37908 7.83747 7.74575C7.65414 8.11242 6.46247 9.94575 6.46247 9.94575C6.46247 9.94575 6.78331 11.2291 8.75414 13.2458C10.7708 15.2166 12.1 15.5374 12.1 15.5374Z" fill="#2196F3"/>
<path d="M16.0417 4.125H11.4584V5.95833H16.0417C16.5459 5.95833 16.9584 6.37083 16.9584 6.875V11.4583H18.7917V6.875C18.7917 5.3625 17.5542 4.125 16.0417 4.125Z" fill="#3F51B5"/>
<path d="M12.8333 7.33333L9.76251 5.04167L12.8333 2.75V7.33333Z" fill="#3F51B5"/>
</svg>
