<svg width="16" height="19" viewBox="0 0 16 19" fill="none" xmlns="http://www.w3.org/2000/svg">
<path d="M12.2219 2.05333V0.666667C12.2219 0.302222 11.9197 0 11.5552 0C11.1908 0 10.8885 0.302222 10.8885 0.666667V2H5.11077V0.666667C5.11077 0.302222 4.80855 0 4.44411 0C4.07966 0 3.77744 0.302222 3.77744 0.666667V2.05333C1.37744 2.27556 0.212994 3.70667 0.0352167 5.83111C0.017439 6.08889 0.230772 6.30222 0.479661 6.30222H15.5197C15.7774 6.30222 15.9908 6.08 15.9641 5.83111C15.7863 3.70667 14.6219 2.27556 12.2219 2.05333Z" fill="#6165D7"/>
<path opacity="0.4" d="M15.1111 7.63525C15.6 7.63525 16 8.03525 16 8.52414V13.9997C16 16.6664 14.6667 18.4441 11.5556 18.4441H4.44444C1.33333 18.4441 0 16.6664 0 13.9997V8.52414C0 8.03525 0.4 7.63525 0.888889 7.63525H15.1111Z" fill="#D9DBFF"/>
<path d="M4.88889 12.2212C4.77333 12.2212 4.65778 12.1945 4.55111 12.1501C4.44444 12.1056 4.34667 12.0434 4.25778 11.9634C4.17778 11.8745 4.11556 11.7767 4.07111 11.6701C4.02545 11.5632 4.00129 11.4484 4 11.3323C4 11.2167 4.02667 11.1012 4.07111 10.9945C4.11556 10.8878 4.17778 10.7901 4.25778 10.7012C4.34667 10.6212 4.44444 10.5589 4.55111 10.5145C4.76752 10.4256 5.01026 10.4256 5.22667 10.5145C5.33333 10.5589 5.43111 10.6212 5.52 10.7012C5.6 10.7901 5.66222 10.8878 5.70667 10.9945C5.75111 11.1012 5.77778 11.2167 5.77778 11.3323C5.77778 11.4478 5.75111 11.5634 5.70667 11.6701C5.66222 11.7767 5.6 11.8745 5.52 11.9634C5.43111 12.0434 5.33333 12.1056 5.22667 12.1501C5.12 12.1945 5.00444 12.2212 4.88889 12.2212ZM8 12.2212C7.88445 12.2212 7.76889 12.1945 7.66222 12.1501C7.55556 12.1056 7.45778 12.0434 7.36889 11.9634C7.20889 11.7945 7.11111 11.5634 7.11111 11.3323C7.11111 11.1012 7.20889 10.8701 7.36889 10.7012C7.45778 10.6212 7.55556 10.5589 7.66222 10.5145C7.87556 10.4167 8.12445 10.4167 8.33778 10.5145C8.44445 10.5589 8.54222 10.6212 8.63111 10.7012C8.79111 10.8701 8.88889 11.1012 8.88889 11.3323C8.88889 11.5634 8.79111 11.7945 8.63111 11.9634C8.54222 12.0434 8.44445 12.1056 8.33778 12.1501C8.23111 12.1945 8.11556 12.2212 8 12.2212ZM4.88889 15.3323C4.77333 15.3323 4.65778 15.3056 4.55111 15.2612C4.44444 15.2167 4.34667 15.1545 4.25778 15.0745C4.09778 14.9056 4 14.6745 4 14.4434C4 14.2123 4.09778 13.9812 4.25778 13.8123C4.34667 13.7323 4.44444 13.6701 4.55111 13.6256C4.76752 13.5367 5.01026 13.5367 5.22667 13.6256C5.33333 13.6701 5.43111 13.7323 5.52 13.8123C5.68 13.9812 5.77778 14.2123 5.77778 14.4434C5.77778 14.6745 5.68 14.9056 5.52 15.0745C5.43111 15.1545 5.33333 15.2167 5.22667 15.2612C5.12 15.3056 5.00444 15.3323 4.88889 15.3323Z" fill="#6165D7"/>
</svg>
