<svg width="721" height="508" viewBox="0 0 721 508" fill="none" xmlns="http://www.w3.org/2000/svg">
<path d="M256.681 424.383L254.394 426.674L248.78 432.296L243.167 437.919L237.553 443.542L231.939 449.164L226.325 454.787L220.712 460.41L215.098 466.032L209.484 471.655L198.513 482.643L198.244 482.912L192.63 488.535L187.016 494.158L181.403 499.78L175.789 505.403L173.245 507.951C173.6 507.951 173.954 507.939 174.309 507.927L177.122 505.109L182.736 499.486L188.35 493.864L193.963 488.241L199.577 482.618L205.191 476.996L210.805 471.373L216.419 465.75L222.032 460.128L227.646 454.505L233.26 448.882L238.874 443.26L244.488 437.637L250.101 432.014L255.715 426.392L256.632 425.473C256.632 425.118 256.657 424.763 256.657 424.407L256.681 424.383Z" fill="#9A8CF3"/>
<path d="M256.351 430.336L254.394 432.296L248.781 437.919L243.167 443.541L237.553 449.164L226.582 460.152L226.313 460.422L220.699 466.044L215.085 471.667L209.472 477.29L203.858 482.912L198.244 488.535L192.63 494.158L187.016 499.78L181.403 505.403L179.189 507.62C179.568 507.584 179.947 507.559 180.326 507.51L188.081 499.744L188.35 499.474L193.963 493.852L199.577 488.229L205.191 482.606L210.805 476.984L216.419 471.361L222.032 465.738L227.646 460.115L233.26 454.493L238.874 448.87L244.488 443.248L250.101 437.625L255.715 432.002L256.229 431.488C256.266 431.108 256.302 430.728 256.339 430.348L256.351 430.336Z" fill="#9A8CF3"/>
<path d="M210.952 498.31C211.71 497.906 212.468 497.502 213.226 497.073L216.394 493.901L222.008 488.278L227.622 482.655L233.236 477.033L238.849 471.41L244.463 465.787L245.735 464.513C246.163 463.766 246.567 463.006 246.97 462.235L243.13 466.081L237.516 471.704L226.545 482.692L226.276 482.961L220.663 488.584L215.049 494.207L210.939 498.323L210.952 498.31Z" fill="#9A8CF3"/>
<path d="M200.849 502.806C201.412 502.598 201.962 502.39 202.525 502.169L205.167 499.523L210.78 493.9L216.394 488.278L222.008 482.655L227.622 477.032L233.236 471.41L238.849 465.787L244.463 460.164L250.077 454.542L250.823 453.795C251.043 453.243 251.251 452.68 251.459 452.116L248.744 454.836L243.13 460.458L237.516 466.081L231.902 471.704L226.289 477.326L220.675 482.949L215.061 488.572L209.447 494.194L200.849 502.806V502.806Z" fill="#9A8CF3"/>
<path d="M199.541 499.523L205.154 493.901L210.768 488.278L216.382 482.655L221.996 477.033L227.61 471.41L233.223 465.787L238.837 460.164L244.451 454.542L250.065 448.919L253.599 445.379C253.734 444.901 253.856 444.436 253.978 443.958L248.719 449.225L243.106 454.848L237.492 460.471L231.878 466.093L226.264 471.716L220.65 477.339L215.037 482.961L209.423 488.584L203.809 494.207L198.195 499.829L192.679 505.354C193.156 505.232 193.621 505.097 194.098 504.974L199.528 499.535L199.541 499.523Z" fill="#9A8CF3"/>
<path d="M193.927 499.523L199.541 493.9L205.154 488.278L216.125 477.29L216.394 477.02L222.008 471.398L227.622 465.775L238.862 454.517L244.475 448.895L250.089 443.272L255.287 438.066C255.361 437.649 255.434 437.233 255.507 436.816L251.569 440.761L248.756 443.578L243.142 449.201L237.528 454.824L231.915 460.446L226.301 466.069L220.687 471.692L215.073 477.314L209.459 482.937L203.846 488.56L198.232 494.182L192.618 499.805L187.004 505.428L185.61 506.824C186.026 506.75 186.442 506.689 186.858 506.604L188.337 505.121L193.951 499.499L193.927 499.523Z" fill="#9A8CF3"/>
<path d="M117.975 356.102C113.205 359.949 108.864 364.297 105.023 369.075L109.634 364.457L115.248 358.834L117.975 356.102Z" fill="#9A8CF3"/>
<path d="M255.556 408.617L254.394 409.781L248.781 415.404L243.167 421.026L237.553 426.649L231.939 432.272L226.325 437.894L220.712 443.517L215.098 449.14L209.484 454.762L203.87 460.385L198.256 466.008L192.643 471.63L187.029 477.253L181.415 482.876L175.801 488.498L170.187 494.121L164.574 499.744L158.96 505.366L157.541 506.787C157.835 506.836 158.128 506.885 158.434 506.934L165.919 499.437L171.533 493.815L177.146 488.192L188.117 477.204L188.386 476.935L194 471.312L199.614 465.689L205.228 460.067L210.842 454.444L216.455 448.821L222.069 443.199L227.683 437.576L233.297 431.953L238.911 426.331L244.524 420.708L250.138 415.085L255.727 409.487C255.679 409.193 255.63 408.899 255.581 408.593L255.556 408.617Z" fill="#9A8CF3"/>
<path d="M256.229 413.578L254.394 415.416L248.78 421.039L243.167 426.661L237.553 432.284L229.126 440.724L226.313 443.541L220.699 449.164L215.085 454.787L209.472 460.409L203.858 466.032L198.244 471.655L192.63 477.277L187.016 482.9L181.403 488.523L175.789 494.145L170.175 499.768L164.561 505.391L162.47 507.485C162.788 507.522 163.106 507.547 163.412 507.583L165.894 505.097L171.508 499.474L177.122 493.851L182.736 488.229L188.35 482.606L193.963 476.983L199.577 471.361L205.191 465.738L216.431 454.481L222.045 448.858L227.658 443.235L236.746 434.134L238.898 431.99L244.512 426.367L250.126 420.745L255.74 415.122L256.327 414.534C256.302 414.215 256.266 413.897 256.229 413.591V413.578Z" fill="#9A8CF3"/>
<path d="M256.62 418.821L254.407 421.039L248.793 426.661L243.179 432.284L237.565 437.907L231.951 443.529L226.338 449.152L220.724 454.775L215.11 460.397L209.496 466.02L203.882 471.643L198.269 477.265L192.655 482.888L187.041 488.511L181.427 494.133L170.187 505.391L167.717 507.865C168.047 507.877 168.377 507.89 168.72 507.902L171.533 505.085L177.147 499.462L182.76 493.839L188.374 488.217L193.988 482.594L199.602 476.971L205.215 471.349L210.829 465.726L216.443 460.103L222.057 454.481L227.671 448.858L233.284 443.235L238.898 437.613L244.512 431.99L250.126 426.367L255.74 420.745L256.657 419.826C256.657 419.495 256.633 419.152 256.62 418.821Z" fill="#9A8CF3"/>
<path d="M248.988 387.07L248.78 387.278L243.167 392.901L237.553 398.523L231.939 404.146L226.325 409.769L220.712 415.391L215.098 421.014L209.484 426.637L203.87 432.259L198.256 437.882L192.643 443.505L187.029 449.127L181.415 454.75L175.801 460.373L170.187 465.995L164.574 471.618L158.96 477.241L153.346 482.863L147.732 488.486L142.118 494.109L136.505 499.731L136.052 500.185C136.284 500.295 136.529 500.405 136.761 500.515L137.569 499.707L137.838 499.437L143.451 493.815L149.065 488.192L154.679 482.569L160.293 476.947L165.907 471.324L171.52 465.701L177.134 460.079L182.748 454.456L188.362 448.833L193.976 443.211L199.589 437.588L205.203 431.965L210.817 426.343L216.431 420.72L222.045 415.097L227.658 409.475L233.272 403.852L238.886 398.229L244.5 392.607L249.306 387.793C249.196 387.56 249.086 387.315 248.988 387.082V387.07Z" fill="#9A8CF3"/>
<path d="M250.958 391.749C250.86 391.504 250.762 391.247 250.664 391.002L248.78 392.888L243.167 398.511L237.553 404.134L231.939 409.756L226.325 415.379L220.712 421.002L215.098 426.624L209.484 432.247L201.057 440.687L198.244 443.505L192.63 449.127L187.016 454.75L181.403 460.373L175.789 465.995L170.175 471.618L164.561 477.241L158.947 482.863L153.334 488.486L147.72 494.109L142.106 499.731L139.966 501.875C140.21 501.973 140.467 502.071 140.712 502.169L143.451 499.425L149.065 493.802L154.679 488.18L165.919 476.922L171.533 471.3L177.146 465.677L188.386 454.419L194 448.797L199.614 443.174L205.228 437.551L210.841 431.929L216.455 426.306L222.069 420.683L227.683 415.061L233.297 409.438L238.91 403.815L244.524 398.193L250.138 392.57L250.982 391.725L250.958 391.749Z" fill="#9A8CF3"/>
<path d="M242.995 376.18L237.541 381.643L231.927 387.266L226.313 392.889L220.699 398.511L215.085 404.134L209.472 409.757L203.858 415.379L198.244 421.002L192.63 426.624L187.016 432.247L181.403 437.87L175.789 443.493L170.175 449.115L164.561 454.738L158.947 460.361L153.334 465.983L147.72 471.606L142.106 477.228L136.492 482.851L130.878 488.474L125.265 494.097L125.179 494.182C125.387 494.317 125.595 494.452 125.803 494.586L126.598 493.79L132.212 488.168L137.825 482.545L143.439 476.922L149.053 471.3L154.667 465.677L165.907 454.419L171.52 448.797L177.134 443.174L186.221 434.072L188.362 431.929L193.976 426.306L199.589 420.683L205.203 415.061L210.817 409.438L216.431 403.815L222.045 398.193L227.658 392.57L233.272 386.947L238.886 381.325L243.411 376.792C243.277 376.584 243.142 376.376 243.008 376.167L242.995 376.18Z" fill="#9A8CF3"/>
<path d="M245.527 380.32C245.405 380.1 245.27 379.879 245.148 379.659L243.167 381.643L237.553 387.266L231.939 392.889L226.325 398.511L220.712 404.134L215.098 409.757L209.484 415.379L203.87 421.002L198.256 426.624L192.643 432.247L187.029 437.87L181.415 443.493L175.801 449.115L170.187 454.738L164.574 460.361L158.96 465.983L153.346 471.606L147.732 477.228L142.118 482.851L136.505 488.474L130.891 494.097L128.653 496.338C128.873 496.461 129.093 496.595 129.313 496.718L132.224 493.802L137.838 488.18L143.451 482.557L149.065 476.935L154.679 471.312L160.293 465.689L165.907 460.067L171.52 454.444L177.134 448.821L182.748 443.198L188.362 437.576L193.976 431.953L199.589 426.331L205.203 420.708L210.817 415.085L216.431 409.463L222.045 403.84L227.658 398.217L233.272 392.594L238.886 386.972L244.5 381.349L245.527 380.32Z" fill="#9A8CF3"/>
<path d="M236.232 367.115C236.073 366.931 235.914 366.747 235.755 366.551L231.927 370.386L226.313 376.008L220.699 381.631L215.085 387.254L209.472 392.876L203.858 398.499L198.244 404.122L192.63 409.744L187.017 415.367L181.403 420.99L175.789 426.612L170.175 432.235L164.561 437.858L158.948 443.48L153.334 449.103L147.72 454.726L142.106 460.348L136.492 465.971L130.879 471.594L119.639 482.851L115.554 486.943C115.737 487.102 115.921 487.261 116.116 487.42L120.972 482.557L126.586 476.934L132.199 471.312L137.813 465.689L143.427 460.067L149.041 454.444L154.655 448.821L160.268 443.198L165.882 437.576L171.496 431.953L177.11 426.33L182.724 420.708L188.337 415.085L193.951 409.463L199.565 403.84L205.179 398.217L210.793 392.594L216.406 386.972L222.02 381.349L227.634 375.726L233.248 370.104L236.22 367.127L236.232 367.115Z" fill="#9A8CF3"/>
<path d="M233.578 364.15C233.407 363.967 233.248 363.795 233.077 363.611L231.927 364.763L226.313 370.386L220.699 376.008L215.085 381.631L209.472 387.254L203.858 392.876L198.244 398.499L192.63 404.122L187.016 409.744L181.403 415.367L175.789 420.99L170.175 426.612L164.561 432.235L158.947 437.858L153.334 443.48L147.72 449.103L142.106 454.726L136.492 460.348L130.878 465.971L125.265 471.594L119.651 477.216L114.037 482.839L112.643 484.235C112.814 484.407 112.998 484.566 113.181 484.738L115.382 482.533L120.996 476.91L126.61 471.287L132.224 465.665L137.838 460.042L143.451 454.419L149.065 448.797L154.679 443.174L165.503 432.333L165.919 431.916L171.533 426.294L177.146 420.671L182.76 415.048L188.374 409.426L193.988 403.803L199.602 398.18L205.215 392.558L210.829 386.935L216.443 381.312L222.057 375.69L227.671 370.067L233.284 364.444L233.602 364.126L233.578 364.15Z" fill="#9A8CF3"/>
<path d="M238.764 370.214C238.617 370.018 238.458 369.822 238.311 369.638L237.553 370.398L231.939 376.02L226.325 381.643L220.712 387.266L215.098 392.888L209.484 398.511L203.87 404.134L198.256 409.756L192.643 415.379L187.029 421.002L181.415 426.624L175.801 432.247L170.187 437.87L164.574 443.492L158.96 449.115L147.989 460.103L147.72 460.373L142.106 465.995L136.492 471.618L130.879 477.241L125.265 482.863L119.651 488.486L118.636 489.503C118.831 489.662 119.027 489.809 119.223 489.956L120.996 488.18L126.61 482.557L132.224 476.934L137.838 471.312L143.451 465.689L149.065 460.066L154.679 454.444L160.293 448.821L165.907 443.198L171.52 437.576L177.134 431.953L182.748 426.33L188.362 420.708L193.976 415.085L199.589 409.462L205.203 403.84L210.817 398.217L216.431 392.594L222.045 386.972L227.658 381.349L233.272 375.726L238.776 370.214H238.764Z" fill="#9A8CF3"/>
<path d="M230.789 361.308C230.618 361.137 230.447 360.965 230.264 360.794L226.301 364.763L220.687 370.386L215.073 376.008L209.459 381.631L203.846 387.254L198.232 392.876L192.618 398.499L187.004 404.122L181.39 409.744L175.777 415.367L170.163 420.99L164.549 426.612L158.935 432.235L150.508 440.675L147.695 443.492L142.082 449.115L136.468 454.738L130.854 460.36L125.24 465.983L119.626 471.606L114.013 477.228L109.805 481.442C109.977 481.614 110.148 481.798 110.319 481.969L115.346 476.934L120.96 471.312L126.573 465.689L137.813 454.432L143.427 448.809L149.041 443.186L154.655 437.564L160.268 431.941L165.882 426.318L171.496 420.696L177.11 415.073L182.724 409.45L188.337 403.828L193.951 398.205L199.565 392.582L205.179 386.96L210.793 381.337L216.406 375.714L222.02 370.092L227.634 364.469L230.777 361.321L230.789 361.308Z" fill="#9A8CF3"/>
<path d="M181.342 342.248L175.728 347.87L170.114 353.493L164.5 359.116L158.886 364.738L153.273 370.361L147.659 375.984L142.045 381.606L136.431 387.229L130.817 392.852L125.204 398.474L119.59 404.097L113.976 409.72L108.362 415.342L102.748 420.965L97.1346 426.588L91.5208 432.21L87.3746 436.363C87.4236 436.657 87.4725 436.963 87.5214 437.257L92.8539 431.916L98.4677 426.294L104.081 420.671L109.695 415.048L115.309 409.426L120.923 403.803L126.537 398.18L132.15 392.558L137.764 386.935L143.378 381.312L148.992 375.69L154.606 370.067L160.219 364.444L165.833 358.822L171.447 353.199L177.061 347.576L182.675 341.954L186.124 338.499C185.83 338.45 185.537 338.401 185.231 338.352L181.329 342.26L181.342 342.248Z" fill="#9A8CF3"/>
<path d="M175.728 342.248L170.114 347.87L164.5 353.493L158.886 359.116L153.273 364.738L147.659 370.361L142.045 375.984L136.431 381.606L130.817 387.229L125.204 392.852L119.59 398.474L113.976 404.097L108.362 409.72L102.748 415.342L97.1346 420.965L91.5208 426.588L86.7142 431.402C86.7509 431.708 86.7876 432.027 86.8242 432.333L87.2401 431.916L92.8539 426.294L98.4677 420.671L104.081 415.048L109.695 409.426L115.309 403.803L120.923 398.18L126.537 392.558L132.15 386.935L137.764 381.312L143.378 375.69L148.992 370.067L154.606 364.444L160.219 358.822L165.833 353.199L171.447 347.576L177.061 341.954L181.219 337.789C180.913 337.752 180.595 337.715 180.29 337.679L175.728 342.248V342.248Z" fill="#9A8CF3"/>
<path d="M170.102 342.248L164.488 347.87L158.874 353.493L153.26 359.116L147.647 364.738L142.033 370.361L136.419 375.984L130.805 381.606L125.191 387.229L119.578 392.852L113.964 398.474L108.35 404.097L102.736 409.72L97.1223 415.342L91.5085 420.965L86.335 426.147C86.3473 426.477 86.3595 426.808 86.3839 427.139L87.2401 426.281L92.8539 420.659L98.4677 415.036L104.081 409.413L109.695 403.791L115.309 398.168L120.923 392.545L126.537 386.923L132.15 381.3L137.764 375.677L143.378 370.055L148.992 364.432L154.606 358.809L160.219 353.187L165.833 347.564L171.447 341.941L176.046 337.336C175.715 337.323 175.385 337.311 175.055 337.286L170.114 342.235L170.102 342.248Z" fill="#9A8CF3"/>
<path d="M164.488 342.248L158.874 347.87L153.26 353.493L147.647 359.116L142.033 364.738L136.419 370.361L130.805 375.984L125.191 381.606L119.578 387.229L113.964 392.852L108.35 398.474L102.736 404.097L97.1223 409.72L91.5085 415.342L86.2739 420.585C86.2739 420.941 86.2739 421.284 86.2617 421.639L87.2279 420.671L92.8417 415.048L98.4555 409.426L104.069 403.803L109.683 398.18L115.297 392.558L120.911 386.935L126.524 381.312L132.138 375.69L137.752 370.067L143.366 364.444L148.98 358.822L154.593 353.199L160.207 347.576L165.821 341.954L170.53 337.238C170.175 337.238 169.833 337.238 169.478 337.25L164.488 342.248V342.248Z" fill="#9A8CF3"/>
<path d="M153.248 342.248L147.634 347.87L142.021 353.493L136.407 359.116L130.793 364.738L125.179 370.361L119.565 375.984L113.952 381.606L108.338 387.229L102.724 392.852L97.1101 398.474L91.4963 404.097L87.448 408.139C87.3746 408.556 87.3013 408.972 87.2401 409.389L92.8294 403.791L98.4432 398.168L104.057 392.545L109.671 386.923L115.285 381.3L120.898 375.677L126.512 370.055L132.126 364.432L137.74 358.809L143.354 353.187L148.967 347.564L154.581 341.941L158.287 338.23C157.871 338.291 157.455 338.365 157.04 338.438L153.236 342.248H153.248Z" fill="#9A8CF3"/>
<path d="M154.581 505.158L160.195 499.535L165.809 493.913L171.423 488.29L177.036 482.667L182.65 477.045L188.264 471.422L193.878 465.799L199.492 460.177L205.105 454.554L210.719 448.931L216.333 443.309L221.947 437.686L227.561 432.063L233.174 426.441L238.788 420.818L244.402 415.195L250.016 409.573L254.724 404.857C254.663 404.575 254.602 404.293 254.541 403.999L254.296 404.244L248.683 409.867L243.069 415.489L237.455 421.112L231.841 426.735L226.227 432.357L220.614 437.98L215 443.603L209.386 449.225L198.415 460.213L198.146 460.483L192.532 466.106L186.919 471.728L181.305 477.351L175.691 482.974L170.077 488.596L164.463 494.219L158.85 499.842L153.236 505.464L152.734 505.967C153.016 506.028 153.297 506.089 153.591 506.15L154.581 505.158V505.158Z" fill="#9A8CF3"/>
<path d="M154.581 499.523L160.195 493.9L165.809 488.278L171.423 482.655L177.036 477.032L182.65 471.41L188.264 465.787L193.878 460.164L199.492 454.542L205.105 448.919L210.719 443.296L216.333 437.674L221.947 432.051L227.561 426.428L233.174 420.806L238.788 415.183L244.402 409.56L250.016 403.938L253.636 400.312C253.563 400.042 253.489 399.761 253.416 399.491L248.683 404.232L243.069 409.854L237.455 415.477L231.841 421.1L226.227 426.722L220.614 432.345L215 437.968L209.386 443.59L203.772 449.213L198.158 454.836L192.545 460.458L186.931 466.081L181.317 471.704L170.077 482.961L164.463 488.584L158.85 494.207L148.234 504.84C148.503 504.913 148.772 504.987 149.053 505.06L154.569 499.535L154.581 499.523Z" fill="#9A8CF3"/>
<path d="M148.967 499.523L154.581 493.901L160.195 488.278L165.809 482.655L171.423 477.033L177.036 471.41L182.65 465.787L188.264 460.165L193.878 454.542L199.492 448.919L205.105 443.297L214.193 434.195L216.333 432.051L221.947 426.429L227.561 420.806L233.174 415.183L238.788 409.561L244.402 403.938L250.016 398.315L252.34 395.988C252.254 395.73 252.168 395.461 252.083 395.204L248.683 398.609L243.069 404.232L237.455 409.855L231.841 415.477L226.227 421.1L220.614 426.723L215 432.345L209.386 437.968L203.772 443.591L198.158 449.213L192.545 454.836L186.931 460.459L181.317 466.081L175.703 471.704L170.089 477.327L164.476 482.949L158.862 488.572L153.248 494.195L147.634 499.817L143.977 503.48C144.234 503.566 144.503 503.651 144.76 503.737L148.98 499.511L148.967 499.523Z" fill="#9A8CF3"/>
<path d="M143.305 341.99C142.767 342.174 142.228 342.37 141.69 342.578L136.394 347.883L130.781 353.505L125.167 359.128L119.553 364.751L113.939 370.373L108.325 375.996L102.712 381.619L97.0979 387.241L91.5575 392.79C91.3618 393.329 91.1661 393.868 90.9704 394.407L92.805 392.57L98.4188 386.947L104.033 381.325L109.646 375.702L115.26 370.079L120.874 364.457L126.488 358.834L132.102 353.211L137.715 347.589L143.292 342.003L143.305 341.99Z" fill="#9A8CF3"/>
<path d="M137.728 493.9L143.341 488.278L148.955 482.655L154.569 477.032L160.183 471.41L165.797 465.787L171.41 460.164L177.024 454.542L182.638 448.919L188.252 443.296L193.866 437.674L199.479 432.051L205.093 426.428L210.707 420.806L216.321 415.183L221.935 409.56L227.548 403.938L233.162 398.315L238.776 392.692L244.39 387.07L247.386 384.069C247.264 383.836 247.154 383.615 247.032 383.383L243.057 387.364L237.443 392.986L231.829 398.609L226.215 404.232L220.601 409.854L214.988 415.477L209.374 421.1L203.76 426.722L198.146 432.345L192.532 437.968L186.919 443.59L181.305 449.213L170.065 460.471L164.451 466.093L158.837 471.716L147.867 482.704L147.598 482.974L141.984 488.596L136.37 494.219L132.138 498.457C132.371 498.58 132.591 498.69 132.823 498.813L137.703 493.925L137.728 493.9Z" fill="#9A8CF3"/>
<path d="M131.478 347.172L130.768 347.883L125.155 353.505L119.541 359.128L113.927 364.751L108.313 370.373L102.699 375.996L97.0856 381.619L96.1439 382.562C95.7647 383.272 95.41 383.983 95.0554 384.693L98.431 381.312L104.045 375.69L109.659 370.067L115.272 364.444L120.886 358.822L126.5 353.199L132.114 347.576L133.606 346.082C132.884 346.437 132.175 346.805 131.478 347.172V347.172Z" fill="#9A8CF3"/>
<path d="M126.488 488.266L137.459 477.277L137.728 477.008L143.341 471.385L148.955 465.763L154.569 460.14L160.183 454.517L165.797 448.895L171.41 443.272L177.024 437.649L182.638 432.027L188.252 426.404L193.866 420.781L199.479 415.159L205.093 409.536L210.707 403.913L216.321 398.291L221.935 392.668L227.548 387.045L233.162 381.423L238.776 375.8L241.051 373.522C240.904 373.313 240.77 373.117 240.623 372.921L237.443 376.106L231.829 381.729L226.215 387.352L220.601 392.974L214.988 398.597L209.374 404.22L203.76 409.842L198.146 415.465L192.532 421.088L186.919 426.71L181.305 432.333L170.065 443.59L164.451 449.213L158.837 454.836L153.224 460.458L147.61 466.081L141.996 471.704L136.382 477.326L130.768 482.949L125.155 488.572L121.73 492.002C121.926 492.149 122.134 492.296 122.329 492.43L126.488 488.266V488.266Z" fill="#9A8CF3"/>
<path d="M107.029 478.576C107.188 478.76 107.359 478.943 107.518 479.127L109.634 477.008L115.248 471.385L120.862 465.763L126.476 460.14L132.089 454.517L137.703 448.895L143.317 443.272L148.931 437.649L154.545 432.027L160.158 426.404L165.772 420.781L171.386 415.159L177 409.536L182.614 403.913L188.227 398.291L193.841 392.668L199.455 387.045L205.069 381.423L210.683 375.8L216.296 370.177L221.91 364.555L227.524 358.932L227.756 358.699C227.573 358.54 227.389 358.368 227.206 358.209L226.191 359.226L220.577 364.849L214.963 370.471L209.349 376.094L203.736 381.717L198.122 387.339L192.508 392.962L186.894 398.585L181.28 404.207L175.667 409.83L170.053 415.453L164.439 421.075L158.825 426.698L153.211 432.321L147.598 437.943L141.984 443.566L136.37 449.189L130.756 454.811L125.142 460.434L119.529 466.057L113.915 471.679L108.301 477.302L107.041 478.564L107.029 478.576Z" fill="#9A8CF3"/>
<path d="M102.076 472.292C102.222 472.488 102.369 472.696 102.516 472.892L104.02 471.385L109.634 465.763L115.248 460.14L120.862 454.517L126.476 448.895L132.089 443.272L137.703 437.649L143.317 432.027L148.931 426.404L154.545 420.781L160.158 415.159L165.772 409.536L171.386 403.913L177 398.291L182.614 392.668L188.227 387.045L193.841 381.423L199.455 375.8L205.069 370.177L210.682 364.555L216.296 358.932L221.531 353.689C221.335 353.542 221.127 353.395 220.932 353.248L220.577 353.603L214.963 359.226L209.349 364.849L203.736 370.471L198.122 376.094L192.508 381.717L186.894 387.339L181.28 392.962L175.667 398.585L170.053 404.207L164.439 409.83L158.825 415.453L153.211 421.075L147.598 426.698L141.984 432.321L136.37 437.943L130.756 443.566L125.142 449.189L119.529 454.811L113.915 460.434L108.301 466.057L102.687 471.679L102.088 472.28L102.076 472.292Z" fill="#9A8CF3"/>
<path d="M104.008 465.763L115.248 454.505L120.862 448.882L126.476 443.26L135.563 434.158L137.703 432.014L143.317 426.392L148.931 420.769L154.545 415.146L160.158 409.524L165.772 403.901L171.386 398.278L177 392.656L182.614 387.033L188.227 381.41L193.841 375.788L199.455 370.165L205.069 364.542L210.682 358.92L216.296 353.297L218.216 351.374C218.009 351.239 217.801 351.092 217.593 350.957L214.963 353.591L209.349 359.214L203.736 364.836L198.122 370.459L192.508 376.082L186.894 381.704L181.28 387.327L175.667 392.95L170.053 398.572L164.439 404.195L158.825 409.818L153.211 415.44L147.598 421.063L141.984 426.686L136.37 432.308L130.756 437.931L125.142 443.554L119.529 449.176L113.915 454.799L108.301 460.422L102.687 466.044L99.813 468.923C99.9476 469.131 100.082 469.34 100.229 469.548L104.033 465.738L104.008 465.763Z" fill="#9A8CF3"/>
<path d="M104.95 476.077L109.634 471.385L115.248 465.763L120.862 460.14L126.476 454.517L132.089 448.895L137.703 443.272L143.317 437.649L148.931 432.027L154.545 426.404L160.158 420.781L165.772 415.159L171.386 409.536L177 403.913L182.614 398.291L188.227 392.668L193.841 387.045L199.455 381.423L205.069 375.8L210.683 370.177L216.296 364.555L221.91 358.932L224.711 356.127C224.515 355.968 224.332 355.821 224.136 355.661L220.577 359.226L214.963 364.849L209.349 370.471L203.736 376.094L198.122 381.717L192.508 387.339L186.894 392.962L181.28 398.585L175.667 404.207L170.053 409.83L164.439 415.453L158.825 421.075L153.211 426.698L147.598 432.321L141.984 437.943L136.37 443.566L130.756 449.189L119.516 460.446L113.903 466.069L108.289 471.692L104.485 475.501C104.632 475.697 104.791 475.881 104.95 476.077V476.077Z" fill="#9A8CF3"/>
<path d="M97.049 460.434L95.6669 461.818C95.7892 462.051 95.8993 462.271 96.0216 462.504L98.3821 460.14L103.996 454.517L109.61 448.895L115.223 443.272L120.837 437.649L126.451 432.027L132.065 426.404L137.679 420.781L143.292 415.159L148.906 409.536L154.52 403.913L160.134 398.291L165.748 392.668L171.361 387.045L176.975 381.423L182.589 375.8L188.203 370.177L193.817 364.555L199.43 358.932L205.044 353.309L210.658 347.687L211.135 347.209C210.915 347.086 210.683 346.964 210.462 346.854L209.325 347.993L203.711 353.616L198.097 359.238L192.484 364.861L186.87 370.484L181.256 376.106L175.642 381.729L170.028 387.352L164.415 392.974L158.801 398.597L153.187 404.22L147.573 409.842L141.959 415.465L136.346 421.088L130.732 426.71L125.118 432.333L119.504 437.956L113.89 443.578L108.277 449.201L97.3058 460.189L97.0367 460.458L97.049 460.434Z" fill="#9A8CF3"/>
<path d="M98.3943 454.505L104.008 448.882L109.622 443.26L115.236 437.637L120.849 432.014L126.463 426.392L132.077 420.769L137.691 415.146L143.305 409.524L148.918 403.901L154.532 398.278L160.146 392.656L165.76 387.033L171.374 381.41L176.987 375.788L182.601 370.165L188.215 364.542L193.829 358.92L199.443 353.297L205.056 347.674L207.405 345.322C207.172 345.212 206.94 345.102 206.695 344.992L203.711 347.981L198.097 353.603L192.484 359.226L186.87 364.849L181.256 370.471L175.642 376.094L170.028 381.717L164.415 387.339L158.801 392.962L153.187 398.585L147.573 404.207L141.959 409.83L136.346 415.453L130.732 421.075L125.118 426.698L119.504 432.321L113.89 437.943L108.277 443.566L102.663 449.189L97.049 454.811L93.8323 458.033C93.9424 458.266 94.0525 458.511 94.1626 458.744L98.3943 454.505V454.505Z" fill="#9A8CF3"/>
<path d="M98.0519 466.106L98.3943 465.763L104.008 460.14L109.622 454.517L115.236 448.895L120.85 443.272L126.463 437.649L132.077 432.027L137.691 426.404L143.305 420.781L148.919 415.159L154.532 409.536L160.146 403.913L165.76 398.291L171.374 392.668L176.987 387.045L182.601 381.423L188.215 375.8L193.829 370.177L199.443 364.555L205.056 358.932L210.67 353.309L214.755 349.218C214.535 349.083 214.327 348.961 214.107 348.838L209.337 353.616L203.723 359.238L198.11 364.861L192.496 370.484L186.882 376.106L181.268 381.729L175.654 387.352L170.041 392.974L164.427 398.597L158.813 404.22L153.199 409.842L147.585 415.465L141.972 421.088L136.358 426.71L130.744 432.333L119.504 443.59L113.89 449.213L108.277 454.836L102.663 460.459L97.6483 465.481C97.7706 465.701 97.9051 465.922 98.0274 466.13L98.0519 466.106Z" fill="#9A8CF3"/>
<path d="M92.7683 398.229L98.3821 392.607L103.996 386.984L109.61 381.361L115.223 375.739L120.837 370.116L126.451 364.493L132.065 358.871L137.679 353.248L143.292 347.625L148.906 342.003L151.218 339.688C150.753 339.798 150.301 339.908 149.836 340.03L147.561 342.309L141.947 347.932L136.333 353.554L130.72 359.177L125.106 364.8L119.492 370.422L113.878 376.045L108.264 381.668L102.651 387.29L97.0367 392.913L91.423 398.536L88.9157 401.047C88.7934 401.5 88.6833 401.966 88.5732 402.431L92.7683 398.229V398.229Z" fill="#9A8CF3"/>
<path d="M92.7683 437.625L98.3821 432.002L103.996 426.379L109.61 420.757L115.223 415.134L120.837 409.511L126.451 403.889L132.065 398.266L137.679 392.643L143.292 387.021L148.906 381.398L154.52 375.775L160.134 370.153L165.748 364.53L171.361 358.907L176.975 353.285L182.589 347.662L188.203 342.039L190.71 339.528C190.429 339.467 190.148 339.406 189.866 339.344L186.87 342.346L181.256 347.968L175.642 353.591L170.028 359.214L164.415 364.836L158.801 370.459L153.187 376.082L147.573 381.704L141.959 387.327L136.346 392.95L130.732 398.572L125.118 404.195L119.504 409.818L113.89 415.44L108.277 421.063L102.663 426.686L97.049 432.308L91.4352 437.931L88.1941 441.177C88.2552 441.459 88.3164 441.741 88.3776 442.022L92.7683 437.625V437.625Z" fill="#9A8CF3"/>
<path d="M90.9092 450.744L92.7683 448.882L98.3821 443.26L103.996 437.637L109.61 432.014L115.223 426.392L120.837 420.769L126.451 415.146L132.065 409.524L137.679 403.901L143.292 398.278L148.906 392.656L154.52 387.033L160.134 381.41L165.748 375.788L171.361 370.165L176.975 364.542L182.589 358.92L188.203 353.297L193.817 347.674L199.418 342.064C199.161 341.978 198.905 341.88 198.648 341.794L198.097 342.346L192.484 347.968L186.87 353.591L181.256 359.214L175.642 364.836L170.028 370.459L164.415 376.082L158.801 381.704L153.187 387.327L147.573 392.95L141.959 398.572L136.346 404.195L130.732 409.818L125.118 415.44L119.504 421.063L113.89 426.686L108.277 432.308L99.8497 440.748L97.0367 443.566L91.4229 449.189L90.6279 449.985C90.7135 450.242 90.8114 450.499 90.897 450.757L90.9092 450.744Z" fill="#9A8CF3"/>
<path d="M92.7683 443.247L98.3821 437.625L103.996 432.002L109.61 426.379L115.223 420.757L120.837 415.134L126.451 409.511L132.065 403.889L137.679 398.266L143.292 392.643L148.906 387.021L154.52 381.398L160.134 375.775L165.748 370.153L171.361 364.53L176.975 358.907L182.589 353.285L188.203 347.662L193.817 342.039L195.162 340.692C194.893 340.618 194.624 340.533 194.355 340.459L192.484 342.333L186.87 347.956L181.256 353.579L175.642 359.201L170.028 364.824L164.415 370.447L158.801 376.069L153.187 381.692L147.573 387.315L141.959 392.937L136.346 398.56L130.732 404.183L125.118 409.805L119.504 415.428L113.89 421.051L108.277 426.673L102.663 432.296L97.0489 437.919L91.4352 443.541L89.3193 445.661C89.3927 445.93 89.466 446.2 89.5517 446.469L92.7683 443.247V443.247Z" fill="#9A8CF3"/>
<path d="M92.4503 454.824L92.7683 454.505L98.3821 448.882L103.996 443.26L114.82 432.419L115.236 432.002L120.849 426.379L126.463 420.757L132.077 415.134L137.691 409.511L143.305 403.889L148.918 398.266L154.532 392.643L160.146 387.021L165.76 381.398L171.374 375.775L176.987 370.153L182.601 364.53L188.215 358.907L193.829 353.285L199.443 347.662L203.503 343.595C203.259 343.497 203.014 343.387 202.769 343.289L198.11 347.956L192.496 353.579L186.882 359.201L181.268 364.824L175.654 370.447L170.041 376.069L164.427 381.692L158.813 387.315L153.199 392.937L147.585 398.56L141.972 404.183L136.358 409.805L130.744 415.428L125.13 421.051L119.516 426.673L113.903 432.296L108.289 437.919L102.675 443.541L97.0612 449.164L92.1567 454.076C92.2546 454.321 92.3524 454.566 92.4625 454.811L92.4503 454.824Z" fill="#9A8CF3"/>
<path d="M87.1545 415.11L92.7683 409.487L98.3821 403.864L103.996 398.242L109.61 392.619L115.223 386.996L120.837 381.374L126.451 375.751L132.065 370.128L137.679 364.506L143.292 358.883L148.906 353.26L154.52 347.638L160.134 342.015L164.586 337.556C164.207 337.581 163.827 337.617 163.448 337.654L158.801 342.309L153.187 347.932L147.573 353.554L141.959 359.177L136.346 364.8L130.732 370.422L125.118 376.045L119.504 381.668L113.89 387.29L108.277 392.913L102.663 398.536L97.049 404.158L91.4352 409.781L86.543 414.681C86.5063 415.061 86.4696 415.44 86.4451 415.82L87.1545 415.11V415.11Z" fill="#9A8CF3"/>
<path d="M384.833 258.202H250.97V480.217H384.833V258.202Z" fill="white" stroke="black" stroke-linecap="round" stroke-linejoin="round"/>
<path d="M501.108 296.887H400.414V480.989H501.108V296.887Z" fill="#9A8CF3"/>
<path d="M617.408 365.976H516.714V480.438H617.408V365.976Z" fill="white" stroke="black" stroke-linecap="round" stroke-linejoin="round"/>
<path d="M91.6553 388.846H20.4005V480.573H91.6553V388.846Z" fill="white" stroke="black" stroke-linecap="round" stroke-linejoin="round"/>
<path d="M147.549 159.235L146.069 160.718L142.412 164.38L138.755 168.043L135.098 171.706L131.441 175.368L127.784 179.031L124.127 182.694L120.47 186.357L116.813 190.019L109.683 197.161L109.5 197.345L105.843 201.007L102.186 204.67L98.5289 208.333L94.8719 211.995L93.2208 213.649C93.4532 213.649 93.6856 213.649 93.918 213.625L95.7525 211.787L99.4095 208.124L103.066 204.462L106.723 200.799L110.38 197.136L114.037 193.474L117.694 189.811L121.351 186.148L125.008 182.486L128.665 178.823L132.322 175.16L135.979 171.498L139.636 167.835L143.292 164.172L146.949 160.509L147.549 159.909C147.549 159.676 147.561 159.444 147.573 159.211L147.549 159.235Z" fill="#9A8CF3"/>
<path d="M147.329 163.106L146.057 164.38L142.4 168.043L138.743 171.706L135.086 175.368L127.955 182.51L127.772 182.694L124.115 186.356L120.458 190.019L116.801 193.682L113.144 197.345L109.487 201.007L105.83 204.67L102.174 208.333L98.5166 211.995L97.0734 213.441C97.318 213.416 97.5749 213.404 97.8195 213.367L102.858 208.32L103.042 208.137L106.699 204.474L110.356 200.811L114.013 197.149L117.67 193.486L121.326 189.823L124.983 186.16L128.64 182.498L132.297 178.835L135.954 175.172L139.611 171.51L143.268 167.847L146.925 164.184L147.255 163.854C147.28 163.609 147.304 163.364 147.329 163.106V163.106Z" fill="#9A8CF3"/>
<path d="M117.829 207.279C118.33 207.022 118.819 206.753 119.308 206.471L121.375 204.401L125.032 200.738L128.689 197.075L132.346 193.412L136.003 189.75L139.66 186.087L140.492 185.254C140.761 184.764 141.03 184.274 141.299 183.772L138.804 186.271L135.147 189.934L128.017 197.075L127.833 197.259L124.176 200.922L120.519 204.584L117.853 207.255L117.829 207.279Z" fill="#9A8CF3"/>
<path d="M111.261 210.207C111.628 210.072 111.982 209.937 112.349 209.79L114.062 208.075L117.719 204.413L121.375 200.75L125.032 197.087L128.689 193.425L132.346 189.762L136.003 186.099L139.66 182.437L143.317 178.774L143.794 178.296C143.941 177.929 144.075 177.573 144.21 177.206L142.449 178.97L138.792 182.633L135.135 186.295L131.478 189.958L127.821 193.621L124.164 197.283L120.507 200.946L116.85 204.609L111.261 210.207Z" fill="#9A8CF3"/>
<path d="M110.417 208.075L114.074 204.413L117.731 200.75L121.388 197.087L125.045 193.425L128.702 189.762L132.358 186.099L136.015 182.437L139.672 178.774L143.329 175.111L145.629 172.808C145.714 172.502 145.8 172.196 145.873 171.89L142.461 175.307L138.804 178.97L135.147 182.633L131.49 186.295L127.833 189.958L124.176 193.621L120.519 197.283L116.862 200.946L113.205 204.609L109.549 208.271L105.965 211.861C106.271 211.787 106.577 211.701 106.882 211.616L110.417 208.075V208.075Z" fill="#9A8CF3"/>
<path d="M106.76 208.075L110.417 204.413L114.074 200.75L121.204 193.608L121.388 193.425L125.045 189.762L128.701 186.099L136.003 178.786L139.66 175.123L143.317 171.461L146.693 168.08C146.741 167.81 146.79 167.541 146.827 167.259L144.259 169.819L142.436 171.644L138.779 175.307L135.123 178.97L131.466 182.633L127.809 186.295L124.152 189.958L120.495 193.621L116.838 197.283L113.181 200.946L109.524 204.609L105.867 208.271L102.21 211.934L101.305 212.841C101.574 212.792 101.843 212.755 102.125 212.706L103.091 211.738L106.748 208.075H106.76Z" fill="#9A8CF3"/>
<path d="M57.4099 114.867C54.3156 117.366 51.4904 120.195 48.9954 123.294L51.9918 120.293L55.6487 116.631L57.4222 114.854L57.4099 114.867Z" fill="#9A8CF3"/>
<path d="M146.815 148.995L146.057 149.754L142.4 153.417L138.743 157.079L135.086 160.742L131.429 164.405L127.772 168.067L124.115 171.73L120.458 175.393L116.801 179.056L113.144 182.718L109.487 186.381L105.83 190.044L102.174 193.706L98.5166 197.369L94.8597 201.032L91.2028 204.694L87.5459 208.357L83.889 212.02L82.9717 212.939C83.1674 212.975 83.3508 213 83.5465 213.037L88.4143 208.161L92.0712 204.498L95.7281 200.836L102.858 193.694L103.042 193.51L106.699 189.848L110.356 186.185L114.013 182.522L117.67 178.86L121.327 175.197L124.983 171.534L128.64 167.871L132.297 164.209L135.954 160.546L139.611 156.883L143.268 153.221L146.9 149.583C146.876 149.387 146.839 149.203 146.803 149.007L146.815 148.995Z" fill="#9A8CF3"/>
<path d="M147.255 152.216L146.069 153.405L142.412 157.067L138.755 160.73L135.098 164.393L129.619 169.881L127.796 171.706L124.14 175.368L120.483 179.031L116.826 182.694L113.169 186.357L109.512 190.019L105.855 193.682L102.198 197.345L98.5411 201.007L94.8842 204.67L91.2273 208.333L87.5704 211.995L86.2128 213.355C86.4207 213.38 86.6164 213.392 86.8243 213.416L88.4387 211.799L92.0956 208.137L95.7526 204.474L99.4095 200.811L103.066 197.149L106.723 193.486L110.38 189.823L114.037 186.161L121.339 178.847L124.996 175.185L128.653 171.522L134.56 165.605L135.954 164.209L139.611 160.546L143.268 156.883L146.925 153.221L147.304 152.841C147.28 152.633 147.267 152.425 147.243 152.229L147.255 152.216Z" fill="#9A8CF3"/>
<path d="M147.5 155.622L146.057 157.067L142.4 160.73L138.743 164.393L135.086 168.055L131.429 171.718L127.772 175.381L124.115 179.043L120.458 182.706L116.801 186.369L113.144 190.031L109.487 193.694L105.83 197.357L102.174 201.02L98.5166 204.682L91.215 211.995L89.6006 213.612C89.8207 213.612 90.0287 213.625 90.2488 213.637L92.0834 211.799L95.7403 208.137L99.3972 204.474L103.054 200.811L106.711 197.149L110.368 193.486L114.025 189.823L117.682 186.161L121.339 182.498L124.996 178.835L128.653 175.172L132.309 171.51L135.966 167.847L139.623 164.184L143.28 160.522L146.937 156.859L147.536 156.259C147.536 156.038 147.524 155.83 147.512 155.609L147.5 155.622Z" fill="#9A8CF3"/>
<path d="M142.546 134.993L142.412 135.128L138.755 138.79L135.098 142.453L131.441 146.116L127.784 149.779L124.127 153.441L120.47 157.104L116.813 160.767L113.157 164.429L109.5 168.092L105.843 171.755L102.186 175.417L98.5289 179.08L94.8719 182.743L91.215 186.406L87.5581 190.068L83.9012 193.731L80.2443 197.394L76.5873 201.056L72.9304 204.719L69.2735 208.382L68.98 208.676C69.139 208.749 69.2857 208.823 69.4447 208.884L69.9706 208.357L70.1541 208.173L73.811 204.511L77.4679 200.848L81.1249 197.185L84.7818 193.523L88.4387 189.86L92.0956 186.197L95.7525 182.535L99.4095 178.872L103.066 175.209L106.723 171.547L110.38 167.884L114.037 164.221L117.694 160.558L121.351 156.896L125.008 153.233L128.665 149.57L132.322 145.908L135.979 142.245L139.636 138.582L142.767 135.459C142.693 135.299 142.632 135.152 142.559 134.993H142.546Z" fill="#9A8CF3"/>
<path d="M143.831 138.031C143.769 137.872 143.708 137.713 143.635 137.541L142.412 138.766L138.755 142.429L135.098 146.091L131.441 149.754L127.784 153.417L124.127 157.079L120.47 160.742L116.813 164.405L111.334 169.893L109.512 171.718L105.855 175.381L102.198 179.043L98.5411 182.706L94.8842 186.369L91.2273 190.031L87.5703 193.694L83.9134 197.357L80.2565 201.02L76.5996 204.682L72.9427 208.345L71.5484 209.741C71.7074 209.803 71.8664 209.864 72.0376 209.937L73.811 208.161L77.468 204.499L81.1249 200.836L88.4265 193.523L92.0834 189.86L95.7403 186.197L103.042 178.884L106.699 175.221L110.356 171.559L114.013 167.896L117.67 164.233L121.327 160.571L124.983 156.908L128.64 153.245L132.297 149.583L135.954 145.92L139.611 142.257L143.268 138.595L143.818 138.043L143.831 138.031Z" fill="#9A8CF3"/>
<path d="M138.657 127.913L135.11 131.465L131.453 135.128L127.796 138.79L124.14 142.453L120.483 146.116L116.826 149.779L113.169 153.441L109.512 157.104L105.855 160.767L102.198 164.429L98.5411 168.092L94.8842 171.755L91.2273 175.417L87.5703 179.08L83.9134 182.743L80.2565 186.405L76.5996 190.068L72.9427 193.731L69.2858 197.394L65.6288 201.056L61.9719 204.719L61.9108 204.78C62.0453 204.866 62.1798 204.964 62.3144 205.05L62.8281 204.535L66.485 200.873L70.1419 197.21L73.7988 193.547L77.4557 189.884L81.1126 186.222L88.4143 178.909L92.0712 175.246L95.7281 171.583L101.635 165.667L103.03 164.27L106.687 160.607L110.344 156.945L114 153.282L117.657 149.619L121.314 145.957L124.971 142.294L128.628 138.631L132.285 134.968L135.942 131.306L138.89 128.354C138.804 128.219 138.718 128.084 138.62 127.949L138.657 127.913Z" fill="#9A8CF3"/>
<path d="M140.296 130.608C140.21 130.461 140.137 130.326 140.051 130.179L138.767 131.465L135.11 135.128L131.453 138.79L127.796 142.453L124.14 146.116L120.483 149.779L116.826 153.441L113.169 157.104L109.512 160.767L105.855 164.429L102.198 168.092L98.5411 171.755L94.8842 175.417L91.2273 179.08L87.5703 182.743L83.9134 186.406L80.2565 190.068L76.5996 193.731L72.9427 197.394L69.2857 201.056L65.6288 204.719L64.1734 206.177C64.3202 206.262 64.4547 206.348 64.6015 206.422L66.4972 204.523L70.1541 200.86L73.811 197.198L77.4679 193.535L81.1249 189.872L84.7818 186.21L88.4387 182.547L92.0956 178.884L95.7525 175.221L99.4095 171.559L103.066 167.896L106.723 164.233L110.38 160.571L114.037 156.908L117.694 153.245L121.351 149.583L125.008 145.92L128.665 142.257L132.322 138.594L135.979 134.932L139.636 131.269L140.296 130.608V130.608Z" fill="#9A8CF3"/>
<path d="M134.254 122.02C134.156 121.898 134.046 121.775 133.948 121.653L131.453 124.152L127.796 127.815L124.14 131.477L120.483 135.14L116.826 138.803L113.169 142.465L109.512 146.128L105.855 149.791L102.198 153.453L98.5411 157.116L94.8842 160.779L91.2273 164.442L87.5703 168.104L83.9134 171.767L80.2565 175.43L76.5996 179.092L72.9427 182.755L69.2858 186.418L65.6288 190.08L58.3272 197.394L55.6732 200.052C55.7955 200.162 55.9178 200.26 56.0401 200.358L59.1956 197.198L62.8525 193.535L66.5094 189.872L70.1664 186.209L73.8233 182.547L77.4802 178.884L81.1371 175.221L84.794 171.559L88.4509 167.896L92.1079 164.233L95.7648 160.571L99.4217 156.908L103.079 153.245L106.736 149.583L110.392 145.92L114.049 142.257L117.706 138.594L121.363 134.932L125.02 131.269L128.677 127.606L132.334 123.944L134.266 122.008L134.254 122.02Z" fill="#9A8CF3"/>
<path d="M132.53 120.097C132.42 119.987 132.309 119.865 132.199 119.754L131.453 120.502L127.796 124.164L124.139 127.827L120.483 131.49L116.826 135.152L113.169 138.815L109.512 142.478L105.855 146.14L102.198 149.803L98.5411 153.466L94.8841 157.128L91.2272 160.791L87.5703 164.454L83.9134 168.117L80.2565 171.779L76.5996 175.442L72.9426 179.105L69.2857 182.767L65.6288 186.43L61.9719 190.093L58.315 193.755L54.658 197.418L53.753 198.325C53.8631 198.435 53.9854 198.545 54.0954 198.655L55.5264 197.222L59.1833 193.559L62.8402 189.897L66.4972 186.234L70.1541 182.571L73.811 178.909L77.4679 175.246L81.1248 171.583L88.1574 164.54L88.4264 164.27L92.0834 160.607L95.7403 156.945L99.3972 153.282L103.054 149.619L106.711 145.957L110.368 142.294L114.025 138.631L117.682 134.969L121.339 131.306L124.996 127.643L128.653 123.98L132.309 120.318L132.517 120.11L132.53 120.097Z" fill="#9A8CF3"/>
<path d="M135.893 124.029C135.795 123.907 135.697 123.772 135.599 123.65L135.11 124.14L131.453 127.802L127.796 131.465L124.14 135.128L120.483 138.79L116.826 142.453L113.169 146.116L109.512 149.779L105.855 153.441L102.198 157.104L98.5411 160.767L94.8842 164.429L91.2272 168.092L87.5703 171.755L83.9134 175.417L76.783 182.559L76.5996 182.743L72.9427 186.405L69.2857 190.068L65.6288 193.731L61.9719 197.394L58.315 201.056L57.6545 201.718C57.7768 201.816 57.9114 201.914 58.0337 202.012L59.1834 200.86L62.8403 197.198L66.4972 193.535L70.1541 189.872L73.811 186.209L77.4679 182.547L81.1249 178.884L84.7818 175.221L88.4387 171.559L92.0956 167.896L95.7525 164.233L99.4095 160.571L103.066 156.908L106.723 153.245L110.38 149.583L114.037 145.92L117.694 142.257L121.351 138.594L125.008 134.932L128.665 131.269L132.322 127.606L135.893 124.029V124.029Z" fill="#9A8CF3"/>
<path d="M130.72 118.247C130.609 118.137 130.499 118.027 130.377 117.917L127.809 120.489L124.152 124.152L120.495 127.815L116.838 131.477L113.181 135.14L109.524 138.803L105.867 142.465L102.21 146.128L98.5533 149.791L94.8964 153.453L91.2395 157.116L87.5826 160.779L83.9257 164.442L78.4464 169.929L76.6241 171.755L72.9671 175.417L69.3102 179.08L65.6533 182.743L61.9964 186.405L58.3395 190.068L54.6825 193.731L51.9551 196.463C52.0652 196.573 52.1753 196.695 52.2854 196.806L55.5509 193.535L59.2078 189.872L62.8647 186.209L70.1663 178.896L73.8233 175.234L77.4802 171.571L81.1371 167.908L84.794 164.246L88.4509 160.583L92.1079 156.92L95.7648 153.257L99.4217 149.595L103.079 145.932L106.736 142.269L110.392 138.607L114.049 134.944L117.706 131.281L121.363 127.619L125.02 123.956L128.677 120.293L130.72 118.247V118.247Z" fill="#9A8CF3"/>
<path d="M98.59 105.863L94.9331 109.526L91.2762 113.188L87.6193 116.851L83.9623 120.514L80.3054 124.176L76.6485 127.839L72.9916 131.502L69.3347 135.165L65.6778 138.827L62.0208 142.49L58.3639 146.153L54.707 149.815L51.0501 153.478L47.3932 157.141L43.7362 160.803L40.0793 164.466L37.3886 167.161C37.4253 167.357 37.4498 167.553 37.4865 167.737L40.9477 164.27L44.6046 160.607L48.2615 156.945L51.9184 153.282L55.5754 149.619L59.2323 145.957L62.8892 142.294L66.5461 138.631L70.203 134.969L73.86 131.306L77.5169 127.643L81.1738 123.98L84.8307 120.318L88.4876 116.655L92.1445 112.992L95.8015 109.33L99.4584 105.667L101.697 103.425C101.501 103.389 101.317 103.364 101.122 103.327L98.59 105.863V105.863Z" fill="#9A8CF3"/>
<path d="M94.9331 105.863L91.2761 109.526L87.6192 113.188L83.9623 116.851L80.3054 120.514L76.6485 124.176L72.9916 127.839L69.3346 131.502L65.6777 135.165L62.0208 138.827L58.3639 142.49L54.707 146.153L51.05 149.815L47.3931 153.478L43.7362 157.141L40.0793 160.803L36.9605 163.927C36.985 164.135 37.0094 164.331 37.0339 164.527L37.303 164.258L40.9599 160.595L44.6168 156.932L48.2737 153.27L51.9306 149.607L55.5876 145.944L59.2445 142.282L62.9014 138.619L66.5583 134.956L70.2152 131.294L73.8722 127.631L77.5291 123.968L81.186 120.306L84.8429 116.643L88.4998 112.98L92.1567 109.317L95.8137 105.655L98.5166 102.948C98.3209 102.923 98.113 102.899 97.9173 102.874L94.9453 105.851L94.9331 105.863Z" fill="#9A8CF3"/>
<path d="M91.2884 105.863L87.6315 109.526L83.9746 113.188L80.3176 116.851L76.6607 120.514L73.0038 124.176L69.3469 127.839L65.69 131.502L62.033 135.164L58.3761 138.827L54.7192 142.49L51.0623 146.153L47.4054 149.815L43.7485 153.478L40.0915 157.141L36.7281 160.509C36.7281 160.73 36.7404 160.938 36.7526 161.159L37.303 160.607L40.9599 156.945L44.6168 153.282L48.2737 149.619L51.9307 145.957L55.5876 142.294L59.2445 138.631L62.9014 134.968L66.5583 131.306L70.2152 127.643L73.8722 123.98L77.5291 120.318L81.186 116.655L84.8429 112.992L88.4998 109.33L92.1568 105.667L95.141 102.678C94.9209 102.678 94.7129 102.653 94.4928 102.653L91.2884 105.863V105.863Z" fill="#9A8CF3"/>
<path d="M87.6315 105.863L83.9746 109.526L80.3176 113.188L76.6607 116.851L73.0038 120.514L69.3469 124.176L65.69 127.839L62.0331 131.502L58.3761 135.165L54.7192 138.827L51.0623 142.49L47.4054 146.153L43.7485 149.815L40.0915 153.478L36.6915 156.883C36.6915 157.116 36.6915 157.337 36.6915 157.569L37.3152 156.945L40.9721 153.282L44.6291 149.619L48.286 145.957L51.9429 142.294L55.5998 138.631L59.2567 134.969L62.9136 131.306L66.5706 127.643L70.2275 123.98L73.8844 120.318L77.5413 116.655L81.1982 112.992L84.8552 109.33L88.5121 105.667L91.5697 102.604C91.3373 102.604 91.1172 102.604 90.8848 102.604L87.6437 105.851L87.6315 105.863Z" fill="#9A8CF3"/>
<path d="M80.3299 105.863L76.6729 109.526L73.016 113.188L69.3591 116.851L65.7022 120.514L62.0453 124.176L58.3883 127.839L54.7314 131.502L51.0745 135.165L47.4176 138.827L43.7607 142.49L40.1038 146.153L37.4742 148.786C37.4253 149.056 37.3764 149.325 37.3397 149.595L40.9721 145.957L44.629 142.294L48.286 138.631L51.9429 134.969L55.5998 131.306L59.2567 127.643L62.9136 123.98L66.5705 120.318L70.2275 116.655L73.8844 112.992L77.5413 109.33L81.1982 105.667L83.6076 103.254C83.3386 103.291 83.0695 103.34 82.8004 103.389L80.3299 105.863Z" fill="#9A8CF3"/>
<path d="M81.1982 211.726L84.8552 208.063L88.5121 204.4L92.169 200.738L95.8259 197.075L99.4828 193.412L103.14 189.75L106.797 186.087L110.454 182.424L114.111 178.762L117.767 175.099L121.424 171.436L125.081 167.774L128.738 164.111L132.395 160.448L136.052 156.785L139.709 153.123L143.366 149.46L146.423 146.398C146.387 146.214 146.35 146.03 146.301 145.846L146.142 146.006L142.485 149.668L138.828 153.331L135.171 156.994L131.515 160.656L127.858 164.319L124.201 167.982L120.544 171.644L116.887 175.307L109.756 182.449L109.573 182.633L105.916 186.295L102.259 189.958L98.6022 193.621L94.9453 197.283L91.2884 200.946L87.6315 204.609L83.9746 208.271L80.3176 211.934L79.9874 212.265C80.1709 212.302 80.3543 212.351 80.5378 212.387L81.186 211.738L81.1982 211.726Z" fill="#9A8CF3"/>
<path d="M81.1983 208.075L84.8552 204.413L88.5121 200.75L92.169 197.087L95.8259 193.425L99.4828 189.762L103.14 186.099L106.797 182.437L110.454 178.774L114.111 175.111L117.767 171.448L121.424 167.786L125.081 164.123L128.738 160.46L132.395 156.798L136.052 153.135L139.709 149.472L143.366 145.81L145.714 143.458C145.665 143.286 145.616 143.102 145.567 142.931L142.485 146.018L138.828 149.681L135.171 153.343L131.515 157.006L127.858 160.669L124.201 164.331L120.544 167.994L116.887 171.657L113.23 175.319L109.573 178.982L105.916 182.645L102.259 186.308L98.6023 189.97L91.3006 197.283L87.6437 200.946L83.9868 204.609L77.0888 211.518C77.26 211.567 77.4435 211.616 77.6147 211.665L81.1983 208.075V208.075Z" fill="#9A8CF3"/>
<path d="M77.5413 208.075L81.1982 204.413L84.8551 200.75L88.5121 197.087L92.169 193.425L95.8259 189.762L99.4828 186.099L103.14 182.437L106.797 178.774L110.454 175.111L114.11 171.448L120.018 165.532L121.412 164.135L125.069 160.473L128.726 156.81L132.383 153.147L136.04 149.485L139.697 145.822L143.354 142.159L144.858 140.652C144.797 140.481 144.748 140.309 144.687 140.15L142.473 142.367L138.816 146.03L135.159 149.693L131.502 153.355L127.845 157.018L124.188 160.681L120.531 164.344L116.875 168.006L113.218 171.669L109.561 175.332L105.904 178.994L102.247 182.657L98.59 186.32L94.9331 189.982L91.2761 193.645L87.6192 197.308L83.9623 200.97L80.3054 204.633L76.6485 208.296L74.2758 210.672C74.447 210.734 74.6182 210.783 74.7772 210.844L77.5168 208.1L77.5413 208.075Z" fill="#9A8CF3"/>
<path d="M73.8722 105.691C73.5175 105.814 73.1751 105.936 72.8204 106.071L69.3714 109.526L65.7145 113.188L62.0575 116.851L58.4006 120.514L54.7437 124.176L51.0868 127.839L47.4299 131.502L43.7729 135.165L40.1772 138.766C40.0426 139.121 39.9203 139.464 39.798 139.819L40.9966 138.619L44.6535 134.956L48.3105 131.294L51.9674 127.631L55.6243 123.968L59.2812 120.305L62.9381 116.643L66.5951 112.98L70.252 109.317L73.8844 105.679L73.8722 105.691Z" fill="#9A8CF3"/>
<path d="M70.2397 204.413L73.8966 200.75L77.5535 197.087L81.2105 193.425L84.8674 189.762L88.5243 186.099L92.1812 182.437L95.8381 178.774L99.4951 175.111L103.152 171.449L106.809 167.786L110.466 164.123L114.123 160.46L117.78 156.798L121.437 153.135L125.093 149.472L128.75 145.81L132.407 142.147L136.064 138.484L139.721 134.822L141.666 132.874C141.592 132.727 141.519 132.58 141.433 132.433L138.853 135.018L135.196 138.68L131.539 142.343L127.882 146.006L124.225 149.668L120.568 153.331L116.911 156.994L113.254 160.656L109.597 164.319L105.941 167.982L102.284 171.645L98.6267 175.307L91.3251 182.62L87.6682 186.283L84.0113 189.946L76.8809 197.087L76.6974 197.271L73.0405 200.934L69.3836 204.597L66.6317 207.353C66.7785 207.426 66.9252 207.512 67.072 207.586L70.2519 204.401L70.2397 204.413Z" fill="#9A8CF3"/>
<path d="M66.1792 109.06L65.7144 109.526L62.0575 113.188L58.4006 116.851L54.7437 120.514L51.0868 124.176L47.4298 127.839L43.7729 131.502L43.1614 132.114C42.9168 132.568 42.6844 133.033 42.452 133.498L44.6413 131.306L48.2982 127.643L51.9551 123.98L55.612 120.318L59.269 116.655L62.9259 112.992L66.5828 109.33L67.5612 108.35C67.0965 108.582 66.6317 108.815 66.1792 109.06V109.06Z" fill="#9A8CF3"/>
<path d="M62.9381 200.762L70.0685 193.621L70.2519 193.437L73.9089 189.774L77.5658 186.112L81.2227 182.449L84.8796 178.786L88.5365 175.123L92.1934 171.461L95.8504 167.798L99.5073 164.135L103.164 160.473L106.821 156.81L110.478 153.147L114.135 149.485L117.792 145.822L121.449 142.159L125.106 138.496L128.763 134.834L132.42 131.171L136.076 127.508L137.556 126.026C137.459 125.891 137.373 125.769 137.275 125.634L135.208 127.704L131.551 131.367L127.894 135.03L124.237 138.692L120.58 142.355L116.924 146.018L113.267 149.681L109.61 153.343L105.953 157.006L102.296 160.669L98.6389 164.331L91.3373 171.644L87.6804 175.307L84.0235 178.97L80.3666 182.633L76.7096 186.295L73.0527 189.958L69.3958 193.621L65.7389 197.283L62.082 200.946L59.856 203.176C59.9906 203.274 60.1129 203.359 60.2474 203.457L62.9503 200.75L62.9381 200.762Z" fill="#9A8CF3"/>
<path d="M50.2917 194.466C50.4018 194.588 50.4997 194.699 50.6097 194.821L51.9796 193.449L55.6365 189.786L59.2934 186.124L62.9503 182.461L66.6072 178.798L70.2642 175.136L73.9211 171.473L77.578 167.81L81.2349 164.148L84.8918 160.485L88.5487 156.822L92.2057 153.159L95.8626 149.497L99.5195 145.834L103.176 142.171L106.833 138.509L110.49 134.846L114.147 131.183L117.804 127.521L121.461 123.858L125.118 120.195L128.775 116.533L128.922 116.386C128.799 116.275 128.689 116.177 128.567 116.067L127.906 116.729L124.25 120.391L120.593 124.054L116.936 127.717L113.279 131.379L109.622 135.042L105.965 138.705L102.308 142.367L98.6511 146.03L94.9942 149.693L91.3373 153.355L87.6804 157.018L84.0235 160.681L80.3665 164.344L76.7096 168.006L73.0527 171.669L69.3958 175.332L65.7389 178.994L62.0819 182.657L58.425 186.32L54.7681 189.982L51.1112 193.645L50.2917 194.466V194.466Z" fill="#9A8CF3"/>
<path d="M47.0752 190.374C47.173 190.509 47.2586 190.632 47.3565 190.766L48.3349 189.786L51.9918 186.124L55.6487 182.461L59.3057 178.798L62.9626 175.136L66.6195 171.473L70.2764 167.81L73.9333 164.148L77.5902 160.485L81.2472 156.822L84.9041 153.159L88.561 149.497L92.2179 145.834L95.8748 142.171L99.5318 138.509L103.189 134.846L106.846 131.183L110.503 127.521L114.159 123.858L117.816 120.195L121.473 116.533L124.873 113.127C124.739 113.029 124.617 112.931 124.482 112.845L124.25 113.078L120.593 116.741L116.936 120.403L113.279 124.066L109.622 127.729L105.965 131.392L102.308 135.054L98.6512 138.717L94.9942 142.38L91.3373 146.042L87.6804 149.705L84.0235 153.368L80.3666 157.03L76.7097 160.693L73.0527 164.356L69.3958 168.019L65.7389 171.681L62.082 175.344L58.4251 179.007L54.7681 182.669L51.1112 186.332L47.4543 189.995L47.0629 190.387L47.0752 190.374Z" fill="#9A8CF3"/>
<path d="M48.3349 186.124L55.6365 178.811L59.2934 175.148L62.9503 171.485L68.8577 165.569L70.2519 164.172L73.9089 160.509L77.5658 156.847L81.2227 153.184L84.8796 149.521L88.5365 145.859L92.1935 142.196L95.8504 138.533L99.5073 134.871L103.164 131.208L106.821 127.545L110.478 123.882L114.135 120.22L117.792 116.557L121.449 112.894L122.696 111.645C122.562 111.559 122.427 111.461 122.293 111.375L120.58 113.09L116.924 116.753L113.267 120.416L109.61 124.078L105.953 127.741L102.296 131.404L98.6389 135.067L94.982 138.729L91.3251 142.392L87.6682 146.055L84.0113 149.717L80.3543 153.38L76.6974 157.043L73.0405 160.705L69.3836 164.368L65.7267 168.031L62.0697 171.693L58.4128 175.356L54.7559 179.019L51.099 182.682L47.4421 186.344L45.5708 188.218C45.6564 188.353 45.7543 188.488 45.8399 188.623L48.3104 186.148L48.3349 186.124Z" fill="#9A8CF3"/>
<path d="M48.9464 192.837L51.9918 189.787L55.6488 186.124L59.3057 182.461L62.9626 178.798L66.6195 175.136L70.2764 171.473L73.9333 167.81L77.5903 164.148L81.2472 160.485L84.9041 156.822L88.561 153.16L92.2179 149.497L95.8748 145.834L99.5318 142.171L103.189 138.509L106.846 134.846L110.503 131.183L114.159 127.521L117.816 123.858L121.473 120.195L125.13 116.533L126.953 114.707C126.83 114.609 126.708 114.511 126.586 114.401L124.274 116.716L120.617 120.379L116.96 124.042L113.303 127.704L109.646 131.367L105.989 135.03L102.333 138.693L98.6756 142.355L95.0187 146.018L91.3618 149.681L87.7049 153.343L84.048 157.006L80.391 160.669L76.7341 164.331L73.0772 167.994L69.4203 171.657L65.7634 175.319L58.4618 182.633L54.8048 186.295L51.1479 189.958L48.6774 192.432C48.7752 192.555 48.8731 192.677 48.9831 192.812L48.9464 192.837Z" fill="#9A8CF3"/>
<path d="M43.8096 182.669L42.9168 183.564C42.9902 183.711 43.0758 183.858 43.1492 184.005L44.6902 182.461L48.3471 178.798L52.0041 175.136L55.661 171.473L59.3179 167.81L62.9748 164.148L66.6317 160.485L70.2887 156.822L73.9456 153.159L77.6025 149.497L81.2594 145.834L84.9163 142.171L88.5732 138.509L92.2302 134.846L95.8871 131.183L99.544 127.521L103.201 123.858L106.858 120.195L110.515 116.533L114.172 112.87L117.829 109.207L118.147 108.889C118 108.815 117.853 108.729 117.706 108.656L116.96 109.403L113.303 113.066L109.646 116.729L105.989 120.391L102.333 124.054L98.6756 127.717L95.0187 131.379L91.3618 135.042L87.7049 138.705L84.048 142.367L80.3911 146.03L76.7341 149.693L73.0772 153.355L69.4203 157.018L65.7634 160.681L62.1065 164.344L58.4495 168.006L54.7926 171.669L51.1357 175.332L44.0053 182.473L43.8219 182.657L43.8096 182.669Z" fill="#9A8CF3"/>
<path d="M44.678 178.811L48.3349 175.148L51.9918 171.485L55.6487 167.823L59.3057 164.16L62.9626 160.497L66.6195 156.834L70.2764 153.172L73.9333 149.509L77.5902 145.846L81.2472 142.184L84.9041 138.521L88.561 134.858L92.2179 131.196L95.8748 127.533L99.5318 123.87L103.189 120.207L106.846 116.545L110.503 112.882L114.159 109.219L115.688 107.688C115.541 107.615 115.382 107.541 115.223 107.468L113.291 109.403L109.634 113.066L105.977 116.729L102.32 120.391L98.6634 124.054L95.0065 127.717L91.3496 131.379L87.6926 135.042L84.0357 138.705L80.3788 142.367L76.7219 146.03L73.065 149.693L69.408 153.355L65.7511 157.018L62.0942 160.681L58.4373 164.344L54.7804 168.006L51.1235 171.669L47.4665 175.332L43.8096 178.994L41.7182 181.089C41.7916 181.248 41.865 181.395 41.9383 181.555L44.6902 178.798L44.678 178.811Z" fill="#9A8CF3"/>
<path d="M44.4578 186.357L44.678 186.136L48.3349 182.473L51.9918 178.811L55.6487 175.148L59.3057 171.485L62.9626 167.823L66.6195 164.16L70.2764 160.497L73.9333 156.834L77.5903 153.172L81.2472 149.509L84.9041 145.846L88.561 142.184L92.2179 138.521L95.8748 134.858L99.5318 131.196L103.189 127.533L106.846 123.87L110.503 120.207L114.159 116.545L117.816 112.882L120.47 110.224C120.324 110.138 120.189 110.052 120.042 109.979L116.948 113.078L113.291 116.741L109.634 120.403L105.977 124.066L102.32 127.729L98.6634 131.392L95.0065 135.054L91.3496 138.717L87.6926 142.38L84.0357 146.042L80.3788 149.705L76.7219 153.368L73.065 157.03L69.4081 160.693L65.7511 164.356L58.4495 171.669L54.7926 175.332L51.1357 178.994L47.4788 182.657L44.2255 185.916C44.3111 186.063 44.3967 186.197 44.4701 186.344L44.4578 186.357Z" fill="#9A8CF3"/>
<path d="M41.0333 142.245L44.6902 138.582L48.3471 134.919L52.004 131.257L55.661 127.594L59.3179 123.931L62.9748 120.269L66.6317 116.606L70.2886 112.943L73.9456 109.281L77.6025 105.618L79.1068 104.111C78.8133 104.185 78.5075 104.258 78.214 104.332L76.7341 105.814L73.0772 109.477L69.4203 113.139L65.7633 116.802L62.1064 120.465L58.4495 124.127L54.7926 127.79L51.1357 131.453L47.4788 135.116L43.8218 138.778L40.1649 142.441L38.5383 144.07C38.4649 144.364 38.3915 144.67 38.3181 144.964L41.0455 142.233L41.0333 142.245Z" fill="#9A8CF3"/>
<path d="M41.0333 167.847L44.6902 164.184L48.3471 160.522L52.004 156.859L55.661 153.196L59.3179 149.534L62.9748 145.871L66.6317 142.208L70.2886 138.545L73.9456 134.883L77.6025 131.22L81.2594 127.557L84.9163 123.895L88.5732 120.232L92.2301 116.569L95.8871 112.907L99.544 109.244L103.201 105.581L104.828 103.952C104.644 103.915 104.461 103.866 104.277 103.829L102.333 105.777L98.6756 109.44L95.0187 113.103L91.3618 116.765L87.7049 120.428L84.0479 124.091L80.391 127.753L76.7341 131.416L73.0772 135.079L69.4203 138.741L65.7634 142.404L62.1064 146.067L58.4495 149.73L54.7926 153.392L51.1357 157.055L47.4788 160.718L43.8218 164.38L40.1649 168.043L38.0613 170.15C38.098 170.334 38.1347 170.517 38.1836 170.701L41.0333 167.847V167.847Z" fill="#9A8CF3"/>
<path d="M39.8225 176.373L41.0333 175.16L44.6902 171.498L48.3471 167.835L52.004 164.172L55.661 160.509L59.3179 156.847L62.9748 153.184L66.6317 149.521L70.2886 145.859L73.9456 142.196L77.6025 138.533L81.2594 134.871L84.9163 131.208L88.5732 127.545L92.2302 123.882L95.8871 120.22L99.544 116.557L103.201 112.894L106.858 109.232L110.49 105.593C110.319 105.532 110.16 105.471 109.989 105.422L109.634 105.777L105.977 109.44L102.32 113.103L98.6634 116.765L95.0065 120.428L91.3496 124.091L87.6926 127.753L84.0357 131.416L80.3788 135.079L76.7219 138.742L73.065 142.404L69.408 146.067L65.7511 149.73L62.0942 153.392L58.4373 157.055L54.7804 160.718L51.1235 164.38L45.6442 169.868L43.8218 171.694L40.1649 175.356L39.6512 175.871C39.7124 176.042 39.7736 176.201 39.8225 176.373V176.373Z" fill="#9A8CF3"/>
<path d="M41.0333 171.498L44.6902 167.835L48.3471 164.172L52.0041 160.509L55.661 156.847L59.3179 153.184L62.9748 149.521L66.6317 145.859L70.2887 142.196L73.9456 138.533L77.6025 134.871L81.2594 131.208L84.9163 127.545L88.5732 123.882L92.2302 120.22L95.8871 116.557L99.544 112.894L103.201 109.232L106.858 105.569L107.726 104.699C107.555 104.65 107.372 104.601 107.2 104.552L105.977 105.777L102.32 109.44L98.6634 113.103L95.0065 116.765L91.3496 120.428L87.6926 124.091L84.0357 127.753L80.3788 131.416L76.7219 135.079L73.065 138.741L69.4081 142.404L65.7511 146.067L62.0942 149.73L58.4373 153.392L54.7804 157.055L51.1235 160.718L47.4666 164.38L43.8096 168.043L40.1527 171.706L38.7829 173.078C38.8318 173.249 38.8807 173.433 38.9297 173.604L41.0211 171.51L41.0333 171.498Z" fill="#9A8CF3"/>
<path d="M40.8254 179.019L41.0333 178.811L44.6902 175.148L48.3471 171.485L55.3797 164.442L55.6487 164.172L59.3057 160.509L62.9626 156.847L66.6195 153.184L70.2764 149.521L73.9333 145.859L77.5903 142.196L81.2472 138.533L84.9041 134.87L88.561 131.208L92.2179 127.545L95.8748 123.882L99.5318 120.22L103.189 116.557L106.846 112.894L110.503 109.232L113.144 106.586C112.985 106.524 112.826 106.451 112.667 106.39L109.634 109.428L105.977 113.09L102.32 116.753L98.6634 120.416L95.0065 124.078L91.3496 127.741L87.6926 131.404L84.0357 135.066L80.3788 138.729L76.7219 142.392L73.065 146.055L69.4081 149.717L65.7511 153.38L62.0942 157.043L58.4373 160.705L54.7804 164.368L51.1235 168.031L47.4665 171.693L43.8096 175.356L40.6297 178.541C40.6909 178.7 40.7642 178.86 40.8254 179.019V179.019Z" fill="#9A8CF3"/>
<path d="M37.3764 153.209L41.0333 149.546L44.6902 145.883L48.3471 142.22L52.004 138.558L55.6609 134.895L59.3179 131.232L62.9748 127.57L66.6317 123.907L70.2886 120.244L73.9455 116.582L77.6025 112.919L81.2594 109.256L84.9163 105.593L87.8027 102.703C87.5581 102.727 87.3135 102.752 87.0689 102.764L84.0479 105.789L80.391 109.452L76.7341 113.115L73.0772 116.778L69.4203 120.44L65.7633 124.103L62.1064 127.766L58.4495 131.428L54.7926 135.091L51.1357 138.754L47.4787 142.416L43.8218 146.079L40.1649 149.742L36.985 152.927C36.9605 153.172 36.9361 153.417 36.9238 153.662L37.3886 153.196L37.3764 153.209Z" fill="#9A8CF3"/>
<path d="M158.752 218.353C158.752 220.436 157.076 222.114 154.997 222.114C152.918 222.114 151.242 220.436 151.242 218.353C151.242 216.271 152.918 214.592 154.997 214.592C157.076 214.592 158.752 216.271 158.752 218.353Z" stroke="black" stroke-linecap="round" stroke-linejoin="round"/>
<path d="M567.055 8.13394C569.128 8.13394 570.809 6.45022 570.809 4.37324C570.809 2.29627 569.128 0.612549 567.055 0.612549C564.981 0.612549 563.3 2.29627 563.3 4.37324C563.3 6.45022 564.981 8.13394 567.055 8.13394Z" stroke="black" stroke-linecap="round" stroke-linejoin="round"/>
<path d="M639.924 214.592C639.924 218.745 636.561 222.114 632.415 222.114C628.268 222.114 624.905 218.745 624.905 214.592C624.905 210.44 628.268 207.071 632.415 207.071C636.561 207.071 639.924 210.44 639.924 214.592Z" stroke="black" stroke-linecap="round" stroke-linejoin="round"/>
<path d="M246.75 92.4126L227.463 69.4197H246.75V92.4126Z" stroke="#9A8CF3" stroke-linecap="round" stroke-linejoin="round"/>
<path d="M160.77 69.4075V9.01587H246.75V55.6387V69.4075V69.4197H227.463L227.451 69.4075H160.77Z" stroke="black" stroke-linecap="round" stroke-linejoin="round"/>
<path d="M225.873 30.3795H176.559" stroke="black" stroke-linecap="round" stroke-linejoin="round"/>
<path d="M225.873 48.4847H188.729" stroke="black" stroke-linecap="round" stroke-linejoin="round"/>
<path d="M458.631 242.791L488.131 207.622H458.631V242.791Z" stroke="#9A8CF3" stroke-linecap="round" stroke-linejoin="round"/>
<path d="M590.121 207.61V115.259H458.631V186.552V207.61V207.622H488.131L488.144 207.61H590.121Z" stroke="black" stroke-linecap="round" stroke-linejoin="round"/>
<path d="M490.553 147.917H565.991" stroke="black" stroke-linecap="round" stroke-linejoin="round"/>
<path d="M490.553 175.614H547.364" stroke="black" stroke-linecap="round" stroke-linejoin="round"/>
<path d="M301.506 179.521L219.978 197.296C218.155 197.688 216.296 196.818 215.416 195.164L178.272 112.282C176.229 108.435 171.459 106.978 167.619 109.011L165.173 110.31L203.736 207.524L203.797 207.634C204.922 209.754 207.356 210.819 209.667 210.207L308.991 184.274C308.196 180.918 304.87 178.811 301.494 179.521H301.506Z" fill="#9A8CF3"/>
<path d="M168.72 323.591C168.72 323.591 162.066 337.372 157.125 340.508L143.562 343.73C137.19 344.489 135.061 349.095 135.061 349.095L170.909 365.706L188.154 331.995L168.732 323.591H168.72Z" fill="black"/>
<path d="M354.476 203.861C354.476 203.861 269.12 207.071 229.077 213.159C217.495 214.923 207.478 222.199 202.097 232.624L154.997 323.775L196.715 345.751L245.026 258.165L332.865 255.543L354.476 203.849V203.861Z" fill="white" stroke="black" stroke-linecap="round" stroke-linejoin="round"/>
<path d="M357.828 183.147C356.715 186.859 355.027 190.399 352.63 193.449C332.645 218.867 291.208 187.802 257.342 188.059C252.67 188.096 248.524 188.182 247.521 189.688C245.833 192.212 243.839 195.85 242.616 195.752C241.21 195.63 243.411 190.681 244.659 186.957C244.659 186.957 240.488 197.259 238.959 196.695C237.113 196.009 241.821 184.274 241.821 184.274C241.821 184.274 235.828 196.291 234.287 194.429C232.746 192.567 239.265 181.873 239.265 181.873C239.265 181.873 233.101 191.403 231.12 190.448C229.518 189.664 234.74 182.412 240.109 176.667C243.289 173.274 247.423 170.934 251.997 170.064C256.363 169.231 262.784 168.717 271.957 169.39C271.957 169.39 306.178 173.212 334.675 177.855L345.719 126.675C347.077 120.379 351.835 115.222 358.109 113.776C363.013 112.649 368.529 113.152 372.15 118.872C374.718 122.939 375.146 127.998 373.703 132.592L357.828 183.171V183.147Z" fill="white" stroke="black" stroke-linecap="round" stroke-linejoin="round"/>
<path d="M250.114 343.938C250.114 343.938 259.494 361.198 259.017 367.041L253.428 379.842C250.199 385.404 252.596 389.863 252.596 389.863L287.404 371.169L270.832 336.98L250.101 343.926L250.114 343.938Z" fill="black"/>
<path d="M363.062 193.02C363.062 193.02 243.815 185.952 209.46 218.353C181.77 244.47 242.837 356.69 242.837 356.69L286.291 338.364L250.97 259.267L352.446 257.944C352.446 257.944 393.7 246.136 383.084 193.02H363.05H363.062Z" fill="white" stroke="black" stroke-linecap="round" stroke-linejoin="round"/>
<path d="M423.077 110.689C423.077 110.689 425.621 97.6187 410.908 92.2656C397.736 87.4759 396.513 73.9031 396.513 73.9031C396.513 73.9031 392.305 63.2825 380.43 63.9562C368.554 64.6177 374.522 44.4668 354.293 40.4611C351.26 39.8608 348.459 41.0736 346.013 43.1193C338.503 49.3912 337.28 60.5018 342.637 68.6847L370.168 110.677H423.077V110.689Z" fill="black" stroke="black" stroke-linecap="round" stroke-linejoin="round"/>
<path d="M346.673 121.971L333.697 89.5707L344.998 73.5234L372.859 114.658L346.673 121.971Z" fill="white" stroke="black" stroke-linecap="round" stroke-linejoin="round"/>
<path d="M338.724 99.9708L344.374 90.8691L335.96 93.2456L338.724 99.9708Z" fill="black" stroke="black" stroke-linecap="round" stroke-linejoin="round"/>
<path d="M366.964 51.1307C373.923 64.6545 361.864 84.7565 347.517 92.1676C333.171 99.5788 321.76 94.7523 316.342 80.5425C311.291 67.276 314.042 47.4803 328.377 40.0691C342.723 32.658 359.992 37.6069 366.964 51.1307V51.1307Z" fill="white" stroke="black" stroke-linecap="round" stroke-linejoin="round"/>
<path d="M368.383 54.9282C363.833 40.6204 349.401 33.638 333.844 37.9499C321.601 41.3431 313.712 53.3234 312.881 65.414C313.052 65.463 322.763 65.1568 326.909 54.3769C326.909 54.3769 328.059 71.7227 346.331 68.354L354.452 87.4759C365.288 82.4535 373.434 70.7672 368.395 54.9282H368.383Z" fill="black" stroke="black" stroke-linecap="round" stroke-linejoin="round"/>
<path d="M330.505 85.3323C330.505 85.3323 334.431 85.0383 335.055 80.6161Z" fill="white"/>
<path d="M330.505 85.3323C330.505 85.3323 334.431 85.0383 335.055 80.6161" stroke="black" stroke-linecap="round" stroke-linejoin="round"/>
<path d="M348.337 81.4001C350.074 80.8978 351.712 79.7096 352.838 77.9579C355.1 74.4544 354.464 70.0323 351.431 68.06C349.364 66.7248 347.212 67.2025 345.34 68.746" fill="white"/>
<path d="M348.337 81.4001C350.074 80.8978 351.712 79.7096 352.838 77.9579C355.1 74.4544 354.464 70.0323 351.431 68.06C349.364 66.7248 347.212 67.2025 345.34 68.746" stroke="black" stroke-linecap="round" stroke-linejoin="round"/>
<path d="M346.013 76.8554C346.013 76.8554 346.857 73.4622 349.841 74.0992Z" fill="white"/>
<path d="M346.013 76.8554C346.013 76.8554 346.857 73.4622 349.841 74.0992" stroke="black" stroke-linecap="round" stroke-linejoin="round"/>
<path d="M356.409 37.2027C356.703 42.3843 361.13 46.341 366.291 46.047C371.465 45.753 375.415 41.3186 375.122 36.1492C374.828 30.9675 370.401 27.0108 365.239 27.3048C360.066 27.5988 356.115 32.0332 356.409 37.2027V37.2027Z" fill="black" stroke="black" stroke-linecap="round" stroke-linejoin="round"/>
<path d="M340.167 112L367.771 102.127C367.771 102.127 400.867 157.153 402.053 193.743C402.053 193.743 363.062 193.02 329.49 192.641L340.167 111.988V112Z" fill="black"/>
<path d="M346.918 128.133H358.036" stroke="white" stroke-linecap="round" stroke-linejoin="round"/>
<path d="M352.483 116.998L362.842 112.686" stroke="white" stroke-linecap="round" stroke-linejoin="round"/>
<path d="M369.924 115.981V128.133" stroke="white" stroke-linecap="round" stroke-linejoin="round"/>
<path d="M364.616 142.808L371.942 135.214" stroke="white" stroke-linecap="round" stroke-linejoin="round"/>
<path d="M349.951 141.289L348.691 150.403" stroke="white" stroke-linecap="round" stroke-linejoin="round"/>
<path d="M359.308 153.956L369.924 155.977" stroke="white" stroke-linecap="round" stroke-linejoin="round"/>
<path d="M378.766 154.96L385.836 147.88" stroke="white" stroke-linecap="round" stroke-linejoin="round"/>
<path d="M364.616 164.331L371.942 170.15" stroke="white" stroke-linecap="round" stroke-linejoin="round"/>
<path d="M371.942 182.473H383.059" stroke="white" stroke-linecap="round" stroke-linejoin="round"/>
<path d="M377.507 171.326L387.866 167.026" stroke="white" stroke-linecap="round" stroke-linejoin="round"/>
<path d="M394.935 170.321V182.473" stroke="white" stroke-linecap="round" stroke-linejoin="round"/>
<path d="M389.627 197.149L396.965 189.554" stroke="white" stroke-linecap="round" stroke-linejoin="round"/>
<path d="M374.975 195.63L373.715 204.743" stroke="white" stroke-linecap="round" stroke-linejoin="round"/>
<path d="M384.331 208.296L394.935 210.317" stroke="white" stroke-linecap="round" stroke-linejoin="round"/>
<path d="M403.79 209.3L410.859 202.22" stroke="white" stroke-linecap="round" stroke-linejoin="round"/>
<path d="M389.627 218.672L396.965 224.49" stroke="white" stroke-linecap="round" stroke-linejoin="round"/>
<path d="M321.943 159.395H333.061" stroke="white" stroke-linecap="round" stroke-linejoin="round"/>
<path d="M327.496 148.26L337.855 143.948" stroke="white" stroke-linecap="round" stroke-linejoin="round"/>
<path d="M339.629 174.082L346.955 166.487" stroke="white" stroke-linecap="round" stroke-linejoin="round"/>
<path d="M324.977 172.563L323.705 181.677" stroke="white" stroke-linecap="round" stroke-linejoin="round"/>
<path d="M334.321 185.217L344.937 187.239" stroke="white" stroke-linecap="round" stroke-linejoin="round"/>
<path d="M353.779 186.234L360.861 179.141" stroke="white" stroke-linecap="round" stroke-linejoin="round"/>
<path d="M339.629 195.593L346.955 201.412" stroke="white" stroke-linecap="round" stroke-linejoin="round"/>
<path d="M326.493 198.533C324.267 201.706 321.564 204.547 318.335 206.679C291.392 224.515 261.782 182.008 229.554 171.595C225.102 170.162 221.14 168.937 219.721 170.052C217.324 171.926 214.291 174.756 213.165 174.266C211.869 173.715 215.514 169.697 217.862 166.561C217.862 166.561 210.67 175.025 209.398 174.021C207.857 172.784 216.003 163.131 216.003 163.131C216.003 163.131 206.549 172.649 205.668 170.395C204.787 168.141 214.327 160.032 214.327 160.032C214.327 160.032 205.485 167.137 203.907 165.605C202.623 164.356 209.863 159.113 216.761 155.352C220.846 153.123 225.506 152.204 230.117 152.816C234.52 153.404 240.782 154.923 249.282 158.451C249.282 158.451 280.58 172.845 306.166 186.209L332.706 141.093C335.972 135.532 342.111 132.151 348.52 132.751C353.535 133.217 358.61 135.434 360.249 142.012C361.411 146.679 360.225 151.616 357.424 155.524L326.505 198.545L326.493 198.533Z" fill="white" stroke="black" stroke-linecap="round" stroke-linejoin="round"/>
<path d="M307.242 174.058L337.892 195.752C337.892 195.752 386.802 134.062 364.212 119.166C342.894 105.103 307.242 174.058 307.242 174.058V174.058Z" fill="black" stroke="black" stroke-linecap="round" stroke-linejoin="round"/>
<path d="M346.918 128.133H358.036" stroke="white" stroke-linecap="round" stroke-linejoin="round"/>
<path d="M352.483 116.998L362.842 112.686" stroke="white" stroke-linecap="round" stroke-linejoin="round"/>
<path d="M369.924 115.981V128.133" stroke="white" stroke-linecap="round" stroke-linejoin="round"/>
<path d="M364.616 142.808L371.942 135.214" stroke="white" stroke-linecap="round" stroke-linejoin="round"/>
<path d="M349.951 141.289L348.691 150.403" stroke="white" stroke-linecap="round" stroke-linejoin="round"/>
<path d="M359.308 153.956L369.924 155.977" stroke="white" stroke-linecap="round" stroke-linejoin="round"/>
<path d="M378.766 154.96L385.836 147.88" stroke="white" stroke-linecap="round" stroke-linejoin="round"/>
<path d="M364.616 164.331L371.942 170.15" stroke="white" stroke-linecap="round" stroke-linejoin="round"/>
<path d="M371.942 182.473H383.059" stroke="white" stroke-linecap="round" stroke-linejoin="round"/>
<path d="M377.507 171.326L387.866 167.026" stroke="white" stroke-linecap="round" stroke-linejoin="round"/>
<path d="M394.935 170.321V182.473" stroke="white" stroke-linecap="round" stroke-linejoin="round"/>
<path d="M389.627 197.149L396.965 189.554" stroke="white" stroke-linecap="round" stroke-linejoin="round"/>
<path d="M374.975 195.63L373.715 204.743" stroke="white" stroke-linecap="round" stroke-linejoin="round"/>
<path d="M384.331 208.296L394.935 210.317" stroke="white" stroke-linecap="round" stroke-linejoin="round"/>
<path d="M403.79 209.3L410.859 202.22" stroke="white" stroke-linecap="round" stroke-linejoin="round"/>
<path d="M389.627 218.672L396.965 224.49" stroke="white" stroke-linecap="round" stroke-linejoin="round"/>
<path d="M321.943 159.395H333.061" stroke="white" stroke-linecap="round" stroke-linejoin="round"/>
<path d="M327.496 148.26L337.855 143.948" stroke="white" stroke-linecap="round" stroke-linejoin="round"/>
<path d="M339.629 174.082L346.955 166.487" stroke="white" stroke-linecap="round" stroke-linejoin="round"/>
<path d="M324.977 172.563L323.705 181.677" stroke="white" stroke-linecap="round" stroke-linejoin="round"/>
<path d="M334.321 185.217L344.937 187.239" stroke="white" stroke-linecap="round" stroke-linejoin="round"/>
<path d="M353.779 186.234L360.861 179.141" stroke="white" stroke-linecap="round" stroke-linejoin="round"/>
<path d="M339.629 195.593L346.955 201.412" stroke="white" stroke-linecap="round" stroke-linejoin="round"/>
<path d="M109.279 66.5288C109.524 70.9633 104.925 74.9812 100.571 74.136C95.508 73.1437 93.0496 67.4721 89.1236 64.1279C87.3747 62.6334 85.0264 61.5432 82.8005 62.1311C81.7609 62.4006 80.8436 63.0131 80.0364 63.6991C76.991 66.2961 75.2542 70.0813 73.1384 73.4867C71.0225 76.8922 68.0627 80.2119 64.1123 80.8611C60.2719 81.4859 56.407 79.3176 53.9243 76.3042C51.4537 73.2907 50.1083 69.53 48.7997 65.8551" stroke="black" stroke-linecap="round" stroke-linejoin="round"/>
<path d="M66.5706 359.52C58.2539 357.829 51.0256 351.496 48.2493 343.448C45.473 335.412 47.2586 325.955 52.7624 319.488C54.5969 317.332 57.0063 315.408 59.8194 315.139C62.6446 314.869 65.7878 316.854 65.9224 319.684C65.9713 320.786 65.5922 321.876 65.0418 322.832C60.9201 330.108 48.9831 328.846 43.8586 322.244C38.7462 315.641 38.8807 306.38 40.4585 298.173C45.3018 273.159 61.9719 250.705 84.5127 238.871" stroke="black" stroke-linecap="round" stroke-linejoin="round"/>
<path d="M65.1641 235.233C68.7965 235.834 84.5249 238.871 84.5249 238.871V260.088" stroke="black" stroke-linecap="round" stroke-linejoin="round"/>
<path d="M536.748 254.563C550.935 283.767 588.262 299.288 618.924 288.74C623.56 287.148 628.134 284.955 631.424 281.329C634.714 277.703 636.487 272.387 634.885 267.744C632.549 260.97 623.474 258.226 616.967 261.191C610.449 264.167 606.62 271.333 605.825 278.463C604.028 294.718 616.246 310.092 631.277 316.45C646.308 322.807 663.419 321.876 679.502 319.071" stroke="black" stroke-linecap="round" stroke-linejoin="round"/>
<path d="M658.05 306.735L679.514 319.083L664.091 338.034" stroke="black" stroke-linecap="round" stroke-linejoin="round"/>
<path d="M546.055 459.675C569.489 444.142 582.844 414.644 579.065 386.751" stroke="black" stroke-linecap="round" stroke-linejoin="round"/>
<path d="M570.614 397.911L579.065 386.751L588.262 397.2" stroke="black" stroke-linecap="round" stroke-linejoin="round"/>
<path d="M421.414 61.1266C425.939 68.6848 437.191 69.6892 444.897 65.4263C452.602 61.1634 457.433 53.1765 461.408 45.3121C467.633 32.9888 449.703 37.705 456.919 55.1242C459.891 62.3026 465.236 69.677 472.966 70.3507C483.973 71.3062 490.626 59.0687 497.084 50.0895C501.499 43.9524 506.844 31.5801 513.974 30.3796C524.749 28.5666 525.129 44.2341 526.291 48.5338C527.452 52.8335 530.253 57.3782 534.668 57.9049C539.989 58.5297 543.817 53.2745 547.657 49.5383C556.219 41.2207 570.247 39.2117 580.79 44.7854" stroke="black" stroke-linecap="round" stroke-linejoin="round"/>
</svg>
