<svg width="20" height="19" viewBox="0 0 20 19" fill="none" xmlns="http://www.w3.org/2000/svg">
<g clip-path="url(#clip0_821_438)">
<path d="M17.0408 16.1892H14.0774V11.7803C14.0774 10.729 14.0576 9.37566 12.5361 9.37566C10.9927 9.37566 10.7565 10.5211 10.7565 11.7038V16.1889H7.79325V7.1226H10.638V8.3616H10.6779C10.9626 7.89915 11.374 7.51871 11.8682 7.2608C12.3625 7.0029 12.9212 6.87718 13.4847 6.89705C16.4883 6.89705 17.042 8.77389 17.042 11.2155L17.0408 16.1892ZM4.4495 5.88337C3.49974 5.88351 2.72966 5.15216 2.7295 4.24989C2.72935 3.34761 3.49911 2.61603 4.44888 2.61589C5.39864 2.61566 6.16872 3.34702 6.16888 4.24929C6.16896 4.68258 5.98786 5.09816 5.66542 5.40461C5.34298 5.71105 4.9056 5.88327 4.4495 5.88337ZM5.93122 16.1892H2.96474V7.1226H5.93114V16.1892L5.93122 16.1892ZM18.5181 0.00138284H1.47568C0.670207 -0.00722654 0.00966064 0.605746 -0.000183105 1.37094V17.6288C0.00934814 18.3943 0.669817 19.0079 1.4756 18.9999H18.5181C19.3256 19.0094 19.9886 18.3958 19.9998 17.6288V1.36968C19.9883 0.603 19.3252 -0.00989841 18.5181 0.000121117" fill="#0A66C2"/>
</g>
<defs>
<clipPath id="clip0_821_438">
<rect width="20" height="19" fill="white"/>
</clipPath>
</defs>
</svg>
