<svg width="21" height="18" viewBox="0 0 21 18" fill="none" xmlns="http://www.w3.org/2000/svg">
<path d="M21 2.1308C20.2136 2.49822 19.3795 2.7394 18.5254 2.84631C19.4151 2.28394 20.0981 1.39339 20.4198 0.332321C19.5741 0.861633 18.6488 1.23457 17.684 1.43501C16.898 0.551907 15.7784 0 14.5391 0C12.1597 0 10.2306 2.03459 10.2306 4.544C10.2306 4.9002 10.2688 5.24696 10.3422 5.57963C6.76151 5.39007 3.5869 3.58104 1.46188 0.831797C1.0911 1.50293 0.878637 2.28359 0.878637 3.11625C0.878637 4.69281 1.63931 6.08361 2.7953 6.89853C2.11111 6.87593 1.44199 6.68103 0.843773 6.3301C0.843527 6.34913 0.843527 6.36817 0.843527 6.38729C0.843527 8.58895 2.32862 10.4256 4.2995 10.843C3.66506 11.025 2.99958 11.0517 2.35389 10.9209C2.9021 12.7262 4.49326 14.0399 6.3785 14.0767C4.90399 15.2954 3.04623 16.0219 1.02777 16.0219C0.679957 16.0219 0.337066 16.0004 0 15.9584C1.90665 17.2477 4.17129 18 6.60434 18C14.5291 18 18.8626 11.0758 18.8626 5.07098C18.8626 4.87389 18.8585 4.67793 18.8501 4.48309C19.6936 3.83997 20.4216 3.04342 21 2.1308Z" fill="#55ACEE"/>
</svg>
