<svg width="15" height="17" viewBox="0 0 44 47" fill="none" xmlns="http://www.w3.org/2000/svg">
<path d="M2.40997 45.0339C2.40997 36.7068 10.694 29.972 20.893 29.972M42.41 45.0339L40.2583 42.8822M20.893 23.5169C23.7464 23.5169 26.4828 22.3835 28.5004 20.3659C30.518 18.3483 31.6515 15.6118 31.6515 12.7585C31.6515 9.90515 30.518 7.16869 28.5004 5.15108C26.4828 3.13348 23.7464 2 20.893 2C18.0397 2 15.3032 3.13348 13.2856 5.15108C11.268 7.16869 10.1346 9.90515 10.1346 12.7585C10.1346 15.6118 11.268 18.3483 13.2856 20.3659C15.3032 22.3835 18.0397 23.5169 20.893 23.5169V23.5169ZM34.2335 43.7429C36.0597 43.7429 37.811 43.0174 39.1023 41.7262C40.3935 40.4349 41.119 38.6836 41.119 36.8575C41.119 35.0313 40.3935 33.28 39.1023 31.9887C37.811 30.6975 36.0597 29.972 34.2335 29.972C32.4074 29.972 30.6561 30.6975 29.3648 31.9887C28.0735 33.28 27.3481 35.0313 27.3481 36.8575C27.3481 38.6836 28.0735 40.4349 29.3648 41.7262C30.6561 43.0174 32.4074 43.7429 34.2335 43.7429Z" stroke="#A7A7A7" stroke-width="3" stroke-linecap="round" stroke-linejoin="round"/>
</svg>
