<svg width="22" height="22" viewBox="0 0 22 22" fill="none" xmlns="http://www.w3.org/2000/svg">
<path d="M11 21C16.523 21 21 16.523 21 11C21 5.477 16.523 1 11 1C5.477 1 1 5.477 1 11C1 16.523 5.477 21 11 21Z" stroke="#0E5FC1" stroke-linecap="round" stroke-linejoin="round"/>
<path d="M7 2H8C6.05003 7.84157 6.05003 14.1584 8 20H7M14 2C15.95 7.84157 15.95 14.1584 14 20" stroke="#0E5FC1" stroke-linecap="round" stroke-linejoin="round"/>
<path d="M2 15V14C7.84157 15.95 14.1584 15.95 20 14V15M2 8C7.84157 6.05003 14.1584 6.05003 20 8" stroke="#0E5FC1" stroke-linecap="round" stroke-linejoin="round"/>
</svg>
