<svg width="22" height="22" viewBox="0 0 22 22" fill="none" xmlns="http://www.w3.org/2000/svg">
<path d="M4 14V7M4.13 14C4.35603 13.1278 4.86593 12.3556 5.57931 11.8052C6.29269 11.2547 7.16896 10.9574 8.07 10.96L11.5 10.97C14.12 10.98 16.35 9.3 17.17 6.96M4.25 21C5.11195 21 5.9386 20.6576 6.5481 20.0481C7.15759 19.4386 7.5 18.612 7.5 17.75C7.5 16.888 7.15759 16.0614 6.5481 15.4519C5.9386 14.8424 5.11195 14.5 4.25 14.5C3.38805 14.5 2.5614 14.8424 1.9519 15.4519C1.34241 16.0614 1 16.888 1 17.75C1 18.612 1.34241 19.4386 1.9519 20.0481C2.5614 20.6576 3.38805 21 4.25 21V21ZM4 7C4.79565 7 5.55871 6.68393 6.12132 6.12132C6.68393 5.55871 7 4.79565 7 4C7 3.20435 6.68393 2.44129 6.12132 1.87868C5.55871 1.31607 4.79565 1 4 1C3.20435 1 2.44129 1.31607 1.87868 1.87868C1.31607 2.44129 1 3.20435 1 4C1 4.79565 1.31607 5.55871 1.87868 6.12132C2.44129 6.68393 3.20435 7 4 7V7ZM18 7C18.7956 7 19.5587 6.68393 20.1213 6.12132C20.6839 5.55871 21 4.79565 21 4C21 3.20435 20.6839 2.44129 20.1213 1.87868C19.5587 1.31607 18.7956 1 18 1C17.2044 1 16.4413 1.31607 15.8787 1.87868C15.3161 2.44129 15 3.20435 15 4C15 4.79565 15.3161 5.55871 15.8787 6.12132C16.4413 6.68393 17.2044 7 18 7Z" stroke="black" stroke-width="1.5" stroke-linecap="round" stroke-linejoin="round"/>
</svg>
