<svg width="15" height="17" viewBox="0 0 44 50" fill="none" xmlns="http://www.w3.org/2000/svg">
<path d="M22.3772 28.5112C23.3276 28.5112 24.2686 28.324 25.1466 27.9603C26.0246 27.5966 26.8224 27.0636 27.4943 26.3916C28.1663 25.7196 28.6994 24.9218 29.0631 24.0438C29.4267 23.1659 29.6139 22.2248 29.6139 21.2745C29.6139 20.3242 29.4267 19.3831 29.0631 18.5051C28.6994 17.6271 28.1663 16.8294 27.4943 16.1574C26.8224 15.4854 26.0246 14.9523 25.1466 14.5887C24.2686 14.225 23.3276 14.0378 22.3772 14.0378C20.458 14.0378 18.6173 14.8002 17.2601 16.1574C15.903 17.5145 15.1406 19.3552 15.1406 21.2745C15.1406 23.1938 15.903 25.0345 17.2601 26.3916C18.6173 27.7487 20.458 28.5112 22.3772 28.5112V28.5112Z" stroke="#A7A7A7" stroke-width="3"/>
<path d="M2.94032 17.0532C7.50963 -3.0332 37.2682 -3.01 41.8143 17.0764C44.4816 28.8592 37.1522 38.8328 30.7273 45.0026C28.4823 47.1679 25.4848 48.3778 22.3657 48.3778C19.2466 48.3778 16.2491 47.1679 14.0041 45.0026C7.60241 38.8328 0.272953 28.836 2.94032 17.0532V17.0532Z" stroke="#A7A7A7" stroke-width="3"/>
</svg>
