<svg width="17" height="19" viewBox="0 0 17 19" fill="none" xmlns="http://www.w3.org/2000/svg">
<path d="M9.97448 11.9197H6.25684M8.11566 9.91888V14.0189" stroke="white" stroke-width="1.5" stroke-miterlimit="10" stroke-linecap="round" stroke-linejoin="round"/>
<path d="M8.78353 1.32526L8.76122 1.38266L6.60498 6.90126H4.48593C3.98033 6.90126 3.49703 7.01606 3.05835 7.22106L4.35953 3.79346L4.38927 3.71146L4.44131 3.58026C4.45618 3.53106 4.47106 3.48186 4.49336 3.44086C5.46738 0.956262 6.56781 0.390462 8.78353 1.32526V1.32526Z" stroke="white" stroke-width="1.5" stroke-linecap="round" stroke-linejoin="round"/>
<path d="M12.7911 7.0653C12.4566 6.9505 12.0997 6.9013 11.7428 6.9013H6.60498L8.76122 1.3827L8.78352 1.3253C8.89505 1.3663 8.99915 1.4237 9.11068 1.4729L10.7539 2.2355C11.6684 2.6537 12.3079 3.0883 12.6945 3.6131C12.7688 3.7115 12.8283 3.8017 12.8804 3.9083C12.9473 4.0231 12.9993 4.1379 13.0291 4.2609C13.0588 4.3347 13.0811 4.4085 13.096 4.4741C13.2967 5.1629 13.1778 6.0075 12.7911 7.0653V7.0653Z" stroke="white" stroke-width="1.5" stroke-linecap="round" stroke-linejoin="round"/>
<path d="M15.3725 10.9028V12.5018C15.3725 12.6658 15.365 12.8298 15.3576 12.9938C15.2163 15.8556 13.7664 17.2988 11.0154 17.2988H5.21586C5.03741 17.2988 4.85896 17.2824 4.68795 17.2578C2.32353 17.0856 1.05953 15.6916 0.903387 13.084C0.881081 12.8954 0.866211 12.6986 0.866211 12.5018V10.9028C0.866211 9.25465 1.77332 7.83605 3.06706 7.22105C3.51318 7.01605 3.98903 6.90125 4.49463 6.90125H11.7515C12.1158 6.90125 12.4727 6.95864 12.7999 7.06524C14.2795 7.56544 15.3725 9.09065 15.3725 10.9028V10.9028Z" stroke="white" stroke-width="1.5" stroke-linecap="round" stroke-linejoin="round"/>
<path d="M4.35945 3.79341L3.05827 7.22101C2.40553 7.53069 1.84929 8.04437 1.45819 8.69864C1.06709 9.35291 0.858243 10.1192 0.857422 10.9028V8.50021C0.857422 6.17141 2.35935 4.22801 4.35945 3.79341V3.79341ZM15.3704 8.50021V10.9028C15.3704 9.09881 14.2848 7.56541 12.7978 7.07341C13.1844 6.00741 13.2959 5.17101 13.11 4.47401C13.0952 4.40021 13.0729 4.32641 13.0431 4.26081C14.4261 5.04801 15.3704 6.66341 15.3704 8.50021Z" stroke="white" stroke-width="1.5" stroke-linecap="round" stroke-linejoin="round"/>
</svg>
