<svg width="44" height="45" viewBox="0 0 44 45" fill="none" xmlns="http://www.w3.org/2000/svg">
<path d="M22 35.2282C24.1759 35.2282 26.2628 34.3638 27.8014 32.8252C29.34 31.2865 30.2044 29.1997 30.2044 27.0237C30.2044 24.8478 29.34 22.7609 27.8014 21.2223C26.2628 19.6837 24.1759 18.8193 22 18.8193C19.824 18.8193 17.7372 19.6837 16.1986 21.2223C14.6599 22.7609 13.7955 24.8478 13.7955 27.0237C13.7955 29.1997 14.6599 31.2865 16.1986 32.8252C17.7372 34.3638 19.824 35.2282 22 35.2282V35.2282Z" stroke="#A7A7A7" stroke-width="3" stroke-miterlimit="10" stroke-linecap="round" stroke-linejoin="round"/>
<path d="M18.8003 27.2285L20.1335 28.5617C20.5232 28.9514 21.1591 28.9514 21.5488 28.5822L25.1998 25.2184" stroke="#A7A7A7" stroke-width="3" stroke-linecap="round" stroke-linejoin="round"/>
<path d="M13.7955 10.2045V8.56356C13.7955 4.93309 13.7955 2 20.3591 2H23.6409C30.2044 2 30.2044 4.93309 30.2044 8.56356V10.2045M13.7955 43.0223H30.2044C38.4499 43.0223 39.9267 39.72 40.3575 35.6998L41.8958 19.2909C42.4496 14.2862 41.0138 10.2045 32.2556 10.2045H11.7444C2.98618 10.2045 1.5504 14.2862 2.1042 19.2909L3.64254 35.6998C4.07327 39.72 5.55007 43.0223 13.7955 43.0223Z" stroke="#A7A7A7" stroke-width="3" stroke-miterlimit="10" stroke-linecap="round" stroke-linejoin="round"/>
<path d="M41.7932 20.4602C38.32 22.9903 34.3926 24.8287 30.2249 25.8751M2.76053 21.014C6.18589 23.3522 9.91891 25.0136 13.7955 25.9572" stroke="#A7A7A7" stroke-width="3" stroke-miterlimit="10" stroke-linecap="round" stroke-linejoin="round"/>
</svg>
