<svg xmlns="http://www.w3.org/2000/svg" width="40.01" height="40.01" viewBox="0 0 40.01 40.01">
  <g id="Group_21797" data-name="Group 21797" transform="translate(-78 -248)">
    <rect id="Rectangle_Copy_17" data-name="Rectangle Copy 17" width="40.01" height="40.01" rx="8" transform="translate(78 248)" fill="#6247ae" opacity="0.1"/>
    <g id="standing-human-body-silhouette" transform="translate(32.232 253.432)">
      <g id="Group_21161" data-name="Group 21161" transform="translate(59.768 0)">
        <path id="Path_21195" data-name="Path 21195" d="M65.45,15.062a34.331,34.331,0,0,0,.432,3.825,5.91,5.91,0,0,1,.21,1.571,5.705,5.705,0,0,0-.079,1.652A5.367,5.367,0,0,1,66,23.92a13.2,13.2,0,0,0-.249,1.344c-.419,1.059-.183,1.007-.183,1.007.13.159.352.013.352.013a.218.218,0,0,0,.287-.026.261.261,0,0,0,.315-.015.322.322,0,0,0,.352-.08c.1.053.131-.014.131-.014.315-.02-.176-1.028-.176-1.028a2.752,2.752,0,0,1,.117-1.409c.767-2.274.806-2.877.5-3.734-.086-.247-.108-.345-.068-.453.092-.248.025-1.245.137-1.641a35.523,35.523,0,0,0,.54-3.6,6.973,6.973,0,0,0-.529-2.849,18.241,18.241,0,0,1,.069-3.03,2.868,2.868,0,0,1,.292,1.308,5.428,5.428,0,0,0,.708,2.214,3.565,3.565,0,0,1,.5,1.117c0,.159-.035.545-.035.545l.014.336a4.79,4.79,0,0,1,.047.523c-.057.876.082.711.082.711.117,0,.247-.705.247-.705a3.022,3.022,0,0,0,.054.931c.117.245.2-.042.205-.1.031-1.116.1-.823.1-.823.065.905.145,1.109.289,1.039.109-.052.009-1.086.009-1.086.187.614.328.712.328.712.308.216.117-.381.075-.5a3.393,3.393,0,0,1-.235-.846c.285.565.5.544.5.544.278-.089-.243-.888-.547-1.271a3.115,3.115,0,0,1-.414-.612,7.392,7.392,0,0,1-.167-1.108,3.329,3.329,0,0,0-.275-1.43,5.165,5.165,0,0,1-.5-1.933l-.019-2.124C68.7,4.4,67.633,4.389,67.633,4.389c-1.079-.161-1.229-.509-1.229-.509a1.522,1.522,0,0,1-.1-.959,1.147,1.147,0,0,0,.263-.564c.315-.241.3-.595.154-.591-.117,0-.09-.094-.09-.094A1.345,1.345,0,0,0,65.417,0H65.2a1.345,1.345,0,0,0-1.216,1.671s.026.1-.091.094c-.145,0-.159.349.155.591a1.146,1.146,0,0,0,.263.564,1.522,1.522,0,0,1-.1.959s-.15.349-1.229.509c0,0-1.069.01-1.215,1.459l-.02,2.124a5.132,5.132,0,0,1-.5,1.933,3.341,3.341,0,0,0-.274,1.43,7.438,7.438,0,0,1-.166,1.108,3.081,3.081,0,0,1-.415.612c-.307.382-.824,1.18-.548,1.271,0,0,.216.021.5-.544a3.361,3.361,0,0,1-.233.846c-.045.117-.235.714.073.5,0,0,.143-.1.328-.712,0,0-.1,1.034.011,1.086.145.071.224-.134.289-1.039,0,0,.067-.292.1.823,0,.058.086.345.2.1a2.979,2.979,0,0,0,.055-.931s.128.705.247.705c0,0,.14.165.083-.711a4.412,4.412,0,0,1,.047-.523l.014-.336s-.035-.385-.035-.545a3.56,3.56,0,0,1,.5-1.117,5.43,5.43,0,0,0,.706-2.214A2.876,2.876,0,0,1,63.026,8.4a18.49,18.49,0,0,1,.07,3.03,6.96,6.96,0,0,0-.529,2.849,35.076,35.076,0,0,0,.54,3.6c.113.4.046,1.392.137,1.641.041.108.019.208-.068.453-.3.857-.266,1.46.5,3.734a2.727,2.727,0,0,1,.117,1.409s-.49,1.008-.176,1.028c0,0,.025.067.131.014a.323.323,0,0,0,.353.08.26.26,0,0,0,.314.015.216.216,0,0,0,.286.026s.222.15.355-.013c0,0,.235.052-.183-1.007a13.137,13.137,0,0,0-.248-1.344,5.393,5.393,0,0,1-.014-1.81,5.806,5.806,0,0,0-.079-1.652,5.784,5.784,0,0,1,.21-1.571,34.536,34.536,0,0,0,.432-3.825l.129.045A.261.261,0,0,0,65.45,15.062Z" transform="translate(-59.768 0)" fill="#6247ae"/>
      </g>
    </g>
  </g>
</svg>
