<svg xmlns="http://www.w3.org/2000/svg" width="40.01" height="40.01" viewBox="0 0 40.01 40.01">
  <g id="Group_21798" data-name="Group 21798" transform="translate(-190 -248)">
    <rect id="Rectangle_Copy_17" data-name="Rectangle Copy 17" width="40.01" height="40.01" rx="8" transform="translate(190 248)" fill="#6247ae" opacity="0.1"/>
    <g id="noun_Coffee_3850358" transform="translate(203 256.58)">
      <path id="Path_18929" data-name="Path 18929" d="M22.785,13.662a.328.328,0,0,0,.435-.492c-.438-.384-.232-.963.138-1.876s.876-2.159-.138-3.032a.337.337,0,1,0-.435.478c.62.542.4,1.233-.037,2.3C22.384,11.94,21.973,12.951,22.785,13.662Z" transform="translate(-18.662 -5.768)" fill="#6247ae"/>
      <path id="Path_18930" data-name="Path 18930" d="M30.735,6.613a.337.337,0,1,0,.428-.492c-.438-.384-.232-.963.138-1.88s.879-2.156-.138-3.032a.337.337,0,0,0-.428.482c.62.542.4,1.233-.037,2.3C30.334,4.888,29.923,5.9,30.735,6.613Z" transform="translate(-23.933 -1.179)" fill="#6247ae"/>
      <path id="Path_18931" data-name="Path 18931" d="M37.485,13.922a.337.337,0,1,0,.428-.492c-.438-.384-.232-.963.138-1.876s.879-2.159-.138-3.032A.337.337,0,0,0,37.485,9c.62.542.4,1.233-.037,2.308C37.084,12.2,36.673,13.212,37.485,13.922Z" transform="translate(-28.409 -6.029)" fill="#6247ae"/>
      <path id="Path_18932" data-name="Path 18932" d="M18.792,39.9h5.195a2.746,2.746,0,0,0,2.739-2.746v-7a.071.071,0,0,0-.071-.074H16.124a.074.074,0,0,0-.074.074v7A2.749,2.749,0,0,0,18.792,39.9Z" transform="translate(-14.507 -20.344)" fill="#6247ae"/>
      <path id="Path_18933" data-name="Path 18933" d="M50.074,33.85H49.68v3.968h.391a1.246,1.246,0,0,0,1.243-1.246V35.09A1.24,1.24,0,0,0,50.074,33.85Z" transform="translate(-36.808 -22.844)" fill="#6247ae"/>
      <path id="Path_18934" data-name="Path 18934" d="M20.943,61.17H11.47a1.617,1.617,0,0,0,1.583,1.29H23.648a1.617,1.617,0,0,0,1.583-1.29Z" transform="translate(-11.47 -40.96)" fill="#6247ae"/>
    </g>
  </g>
</svg>
