<svg width="24" height="21" viewBox="0 0 24 21" fill="none" xmlns="http://www.w3.org/2000/svg">
<path d="M1 19.99H23H1ZM19.78 20V15.54V20ZM19.8 8.88C18.58 8.88 17.6 9.86 17.6 11.08V13.35C17.6 14.57 18.58 15.55 19.8 15.55C21.02 15.55 22 14.57 22 13.35V11.08C22 9.86 21.02 8.88 19.8 8.88ZM2.1 19.99V4.02C2.1 2.01 3.1 1 5.09 1H11.32C13.31 1 14.3 2.01 14.3 4.02V19.99M5.8 6.24H10.75H5.8ZM5.8 9.99H10.75H5.8ZM8.25 19.99V16.24V19.99Z" fill="#EEEFFF"/>
<path d="M1 19.99H23M19.78 20V15.54M2.1 19.99V4.02C2.1 2.01 3.1 1 5.09 1H11.32C13.31 1 14.3 2.01 14.3 4.02V19.99M5.8 6.24H10.75M5.8 9.99H10.75M8.25 19.99V16.24M19.8 8.88C18.58 8.88 17.6 9.86 17.6 11.08V13.35C17.6 14.57 18.58 15.55 19.8 15.55C21.02 15.55 22 14.57 22 13.35V11.08C22 9.86 21.02 8.88 19.8 8.88Z" stroke="black" stroke-width="1.5" stroke-miterlimit="10" stroke-linecap="round" stroke-linejoin="round"/>
</svg>
