<svg width="21" height="22" viewBox="0 0 21 22" fill="none" xmlns="http://www.w3.org/2000/svg">
<path d="M1.41003 21C1.41003 17.13 5.26003 14 10 14C10.96 14 11.89 14.13 12.76 14.37M10 11C11.3261 11 12.5979 10.4732 13.5356 9.53553C14.4733 8.59785 15 7.32608 15 6C15 4.67392 14.4733 3.40215 13.5356 2.46447C12.5979 1.52678 11.3261 1 10 1C8.67395 1 7.40218 1.52678 6.4645 2.46447C5.52682 3.40215 5.00003 4.67392 5.00003 6C5.00003 7.32608 5.52682 8.59785 6.4645 9.53553C7.40218 10.4732 8.67395 11 10 11V11Z" stroke="black" stroke-width="1.5" stroke-linecap="round" stroke-linejoin="round"/>
<path d="M20 17.0001C20 17.7501 19.79 18.46 19.42 19.0601C19.21 19.4201 18.94 19.7401 18.63 20.0001C17.93 20.6301 17.01 21.0001 16 21.0001C15.3106 21.0015 14.6326 20.8233 14.033 20.4832C13.4333 20.143 12.9325 19.6525 12.58 19.0601C12.1993 18.4405 11.9985 17.7272 12 17.0001C12 15.7401 12.58 14.6101 13.5 13.8801C14.088 13.4088 14.7972 13.1132 15.5458 13.0275C16.2945 12.9417 17.0522 13.0692 17.7315 13.3953C18.4108 13.7214 18.9842 14.2328 19.3856 14.8705C19.7869 15.5083 19.9999 16.2465 20 17.0001V17.0001Z" stroke="black" stroke-width="1.5" stroke-miterlimit="10" stroke-linecap="round" stroke-linejoin="round"/>
<path d="M14.4401 17L15.4301 17.99L17.5601 16.02" stroke="black" stroke-width="1.5" stroke-linecap="round" stroke-linejoin="round"/>
</svg>
