<svg width="18" height="20" viewBox="0 0 18 20" fill="none" xmlns="http://www.w3.org/2000/svg">
<path d="M0.619953 6.49C2.58995 -2.17 15.42 -2.16 17.38 6.5C18.53 11.58 15.37 15.88 12.6 18.54C11.632 19.4735 10.3397 19.9952 8.99495 19.9952C7.6502 19.9952 6.35788 19.4735 5.38995 18.54C2.62995 15.88 -0.530047 11.57 0.619953 6.49Z" fill="#FB3232"/>
<path d="M8.99994 11.43C9.40967 11.43 9.81538 11.3493 10.1939 11.1925C10.5725 11.0357 10.9164 10.8059 11.2061 10.5162C11.4958 10.2265 11.7257 9.88251 11.8824 9.50397C12.0392 9.12544 12.1199 8.71973 12.1199 8.31C12.1199 7.90028 12.0392 7.49457 11.8824 7.11603C11.7257 6.73749 11.4958 6.39355 11.2061 6.10383C10.9164 5.81411 10.5725 5.58429 10.1939 5.4275C9.81538 5.2707 9.40967 5.19 8.99994 5.19C8.17247 5.19 7.37888 5.51872 6.79377 6.10383C6.20866 6.68894 5.87994 7.48253 5.87994 8.31C5.87994 9.13748 6.20866 9.93106 6.79377 10.5162C7.37888 11.1013 8.17247 11.43 8.99994 11.43Z" fill="white"/>
</svg>
