<svg xmlns="http://www.w3.org/2000/svg" viewBox="0 0 50.31 50.3"><defs><style>.cls-1{fill:#fff;}</style></defs><title>Asset 13xxxhdpi</title><g id="Layer_2" data-name="Layer 2"><g id="Layer_1-2" data-name="Layer 1"><path class="cls-1" d="M40.75,49.53A21.12,21.12,0,0,1,32,47a55.85,55.85,0,0,1-11.77-8.41A91.11,91.11,0,0,1,6.75,23.89,32.79,32.79,0,0,1,1.48,13.73a30.88,30.88,0,0,1-.68-3.6,3.16,3.16,0,0,1,.64-2.42A27.67,27.67,0,0,1,8.21,1.39,4.42,4.42,0,0,1,10.28.78a2.59,2.59,0,0,1,2.49,1.27C14.9,5.27,17,8.48,19.16,11.7a3,3,0,0,1,.3,2.75,8.93,8.93,0,0,1-.63,1.46c-.62,1.14-1.23,2.3-1.93,3.4a1.05,1.05,0,0,0,.09,1.4A60.19,60.19,0,0,0,23.66,28c1.91,1.81,3.94,3.49,5.9,5.24a1.05,1.05,0,0,0,1.45.1c1.25-.77,2.54-1.46,3.84-2.15a3.76,3.76,0,0,1,4.25.21c2.9,2,5.84,4,8.82,5.85A3.22,3.22,0,0,1,49,41.85a15.19,15.19,0,0,1-1.46,2,26.35,26.35,0,0,1-4.93,4.91A3.26,3.26,0,0,1,40.75,49.53Zm-.12-2.22a5.68,5.68,0,0,0,1.19-.68c1-.91,2-1.86,2.94-2.86a29,29,0,0,0,2.15-2.66,1.23,1.23,0,0,0-.35-2c-2.81-1.86-5.64-3.68-8.4-5.6a2.27,2.27,0,0,0-2.71-.07c-1.6.91-3.2,1.8-4.79,2.71a.71.71,0,0,1-.89,0c-.47-.36-1-.66-1.45-1a74.65,74.65,0,0,1-10.55-10c-1.27-1.44-2.37-3-3.56-4.52a.71.71,0,0,1,0-.93c.66-1.11,1.28-2.23,1.91-3.35.34-.63.71-1.24,1-1.89a1.65,1.65,0,0,0,.05-1.69c-2-3.07-4.07-6.16-6.13-9.22a1.25,1.25,0,0,0-.92-.42,2,2,0,0,0-1,.41c-.94.72-1.88,1.45-2.75,2.26A30.41,30.41,0,0,0,3.65,8.5,2.75,2.75,0,0,0,3,10a7.6,7.6,0,0,0,.27,2.05,28.23,28.23,0,0,0,4.53,9.5,82.76,82.76,0,0,0,12.34,14A57.43,57.43,0,0,0,33,45,18.51,18.51,0,0,0,40.63,47.31Z"/><path class="cls-1" d="M40.84,50.3h-.13a22,22,0,0,1-9.07-2.62,55.91,55.91,0,0,1-11.93-8.53A90.68,90.68,0,0,1,6.12,24.34,34.36,34.36,0,0,1,.74,13.94a25.29,25.29,0,0,1-.59-3l-.1-.66a3.85,3.85,0,0,1,.78-3,27.74,27.74,0,0,1,7-6.5A5,5,0,0,1,10.21,0a3.36,3.36,0,0,1,3.2,1.61l2.41,3.64,4,6a3.77,3.77,0,0,1,.4,3.41,10,10,0,0,1-.69,1.58l-.22.41c-.55,1-1.11,2.05-1.74,3-.14.23-.15.25.06.53a60,60,0,0,0,6.59,7.24c1.21,1.14,2.49,2.26,3.73,3.34.72.62,1.44,1.25,2.15,1.89.2.17.23.2.54,0,1.29-.79,2.67-1.53,3.88-2.18a4.55,4.55,0,0,1,5,.26c3.22,2.22,6.1,4.13,8.8,5.83a4,4,0,0,1,1.37,5.6,15.37,15.37,0,0,1-1.53,2.13,27,27,0,0,1-5.08,5.05A4.14,4.14,0,0,1,40.84,50.3ZM10.54,1.53h-.19A3.68,3.68,0,0,0,8.64,2,26.53,26.53,0,0,0,2.06,8.16,2.36,2.36,0,0,0,1.56,10l.1.67a23.18,23.18,0,0,0,.55,2.85,32.77,32.77,0,0,0,5.16,9.92A89.36,89.36,0,0,0,20.73,38a54.57,54.57,0,0,0,11.61,8.3,20.19,20.19,0,0,0,8.45,2.46h0a2.54,2.54,0,0,0,1.41-.59A25.75,25.75,0,0,0,47,43.4a14.72,14.72,0,0,0,1.39-1.93,2.48,2.48,0,0,0-.86-3.54c-2.73-1.71-5.62-3.63-8.86-5.86a3,3,0,0,0-3.45-.17c-1.2.64-2.55,1.36-3.81,2.13a1.78,1.78,0,0,1-2.35-.18c-.7-.63-1.42-1.25-2.13-1.87-1.25-1.09-2.55-2.22-3.78-3.39a59.93,59.93,0,0,1-6.76-7.42,1.84,1.84,0,0,1-.13-2.27c.61-.94,1.15-2,1.68-2.94l.23-.42a8.59,8.59,0,0,0,.58-1.32,2.29,2.29,0,0,0-.22-2.1l-4-6L12.13,2.47A1.84,1.84,0,0,0,10.54,1.53ZM40.81,48.08h-.22a19.24,19.24,0,0,1-8-2.38,57.68,57.68,0,0,1-13-9.59A83.14,83.14,0,0,1,7.21,22a29.45,29.45,0,0,1-4.64-9.76A8,8,0,0,1,2.28,10a3.6,3.6,0,0,1,.79-2A32.31,32.31,0,0,1,5.79,5.16a36.22,36.22,0,0,1,2.8-2.3,2.7,2.7,0,0,1,1.5-.57A2,2,0,0,1,11.66,3q2.36,3.5,4.66,7l1.48,2.22a2.39,2.39,0,0,1,0,2.43c-.25.55-.55,1.07-.83,1.58l-.47.83c-.54,1-1.09,1.94-1.65,2.9l0,.07c.41.53.8,1,1.18,1.54.75,1,1.53,2,2.35,2.95a74.18,74.18,0,0,0,10.44,9.92c.24.18.48.34.73.51s.48.32.7.49l.07,0,2.94-1.67,1.85-1a3,3,0,0,1,3.52.1c2,1.37,4,2.71,6,4L47,38.44a2.2,2.2,0,0,1,1.07,1.41,2.24,2.24,0,0,1-.52,1.71,31.72,31.72,0,0,1-2.21,2.73c-.87.94-1.85,1.89-3,2.91a4.25,4.25,0,0,1-1.11.67L41,48ZM10.13,3.81h0a1.26,1.26,0,0,0-.61.26c-.89.68-1.84,1.41-2.69,2.2A29.38,29.38,0,0,0,4.24,9a2,2,0,0,0-.44,1.09,6.79,6.79,0,0,0,.26,1.83,28.07,28.07,0,0,0,4.41,9.24A81.85,81.85,0,0,0,20.7,35a56,56,0,0,0,12.64,9.34,18,18,0,0,0,7.14,2.2l.1,0a2.81,2.81,0,0,0,.73-.43c1.11-1,2-1.9,2.89-2.8a30.29,30.29,0,0,0,2.1-2.6c.2-.28.26-.46.24-.54s0-.18-.41-.41c-.8-.54-1.6-1.06-2.41-1.59-2-1.3-4-2.65-6-4a1.53,1.53,0,0,0-1.9,0l-1.85,1c-1,.55-2,1.1-2.93,1.66a1.45,1.45,0,0,1-1.72-.05q-.33-.24-.66-.45c-.27-.19-.55-.37-.81-.57A76.16,76.16,0,0,1,17.19,25.57c-.86-1-1.65-2-2.42-3-.38-.51-.77-1-1.16-1.51a1.48,1.48,0,0,1-.08-1.8c.56-.95,1.1-1.91,1.64-2.87l.47-.83c.28-.5.55-1,.77-1.47s.24-.75.11-.94l-1.47-2.23q-2.31-3.51-4.66-7A.61.61,0,0,0,10.13,3.81Z"/></g></g></svg>