<svg xmlns="http://www.w3.org/2000/svg" viewBox="0 0 810 423.58"><defs><style>.cls-1{fill:#aa8bcc;}.cls-2{fill:#c6e8a6;}.cls-3{fill:#fc8888;}.cls-4{fill:#86c6ea;}.cls-5{fill:#449dd9;}.cls-6{fill:#ffd67b;}.cls-7{fill:#edfcf2;}.cls-8{fill:none;stroke:#5cc487;stroke-linecap:round;stroke-linejoin:round;stroke-width:14px;}</style></defs><title>Asset 17</title><g id="Layer_2" data-name="Layer 2"><g id="Layer_1-2" data-name="Layer 1"><path class="cls-1" d="M689,36A24.11,24.11,0,0,1,696,46.67c2.85,8.95-.31,19.25-7.55,24.43-9.56,6.84-20.48,2-21.66-9.73-.67-6.56,1.07-12.66,3.83-18.53.32-.7.71-1.36,1.19-2.28a16.33,16.33,0,0,0-8.77,1.79C656.13,45.56,651.63,51,648.72,58c-2.6,6.18-3.42,12.71-4,19.31-.3,3.57-1.59,5.2-4.19,5.56-3.33.46-6.16-1.62-6-5,.7-13.68,3.75-26.64,13.39-37,7.9-8.53,17.72-12,29.28-9.89,1.71.31,2.64-.41,3.73-1.34a40.92,40.92,0,0,1,24.18-10,4.83,4.83,0,0,1,5.55,4.31,4.66,4.66,0,0,1-4.1,5.48c-4.35.75-8.73,1.29-12.63,3.57C692.37,33.85,690.84,34.85,689,36Zm-7.15,7.82c-3.31,5.06-5.32,10.46-4.87,16.57.25,3.52,2.12,4.43,5.2,2.73a7.54,7.54,0,0,0,1.7-1.27C688.48,57.16,687.53,47.88,681.8,43.85Z"/><path class="cls-2" d="M492.14,88.41c4.93-8.11,12.89-12.25,21.14-16s16.41-7,24.28-11.07c10.51-5.5,14.25-14.87,13.36-26.38-.61-8-3-15.54-5.67-23a26.44,26.44,0,0,1-1.42-4.86,5.89,5.89,0,0,1,4.28-6.8c2.87-.86,6.29.23,7.32,2.84,4.49,11.46,8.88,23,8.58,35.6-.4,17.09-9,28.87-24.14,36-7.8,3.7-15.92,6.71-23.76,10.33-5.69,2.62-11,5.87-14.17,11.68-2.7,4.91-3,9.55.42,14.25,2.69,3.73,2.19,7.2-1.16,9.47-3.09,2.09-6.32,1.46-8.92-1.73-6-7.43-6.85-18.5-2-27.42C490.84,90.33,491.52,89.39,492.14,88.41Z"/><path class="cls-3" d="M587.86,182.6c7.93.27,15.19,3.19,22.47,6.28a150.79,150.79,0,0,0,18.84,7c6.44,1.77,12.57-.29,17.83-4.27,1.59-1.21,2.58-3.26,3.75-5,1.38-2,3.1-3.33,5.67-3a5.46,5.46,0,0,1,4.93,4.38,5.73,5.73,0,0,1-.31,3.47c-4.34,9.63-12.38,14.22-22.34,16-8.65,1.53-16.74-.72-24.6-4.11-5.28-2.27-10.46-4.8-15.8-6.93-9.57-3.81-18.73-2.54-27.51,2.63-9,5.28-15.8,12.9-22.6,20.54-1.49,1.66-3.12,2.86-5.43,2.7a5.61,5.61,0,0,1-4.45-8.74,45.59,45.59,0,0,1,4.82-5.78c6.82-7.45,14-14.45,23-19.29A45.91,45.91,0,0,1,587.86,182.6Z"/><path class="cls-4" d="M786,147.88a22.09,22.09,0,0,1-3.82-2.42q-9.12-8.93-18.07-18c-2.65-2.68-2.69-5.19-.08-7.85q9-9.18,18.19-18.2c2.53-2.49,5.19-2.49,7.71,0q9.17,9,18.2,18.18c2.58,2.61,2.54,5.23-.07,7.86-6,6-12,12.07-18.08,18A21.53,21.53,0,0,1,786,147.88Zm12.21-24.3-12-12-12,11.93,11.94,12.11Z"/><path class="cls-5" d="M410.39,24.11a5.88,5.88,0,0,1,6.19,6.22,6,6,0,0,1-6.1,6.37,6.21,6.21,0,0,1-6.13-6.15A6,6,0,0,1,410.39,24.11Z"/><path class="cls-5" d="M424.62,11.76a6.25,6.25,0,0,1-6.1,6.47,6.16,6.16,0,0,1-6.14-6.4,6.12,6.12,0,1,1,12.24-.07Z"/><path class="cls-5" d="M437.09,28.21A6,6,0,0,1,431,34.47a6,6,0,0,1-6.11-6.32,6.15,6.15,0,0,1,6.17-6.3A6,6,0,0,1,437.09,28.21Z"/><path class="cls-1" d="M151.53,41.17C147,38.53,141.9,37.9,136.85,37a5.41,5.41,0,0,1-4.77-6.37c.56-3.4,2.95-5.26,6.45-5a47.6,47.6,0,0,1,28.1,11.62c1.26,1.09,2.35,1.93,4.33,1.56,13.44-2.5,24.85,1.59,34,11.5,11.2,12.09,14.75,27.15,15.56,43.05.19,3.91-3.09,6.32-7,5.78-3-.41-4.52-2.31-4.87-6.46-.65-7.66-1.6-15.25-4.62-22.43-3.39-8.06-8.61-14.42-16.65-18.15A19.12,19.12,0,0,0,177.25,50c.56,1.07,1,1.85,1.38,2.65,3.21,6.82,5.23,13.91,4.46,21.54C181.71,87.81,169,93.49,157.92,85.54c-8.42-6-12.09-18-8.79-28.39a28.1,28.1,0,0,1,8.21-12.37C155.14,43.41,153.36,42.25,151.53,41.17ZM163.3,74.83a8.83,8.83,0,0,0,2,1.46c3.58,2,5.75.93,6-3.17.52-7.09-1.81-13.38-5.66-19.25C159,58.56,157.88,69.33,163.3,74.83Z"/><path class="cls-2" d="M359.44,95.85c-5.25-7.9-13.37-11.71-21.77-15.12S321,74.46,313,70.66c-10.72-5.07-14.84-14.28-14.43-25.82.29-8,2.35-15.65,4.74-23.23a26.51,26.51,0,0,0,1.22-4.91,5.89,5.89,0,0,0-4.55-6.62c-2.91-.75-6.28.49-7.2,3.13-4,11.64-7.94,23.34-7.13,35.93,1.1,17,10.17,28.47,25.58,35,7.95,3.38,16.19,6.06,24.17,9.35,5.79,2.39,11.2,5.43,14.63,11.1,2.9,4.79,3.34,9.43.16,14.26-2.53,3.83-1.89,7.28,1.55,9.41,3.17,2,6.37,1.2,8.84-2.09,5.73-7.67,6.09-18.77.87-27.48C360.82,97.72,360.1,96.8,359.44,95.85Z"/><path class="cls-3" d="M250,175c-7.88-.74-15.45,1.23-23,3.38A152.73,152.73,0,0,1,207.4,183c-6.62.95-12.42-1.87-17.13-6.48-1.43-1.4-2.15-3.56-3.1-5.41-1.11-2.18-2.64-3.7-5.23-3.7a5.43,5.43,0,0,0-5.44,3.72,5.75,5.75,0,0,0-.13,3.48c3.08,10.09,10.47,15.66,20.12,18.66,8.38,2.61,16.68,1.41,24.89-1,5.53-1.59,11-3.44,16.54-4.88,10-2.57,18.88-.15,26.94,6.08,8.22,6.37,14,14.78,19.8,23.21,1.26,1.84,2.72,3.23,5,3.36a5.61,5.61,0,0,0,5.52-8.1,46.48,46.48,0,0,0-4.05-6.33c-5.82-8.24-12.08-16.09-20.39-22A45.65,45.65,0,0,0,250,175Z"/><path class="cls-4" d="M20.34,130.74c-6.17-6-12.26-12.14-18.33-18.26-2.65-2.66-2.69-5.32-.07-8q9.17-9.27,18.44-18.42c2.56-2.53,5.26-2.53,7.82,0q9.27,9.16,18.43,18.44c2.65,2.7,2.61,5.24-.07,8q-9.11,9.2-18.32,18.26a23,23,0,0,1-3.88,2.46A22.18,22.18,0,0,1,20.34,130.74Zm3.88-10,12.11-12.27L24.12,96.43,12,108.58Z"/><path class="cls-6" d="M175.88,288a18.47,18.47,0,0,1,18.34,18.11c.23,9.84-8.07,18.26-18.19,18.46a18.29,18.29,0,1,1-.15-36.57Zm.21,27.51a9.23,9.23,0,0,0-.27-18.46,9.23,9.23,0,1,0,.27,18.46Z"/><path class="cls-6" d="M672.88,303a18.47,18.47,0,0,1,18.34,18.11c.23,9.84-8.07,18.26-18.19,18.46a18.29,18.29,0,1,1-.15-36.57Zm.21,27.51a9.23,9.23,0,0,0-.27-18.46,9.23,9.23,0,1,0,.27,18.46Z"/><circle class="cls-7" cx="427" cy="324.58" r="99"/><polyline class="cls-8" points="375.22 313.54 407.18 357.39 486.42 300.36"/></g></g></svg>