<svg xmlns="http://www.w3.org/2000/svg" viewBox="0 0 64 64"><g data-name="Layer 2"><g data-name="Layer 1"><path d="M32 23c.29-.6.49-1 .72-1.44a8.78 8.78 0 0 1 12.45-3.46 8.89 8.89 0 0 1 2.62 12.64 10.34 10.34 0 0 1-1.1 1.44c-4.84 5-9.69 10-14.6 15-.26-.22-.51-.4-.73-.62q-6.81-7-13.63-14C15.2 30 13.92 26.93 15 23.23a8.86 8.86 0 0 1 16.27-1.76c.23.42.43.86.73 1.53Z" style="fill:#c9142b"/><rect x="1" y="1" width="62" height="62" rx="11.92" style="fill:none;stroke:#bcbec0;stroke-miterlimit:10;stroke-width:2px"/></g></g></svg>