<svg xmlns="http://www.w3.org/2000/svg" viewBox="0 0 35.39 35.39"><defs><style>.cls-1{fill:#fff;}</style></defs><title>Asset 16xxxhdpi</title><g id="Layer_2" data-name="Layer 2"><g id="Layer_1-2" data-name="Layer 1"><path class="cls-1" d="M17.69,35.39H9A8.82,8.82,0,0,1,.13,28,7.56,7.56,0,0,1,0,26.58Q0,17.72,0,8.85A8.83,8.83,0,0,1,8.84,0H26.61a8.86,8.86,0,0,1,8.78,8.78V26.56a8.86,8.86,0,0,1-8.82,8.83ZM2.53,17.7v4.42c0,1.49,0,3,0,4.46a6.28,6.28,0,0,0,6.25,6.28c5.93,0,11.87,0,17.8,0a6.27,6.27,0,0,0,6.28-6.28q0-8.91,0-17.81a6.26,6.26,0,0,0-6.24-6.23q-8.93,0-17.85,0a6.31,6.31,0,0,0-2,.33,6.22,6.22,0,0,0-4.27,6Z"/><path class="cls-1" d="M8.85,17.67a8.85,8.85,0,1,1,8.73,8.88A8.87,8.87,0,0,1,8.85,17.67Zm2.53,0a6.32,6.32,0,1,0,6.32-6.32A6.32,6.32,0,0,0,11.38,17.7Z"/><path class="cls-1" d="M27.79,10.12a2.53,2.53,0,1,1,2.54-2.53A2.56,2.56,0,0,1,27.79,10.12Z"/></g></g></svg>