<svg xmlns="http://www.w3.org/2000/svg" viewBox="0 0 39.48 39.68"><defs><style>.cls-1{fill:#fff;}</style></defs><title>Asset 17xxxhdpi</title><g id="Layer_2" data-name="Layer 2"><g id="Layer_1-2" data-name="Layer 1"><path class="cls-1" d="M22.35,39.66H14.27V13.49H22v3.58c3.05-4.22,6.93-4.87,11.16-4a7.28,7.28,0,0,1,6.16,7.1c.32,6.43.09,12.89.09,19.48H31.59c0-3.84,0-7.59,0-11.34A39.43,39.43,0,0,0,31.49,24c-.26-2.48-1.54-3.8-3.64-4-2.59-.24-4.46.91-5.07,3.38a18.84,18.84,0,0,0-.41,4.32C22.32,31.59,22.35,35.54,22.35,39.66Z"/><path class="cls-1" d="M8.86,39.68H.94V13.48H8.86Z"/><path class="cls-1" d="M9.47,4.83A4.58,4.58,0,0,1,4.64,9.46,4.71,4.71,0,0,1,0,4.8,4.83,4.83,0,0,1,4.78,0,4.73,4.73,0,0,1,9.47,4.83Z"/></g></g></svg>