<svg xmlns="http://www.w3.org/2000/svg" viewBox="0 0 45.97 61.15"><defs><style>.cls-1{fill:#fff;}</style></defs><title>Asset 12xxxhdpi</title><g id="Layer_2" data-name="Layer 2"><g id="Layer_1-2" data-name="Layer 1"><path class="cls-1" d="M.16,22.31a22.93,22.93,0,0,1,45.39-3.93A23.85,23.85,0,0,1,44,32.19a71.68,71.68,0,0,1-8.54,15,133.32,133.32,0,0,1-10.66,13c-1.13,1.22-2.23,1.23-3.34,0A119.34,119.34,0,0,1,6,39.93,42.84,42.84,0,0,1,.72,27.39C.35,25.73.23,24,0,22.33ZM23.09,56.48a3.26,3.26,0,0,1,.26-.37,130.06,130.06,0,0,0,10.94-14,60.1,60.1,0,0,0,6.23-11.51c1.44-3.69,2.18-7.48,1.27-11.4C40,11.62,35.46,6.53,28,4.54s-14.13.1-19.31,5.94A17.83,17.83,0,0,0,4.33,26.15,31.66,31.66,0,0,0,7.8,35.29,96.2,96.2,0,0,0,18.55,51.08C20,52.86,21.51,54.6,23.09,56.48Z"/><path class="cls-1" d="M36.44,23A13.36,13.36,0,1,1,23.07,9.57,13.35,13.35,0,0,1,36.44,23Zm-3.82,0a9.54,9.54,0,1,0-9.49,9.55A9.56,9.56,0,0,0,32.62,22.94Z"/></g></g></svg>