<svg xmlns="http://www.w3.org/2000/svg" viewBox="0 0 41.31 33.72"><defs><style>.cls-1{fill:#fff;}</style></defs><title>Asset 18xxxhdpi</title><g id="Layer_2" data-name="Layer 2"><g id="Layer_1-2" data-name="Layer 1"><path class="cls-1" d="M12.38,26.41a8.5,8.5,0,0,1-7.74-5.82c.6,0,1.21,0,1.81,0a12.69,12.69,0,0,0,1.81-.25,8.77,8.77,0,0,1-4.8-3,8.36,8.36,0,0,1-1.87-5.42,8.67,8.67,0,0,0,3.7,1C1.56,9.76.71,6,2.75,1.53a24.35,24.35,0,0,0,17.56,8.93c-.06-.55-.12-1.06-.15-1.57A8.49,8.49,0,0,1,30.06.13a8.36,8.36,0,0,1,4.51,2.3.61.61,0,0,0,.67.17A17.24,17.24,0,0,0,39.8.87l.43-.22a8.82,8.82,0,0,1-3.5,4.6,17.77,17.77,0,0,0,4.58-1.14,10.07,10.07,0,0,1-.93,1.22c-1,1-1.94,1.9-2.94,2.83a.74.74,0,0,0-.28.62,24.65,24.65,0,0,1-7.75,18.61,22.26,22.26,0,0,1-11.8,5.92,24.76,24.76,0,0,1-13-1.1A24,24,0,0,1,.19,30.06L0,29.91A17,17,0,0,0,12.38,26.41Z"/></g></g></svg>