<svg width="114" height="20" viewBox="0 0 114 20" fill="none" xmlns="http://www.w3.org/2000/svg">
<path d="M11.5265 1.40777L13.2561 4.86702C13.492 5.34856 14.1209 5.81045 14.6516 5.89889L17.7865 6.41974C19.7913 6.75388 20.263 8.20833 18.8184 9.64313L16.3812 12.0803C15.9685 12.4931 15.7424 13.2891 15.8702 13.8591L16.5679 16.8761C17.1183 19.2641 15.8505 20.1879 13.7376 18.9398L10.7993 17.2004C10.2686 16.8859 9.39394 16.8859 8.85343 17.2004L5.91504 18.9398C3.81198 20.1879 2.53442 19.2543 3.08475 16.8761L3.7825 13.8591C3.91025 13.2891 3.68422 12.4931 3.27147 12.0803L0.834279 9.64313C-0.60052 8.20833 -0.138632 6.75388 1.86616 6.41974L5.00109 5.89889C5.52195 5.81045 6.1509 5.34856 6.38676 4.86702L8.11638 1.40777C9.05981 -0.469258 10.5929 -0.469258 11.5265 1.40777Z" fill="#FFA237"/>
<path d="M35.1122 1.40777L36.8418 4.86702C37.0777 5.34856 37.7066 5.81045 38.2373 5.89889L41.3722 6.41974C43.377 6.75388 43.8487 8.20833 42.4041 9.64313L39.9669 12.0803C39.5542 12.4931 39.3281 13.2891 39.4559 13.8591L40.1536 16.8761C40.704 19.2641 39.4362 20.1879 37.3234 18.9398L34.385 17.2004C33.8543 16.8859 32.9796 16.8859 32.4391 17.2004L29.5008 18.9398C27.3977 20.1879 26.1201 19.2543 26.6705 16.8761L27.3682 13.8591C27.496 13.2891 27.2699 12.4931 26.8572 12.0803L24.42 9.64313C22.9852 8.20833 23.4471 6.75388 25.4519 6.41974L28.5868 5.89889C29.1077 5.81045 29.7366 5.34856 29.9725 4.86702L31.7021 1.40777C32.6455 -0.469258 34.1786 -0.469258 35.1122 1.40777Z" fill="#FFA237"/>
<path d="M58.6979 1.40777L60.4275 4.86702C60.6634 5.34856 61.2923 5.81045 61.823 5.89889L64.958 6.41974C66.9627 6.75388 67.4345 8.20833 65.9898 9.64313L63.5526 12.0803C63.1399 12.4931 62.9139 13.2891 63.0416 13.8591L63.7394 16.8761C64.2897 19.2641 63.022 20.1879 60.9091 18.9398L57.9707 17.2004C57.44 16.8859 56.5654 16.8859 56.0249 17.2004L53.0865 18.9398C50.9834 20.1879 49.7058 19.2543 50.2562 16.8761L50.9539 13.8591C51.0817 13.2891 50.8556 12.4931 50.4429 12.0803L48.0057 9.64313C46.5709 8.20833 47.0328 6.75388 49.0376 6.41974L52.1725 5.89889C52.6934 5.81045 53.3223 5.34856 53.5582 4.86702L55.2878 1.40777C56.2312 -0.469258 57.7643 -0.469258 58.6979 1.40777Z" fill="#FFA237"/>
<path d="M82.2837 1.40777L84.0133 4.86702C84.2492 5.34856 84.8781 5.81045 85.4088 5.89889L88.5437 6.41974C90.5485 6.75388 91.0202 8.20833 89.5756 9.64313L87.1384 12.0803C86.7257 12.4931 86.4996 13.2891 86.6274 13.8591L87.3251 16.8761C87.8755 19.2641 86.6077 20.1879 84.4948 18.9398L81.5564 17.2004C81.0258 16.8859 80.1511 16.8859 79.6106 17.2004L76.6722 18.9398C74.5692 20.1879 73.2916 19.2543 73.8419 16.8761L74.5397 13.8591C74.6674 13.2891 74.4414 12.4931 74.0287 12.0803L71.5915 9.64313C70.1567 8.20833 70.6186 6.75388 72.6233 6.41974L75.7583 5.89889C76.2791 5.81045 76.9081 5.34856 77.1439 4.86702L78.8736 1.40777C79.817 -0.469258 81.3501 -0.469258 82.2837 1.40777Z" fill="#FFA237"/>
<path d="M105.869 1.40777L107.599 4.86702C107.835 5.34856 108.464 5.81045 108.994 5.89889L112.129 6.41974C114.134 6.75388 114.606 8.20833 113.161 9.64313L110.724 12.0803C110.311 12.4931 110.085 13.2891 110.213 13.8591L110.911 16.8761C111.461 19.2641 110.193 20.1879 108.08 18.9398L105.142 17.2004C104.611 16.8859 103.737 16.8859 103.196 17.2004L100.258 18.9398C98.1548 20.1879 96.8772 19.2543 97.4275 16.8761L98.1253 13.8591C98.253 13.2891 98.027 12.4931 97.6143 12.0803L95.1771 9.64313C93.7423 8.20833 94.2042 6.75388 96.2089 6.41974L99.3439 5.89889C99.8647 5.81045 100.494 5.34856 100.73 4.86702L102.459 1.40777C103.403 -0.469258 104.936 -0.469258 105.869 1.40777Z" fill="#FFA237"/>
</svg>
