<svg xmlns="http://www.w3.org/2000/svg" width="70" height="44.632" viewBox="0 0 70 44.632">
  <g id="Group_19460" data-name="Group 19460" transform="translate(-1466 -1370.139)">
    <ellipse id="Ellipse_1378" data-name="Ellipse 1378" cx="35" cy="4.5" rx="35" ry="4.5" transform="translate(1466 1405.771)" fill="#f5f5f5"/>
    <g id="Group_19457" data-name="Group 19457" transform="translate(12.644 117.927)">
      <g id="XMLID_1497_" transform="translate(1475.538 1258.199)">
        <g id="XMLID_1687_" transform="translate(0 0)">
          <path id="XMLID_898_" d="M13.965,25.673H11.708a1.5,1.5,0,0,1-.376-2.961v-.624a.3.3,0,0,0-.246-.294,9.036,9.036,0,0,1-3.343-1.385.3.3,0,0,0-.384.032l-.445.445a1.5,1.5,0,0,1-2.356,1.824l-1.6-1.6a1.5,1.5,0,0,1,1.828-2.36l.441-.441a.3.3,0,0,0,.032-.384,9.036,9.036,0,0,1-1.385-3.343.3.3,0,0,0-.294-.247H2.962A1.506,1.506,0,0,1,1.45,15.468,1.511,1.511,0,0,1,0,13.941V11.708a1.5,1.5,0,0,1,1.555-1.5,1.523,1.523,0,0,1,1.4,1.127h.63a.3.3,0,0,0,.294-.247A9.036,9.036,0,0,1,5.264,7.743a.3.3,0,0,0-.032-.384L4.79,6.917a1.5,1.5,0,0,1-1.828-2.36l1.6-1.6A1.5,1.5,0,0,1,6.917,4.79l.441.441a.3.3,0,0,0,.384.032,9.036,9.036,0,0,1,3.343-1.385.3.3,0,0,0,.247-.294V2.961A1.5,1.5,0,0,1,11.708,0h2.256a1.5,1.5,0,0,1,.376,2.961v.624a.3.3,0,0,0,.246.294A9.036,9.036,0,0,1,17.93,5.264a.3.3,0,0,0,.384-.032l.441-.441a1.5,1.5,0,0,1,2.36-1.828l1.6,1.6a1.5,1.5,0,0,1-1.828,2.36l-.441.441a.3.3,0,0,0-.032.384,9.036,9.036,0,0,1,1.385,3.343.3.3,0,0,0,.294.247h.629a1.519,1.519,0,0,1,1.316-1.122h0a1.5,1.5,0,0,1,1.639,1.5v2.256a1.5,1.5,0,0,1-2.956.376h-.629a.3.3,0,0,0-.294.246,9.036,9.036,0,0,1-1.385,3.343.3.3,0,0,0,.032.384l.441.441a1.5,1.5,0,0,1,1.828,2.36l-1.6,1.6a1.5,1.5,0,0,1-2.356-1.824l-.445-.445a.3.3,0,0,0-.384-.032,9.036,9.036,0,0,1-3.343,1.385.3.3,0,0,0-.247.294v.624a1.5,1.5,0,0,1-.376,2.961Zm-6.4-6.319a1.311,1.311,0,0,1,.734.224,8.038,8.038,0,0,0,2.974,1.232,1.307,1.307,0,0,1,1.058,1.278v.953a.627.627,0,0,1-.627.627.5.5,0,0,0,0,1h2.256a.5.5,0,0,0,0-1,.627.627,0,0,1-.627-.627v-.953A1.307,1.307,0,0,1,14.4,20.809a8.039,8.039,0,0,0,2.974-1.232,1.308,1.308,0,0,1,1.654.155l.69.69a.6.6,0,0,1,0,.854.516.516,0,0,0-.048.69.5.5,0,0,0,.741.035l1.6-1.6a.5.5,0,1,0-.709-.709l-.016.016a.6.6,0,0,1-.854,0l-.69-.69a1.309,1.309,0,0,1-.155-1.654A8.038,8.038,0,0,0,20.809,14.4a1.307,1.307,0,0,1,1.278-1.058h.975a.6.6,0,0,1,.6.6.516.516,0,0,0,.454.522.5.5,0,0,0,.548-.5V11.708a.5.5,0,0,0-.548-.5.516.516,0,0,0-.454.522.6.6,0,0,1-.6.6h-.975a1.307,1.307,0,0,1-1.278-1.058A8.039,8.039,0,0,0,19.578,8.3a1.308,1.308,0,0,1,.155-1.654l.674-.674a.628.628,0,0,1,.886,0A.5.5,0,0,0,22,5.267l-1.6-1.6a.5.5,0,0,0-.709.709.628.628,0,0,1,0,.886l-.674.674A1.309,1.309,0,0,1,17.37,6.1,8.038,8.038,0,0,0,14.4,4.864a1.307,1.307,0,0,1-1.058-1.279V2.632a.627.627,0,0,1,.627-.627.5.5,0,0,0,0-1H11.708a.5.5,0,0,0,0,1,.627.627,0,0,1,.627.627v.953a1.307,1.307,0,0,1-1.058,1.278A8.039,8.039,0,0,0,8.3,6.1,1.308,1.308,0,0,1,6.649,5.94l-.674-.674a.627.627,0,0,1,0-.887.5.5,0,0,0-.709-.709l-1.6,1.6a.5.5,0,0,0,.709.709.628.628,0,0,1,.886,0l.674.674A1.309,1.309,0,0,1,6.1,8.3a8.039,8.039,0,0,0-1.232,2.974,1.307,1.307,0,0,1-1.278,1.058H2.606a.6.6,0,0,1-.6-.6.519.519,0,0,0-.484-.527.5.5,0,0,0-.519.5v2.232a.518.518,0,0,0,.483.525.5.5,0,0,0,.52-.5.627.627,0,0,1,.627-.627h.953A1.307,1.307,0,0,1,4.863,14.4,8.039,8.039,0,0,0,6.1,17.37a1.308,1.308,0,0,1-.155,1.654l-.69.69a.6.6,0,0,1-.854,0L4.38,19.7a.5.5,0,0,0-.709.709l1.6,1.6a.5.5,0,0,0,.741-.035.516.516,0,0,0-.048-.69.6.6,0,0,1,0-.854l.69-.69a1.3,1.3,0,0,1,.92-.379Z" transform="translate(0 0)" fill="#e21f26"/>
        </g>
        <g id="XMLID_1654_" transform="translate(8.794 6.512)">
          <path id="XMLID_895_" d="M177.48,134.09a2.106,2.106,0,1,1,2.106-2.106A2.108,2.108,0,0,1,177.48,134.09Zm0-3.209a1.1,1.1,0,1,0,1.1,1.1A1.1,1.1,0,0,0,177.48,130.881Z" transform="translate(-175.374 -129.878)" fill="#e21f26"/>
        </g>
        <g id="XMLID_1656_" transform="translate(7.655 14.197)">
          <path id="XMLID_892_" d="M154.489,286.782a1.822,1.822,0,1,1,1.822-1.822A1.824,1.824,0,0,1,154.489,286.782Zm0-2.641a.819.819,0,1,0,.819.819A.82.82,0,0,0,154.489,284.141Z" transform="translate(-152.667 -283.138)" fill="#e21f26"/>
        </g>
        <g id="XMLID_1104_" transform="translate(13.259 11.164)">
          <path id="XMLID_891_" d="M267.5,228.83a3.1,3.1,0,0,1-3.076-2.734.5.5,0,1,1,1-.116,2.094,2.094,0,1,0,2.312-2.327.5.5,0,0,1,.11-1,3.1,3.1,0,0,1-.343,6.175Z" transform="translate(-264.426 -222.653)" fill="#e21f26"/>
        </g>
        <g id="XMLID_1101_" transform="translate(15.193 8.117)">
          <path id="XMLID_890_" d="M303.5,162.883a.5.5,0,1,1,.354-.147A.505.505,0,0,1,303.5,162.883Z" transform="translate(-303 -161.88)" fill="#e21f26"/>
        </g>
        <g id="XMLID_1094_" transform="translate(12.335 18.302)">
          <path id="XMLID_889_" d="M246.5,366a.5.5,0,1,1,.354-.147A.505.505,0,0,1,246.5,366Z" transform="translate(-246 -365)" fill="#e21f26"/>
        </g>
        <g id="XMLID_1660_" transform="translate(6.703 12.341)">
          <path id="XMLID_888_" d="M134.171,247.133a.5.5,0,1,1,.354-.147A.5.5,0,0,1,134.171,247.133Z" transform="translate(-133.67 -246.13)" fill="#e21f26"/>
        </g>
        <g id="XMLID_1493_" transform="translate(13.996 11.915)">
          <path id="XMLID_887_" d="M279.621,238.623a.5.5,0,1,1,.354-.147A.505.505,0,0,1,279.621,238.623Z" transform="translate(-279.12 -237.62)" fill="#e21f26"/>
        </g>
      </g>
      <g id="Group_19455" data-name="Group 19455" transform="translate(1471 1253)">
        <g id="Group_16198" data-name="Group 16198">
          <path id="Path_24932" data-name="Path 24932" d="M329.418,214.879l-14.2-4.6-14.066,4.542c-1.8.766-3.371,1.224-3.371,2.734v7.518a26.378,26.378,0,0,0,4.633,14.963,28.053,28.053,0,0,0,12.941,10.317c5.749-1.686,10.041-6.18,12.665-10.024a26.378,26.378,0,0,0,4.633-14.963V218.6C332.651,216.449,331.386,215.4,329.418,214.879Z" transform="translate(-297.778 -210.275)" fill="none" stroke="#da3c4a" stroke-width="1.5"/>
        </g>
      </g>
    </g>
  </g>
</svg>
