<svg width="114" height="38" viewBox="0 0 114 38" fill="none" xmlns="http://www.w3.org/2000/svg">
<path d="M10.0838 37.8724C7.40083 37.8724 4.98379 37.3164 2.8326 36.2046C2.34918 35.9629 2.05914 35.6245 1.96246 35.1894C1.86577 34.7544 3.96861 31.8055 5.00795 32.3615C5.73307 32.724 6.48235 33.008 7.25582 33.2135C8.02928 33.4189 8.80273 33.5217 9.57619 33.5217C10.5672 33.5217 11.4917 33.3283 12.3498 32.9416C13.2078 32.5548 13.8604 31.9324 14.3076 31.0744C14.7547 30.2163 14.9783 29.2314 14.9783 28.1195V26.7418C14.6641 27.2252 14.229 27.7086 13.6731 28.192C13.1172 28.6754 12.4223 29.0561 11.5884 29.3341C10.7545 29.6121 9.87833 29.751 8.95984 29.751C7.70297 29.751 6.51862 29.4972 5.40677 28.9897C4.29491 28.4821 3.34018 27.7811 2.54255 26.8868C1.74492 25.9925 1.12857 24.9532 0.6935 23.7688C0.258427 22.5844 0.0408936 21.3397 0.0408936 20.0345C0.0408936 18.7292 0.258427 17.4845 0.6935 16.3001C1.12857 15.1157 1.74492 14.0764 2.54255 13.1821C3.34018 12.2878 4.29491 11.5868 5.40677 11.0792C6.51862 10.5717 7.70297 10.3179 8.95984 10.3179C10.1926 10.3179 11.3286 10.5717 12.3679 11.0792C13.4072 11.5868 14.3257 12.324 14.9783 13.3392L14.923 11.3377C14.9138 11.0041 15.1767 10.7261 15.5103 10.7169C15.5159 10.7168 15.5214 10.7167 15.527 10.7167H18.5489C19.5476 10.7167 20.3581 11.5244 20.3617 12.523L20.4167 27.9745C20.4167 30.1015 20.0119 31.8841 19.2021 33.3222C18.3924 34.7604 17.2262 35.8783 15.7034 36.6759C14.1807 37.4736 12.3075 37.8724 10.0838 37.8724ZM10.2288 25.3278C10.7364 25.3278 11.2681 25.2372 11.8241 25.0559C12.38 24.8746 12.9117 24.5423 13.4193 24.0589C13.9269 23.5754 14.3197 22.9591 14.5976 22.2098C14.8756 21.4605 15.0146 20.7354 15.0146 20.0345C15.0146 19.3335 14.8756 18.6084 14.5976 17.8591C14.3197 17.1098 13.9269 16.4935 13.4193 16.01C12.9117 15.5266 12.38 15.1943 11.8241 15.013C11.2681 14.8317 10.7364 14.7411 10.2288 14.7411C9.72122 14.7411 9.19551 14.8317 8.65167 15.013C8.10783 15.1943 7.58212 15.5327 7.07454 16.0282C6.56695 16.5237 6.18627 17.1461 5.93248 17.8954C5.67868 18.6446 5.55179 19.3577 5.55179 20.0345C5.55179 21.098 5.79954 22.0769 6.29504 22.9712C6.79054 23.8655 7.39479 24.4818 8.10783 24.8202C8.82087 25.1586 9.52785 25.3278 10.2288 25.3278Z" fill="#28BE35"/>
<path fill-rule="evenodd" clip-rule="evenodd" d="M24.4595 27.086V11.4718C24.4595 11.138 24.73 10.8675 25.0637 10.8675H27.5377C28.4487 10.8675 29.2182 11.5436 29.3354 12.447L29.4809 13.5686C29.4809 11.5074 31.4376 10.4263 35.3509 10.3254V10.3254C35.6845 10.3168 35.9619 10.5803 35.9705 10.9139C35.9707 10.9191 35.9707 10.9243 35.9707 10.9295V13.7447C35.9707 14.6266 35.3361 15.3805 34.4672 15.5309L33.7954 15.6472C33.2878 15.6472 32.8104 15.7318 32.3633 15.901C31.9161 16.0702 31.4992 16.3361 31.1124 16.6986C30.7257 17.0612 30.3813 17.6473 30.0791 18.4571C29.777 19.2668 29.6259 20.3605 29.6259 21.7382V28.2945C29.6259 28.6282 29.3554 28.8988 29.0217 28.8988H26.2723C25.2711 28.8988 24.4595 28.0871 24.4595 27.086Z" fill="#28BE35"/>
<path d="M48.5275 29.751C47.1014 29.751 45.7539 29.5033 44.485 29.0078C43.216 28.5123 42.1102 27.8174 41.1676 26.9231C40.2249 26.0288 39.4938 24.9834 38.9741 23.7869C38.4544 22.5905 38.1946 21.3397 38.1946 20.0345C38.1946 19.406 38.2792 18.6869 38.4484 17.8772C38.6176 17.0675 38.9378 16.2457 39.4092 15.4118C39.8805 14.5779 40.527 13.7743 41.3488 13.0008C42.1706 12.2273 43.216 11.5868 44.485 11.0792C45.7539 10.5717 47.1014 10.3179 48.5275 10.3179C49.591 10.3179 50.6243 10.4629 51.6274 10.7529C52.6305 11.043 53.5489 11.4539 54.3828 11.9856C55.2167 12.5174 55.9962 13.2063 56.7213 14.0522C57.4465 14.8982 57.9842 15.865 58.3347 16.9527C58.6852 18.0404 58.8604 19.0676 58.8604 20.0345C58.8604 20.6629 58.7758 21.382 58.6066 22.1917C58.4374 23.0014 58.1172 23.8232 57.6459 24.6571C57.1745 25.491 56.528 26.2946 55.7062 27.0681C54.8844 27.8416 53.839 28.4821 52.57 28.9897C51.3011 29.4972 49.9536 29.751 48.5275 29.751ZM48.5275 25.491C50.025 25.491 51.3058 24.963 52.3698 23.9072C53.4339 22.8513 53.9659 21.5728 53.9659 20.0717C53.9659 18.5451 53.4339 17.2539 52.3698 16.198C51.3058 15.1421 50.025 14.6142 48.5275 14.6142C47.0037 14.6142 45.7164 15.1421 44.6655 16.198C43.6146 17.2539 43.0891 18.5451 43.0891 20.0717C43.0891 21.5728 43.6146 22.8513 44.6655 23.9072C45.7164 24.963 47.0037 25.491 48.5275 25.491Z" fill="#28BE35"/>
<path d="M61.842 27.0953L61.7634 11.4751C61.7618 11.1413 62.0309 10.8694 62.3647 10.8678C62.3657 10.8678 62.3667 10.8678 62.3677 10.8678H65.2047C66.2059 10.8678 67.0175 11.6794 67.0175 12.6805V13.3875C67.0175 10.8176 70.8969 10.3179 72.0571 10.3179C72.8789 10.3179 73.6644 10.4629 74.4137 10.7529C75.163 11.043 75.7914 11.4478 76.299 11.9675C76.8066 12.4872 77.1933 13.0129 77.4592 13.5446C77.8943 12.8679 78.4079 12.2697 79.0001 11.75C79.5923 11.2303 80.263 10.8617 81.0123 10.6442C81.7616 10.4266 82.5713 10.3179 83.4414 10.3179C84.8675 10.3179 86.0821 10.6563 87.0851 11.333C88.0882 12.0098 88.8738 12.9706 89.4418 14.2154C90.0098 15.4602 90.2938 16.9406 90.2938 18.6567L90.3734 28.2898C90.3761 28.6235 90.1078 28.8962 89.7741 28.899C89.7724 28.899 89.7708 28.899 89.7691 28.899H86.8597C85.8905 28.899 85.0927 28.1366 85.0488 27.1684L84.6741 18.9105C84.6741 17.6295 84.4324 16.6385 83.949 15.9375C83.4656 15.2366 82.813 14.8861 81.9912 14.8861C81.3627 14.8861 80.8008 15.0795 80.3053 15.4662C79.8098 15.8529 79.417 16.3847 79.127 17.0615C78.8369 17.7383 78.6798 18.5721 78.6556 19.5631V28.2948C78.6556 28.6285 78.3851 28.899 78.0514 28.899H75.2216C74.2524 28.899 73.4546 28.1366 73.4107 27.1684L73.036 18.9105C73.036 17.6295 72.8003 16.6385 72.329 15.9375C71.8577 15.2366 71.2111 14.8861 70.3893 14.8861C69.7367 14.8861 69.1506 15.0916 68.6309 15.5025C68.1112 15.9134 67.7124 16.4693 67.4344 17.1702C67.1565 17.8712 67.0175 18.7292 67.0175 19.7444V28.2948C67.0175 28.6285 66.747 28.899 66.4132 28.899H63.6547C62.6571 28.899 61.847 28.093 61.842 27.0953Z" fill="#5377D7"/>
<path d="M96.3673 12.9395C96.5773 12.7543 96.8976 12.7988 97.065 13.0231L98.8323 15.3919C98.884 15.4611 98.8759 15.5575 98.815 15.6187C97.5787 16.8608 96.9605 18.3798 96.9605 20.1757C96.9605 21.9417 97.5787 23.4457 98.815 24.6878C100.051 25.93 101.566 26.5511 103.358 26.5511C105.12 26.5511 106.627 25.93 107.879 24.6878C109.13 23.4457 109.756 21.9417 109.756 20.1757C109.756 18.3798 109.13 16.8608 107.879 15.6187C107.39 15.1342 106.863 14.7443 106.298 14.4488C106.081 14.3354 105.959 14.0915 106.019 13.854L106.634 11.4196C106.704 11.1417 106.993 10.9785 107.263 11.0761C107.999 11.3426 108.686 11.6792 109.324 12.086C110.164 12.6222 110.95 13.3168 111.682 14.1698C112.413 15.0229 112.955 15.9978 113.308 17.0945C113.662 18.1913 113.839 19.2271 113.839 20.202C113.839 20.8357 113.753 21.5608 113.583 22.3773C113.412 23.1937 113.089 24.0224 112.614 24.8633C112.139 25.7041 111.487 26.5145 110.658 27.2944C109.829 28.0743 108.775 28.7202 107.496 29.232C106.216 29.7439 104.857 29.9998 103.419 29.9998C101.981 29.9998 100.623 29.75 99.343 29.2503C98.0634 28.7507 96.9484 28.05 95.9978 27.1482C95.0473 26.2464 94.31 25.1923 93.786 23.9859C93.262 22.7794 93 21.5181 93 20.202C93 19.5683 93.0853 18.8433 93.2559 18.0268C93.4265 17.2103 93.7495 16.3816 94.2247 15.5408C94.7 14.6999 95.3519 13.8895 96.1806 13.1096C96.2416 13.0522 96.3039 12.9955 96.3673 12.9395Z" fill="#5377D7"/>
<path d="M101.108 18.8317H103.602C103.551 18.437 103.407 18.1277 103.159 17.893C102.85 17.6156 102.428 17.477 101.892 17.477H100.944L101.119 16.9436H105.808L105.633 17.477H103.778C104.169 17.8183 104.396 18.2663 104.447 18.8317H105.787L105.612 19.3651H104.437C104.386 19.7918 104.21 20.1438 103.922 20.4211C103.571 20.7518 103.128 20.9652 102.572 21.0612C102.695 21.1465 102.871 21.3492 103.118 21.6905L105.262 24.56H104.118L102.263 21.9785C102.067 21.7012 101.881 21.5092 101.716 21.3918C101.51 21.2532 101.273 21.1785 101.005 21.1785V20.5705H101.562C102.242 20.5705 102.757 20.4318 103.108 20.1651C103.376 19.9624 103.53 19.6958 103.592 19.3651H100.933L101.108 18.8317Z" fill="#28BE35"/>
<path fill-rule="evenodd" clip-rule="evenodd" d="M100.993 18.6723H103.412C103.349 18.3961 103.229 18.18 103.051 18.0106C102.779 17.7674 102.399 17.6369 101.892 17.6369H100.723L101.003 16.7842H106.028L105.748 17.6369H104.152C104.384 17.9273 104.531 18.2725 104.589 18.6723H106.008L105.728 19.525H104.574C104.499 19.925 104.316 20.2639 104.033 20.5365L104.031 20.5375C103.722 20.8294 103.347 21.0338 102.9 21.1532C103.001 21.2679 103.116 21.416 103.247 21.5961L105.58 24.7199H104.036L102.132 22.0709C101.944 21.8037 101.771 21.6271 101.626 21.5234C101.446 21.4033 101.241 21.3384 101.005 21.3384H100.846V20.411H101.562C102.224 20.411 102.699 20.2756 103.011 20.0383L103.011 20.038C103.193 19.9009 103.314 19.7316 103.386 19.525H100.713L100.993 18.6723ZM103.592 19.3653C103.582 19.4203 103.569 19.4735 103.553 19.525C103.476 19.7829 103.331 19.9964 103.108 20.1653C102.757 20.432 102.242 20.5707 101.562 20.5707H101.005V21.1787C101.273 21.1787 101.51 21.2534 101.716 21.3921C101.881 21.5094 102.067 21.7014 102.263 21.9788L104.118 24.5603H105.262L103.118 21.6908C102.957 21.4691 102.827 21.3059 102.722 21.1953C102.665 21.1357 102.615 21.0913 102.572 21.0614C102.64 21.0496 102.707 21.036 102.772 21.0206C103.236 20.911 103.615 20.7113 103.922 20.4214C104.21 20.144 104.386 19.792 104.437 19.3653H105.612L105.787 18.8319H104.447C104.404 18.3508 104.233 17.9546 103.942 17.6369C103.891 17.5812 103.836 17.528 103.778 17.4772H105.633L105.808 16.9438H101.119L100.944 17.4772H101.892C102.428 17.4772 102.85 17.6159 103.159 17.8932C103.372 18.0953 103.509 18.3527 103.576 18.6723C103.586 18.7239 103.595 18.7771 103.602 18.8319H101.108L100.933 19.3653H103.592Z" fill="#28BE35"/>
<path d="M102.418 8.96972C101.739 8.93885 101.954 8.93885 101.697 8.46088C104.435 4.38275 105.053 3.31906 106.166 2.17209C104.768 3.16326 103.156 4.66503 101.168 7.5663C99.3745 2.88728 104.677 0.601668 108.107 0C107.813 2.71223 108.719 9.72066 102.418 8.96972Z" fill="#28BE35"/>
<path d="M103.568 16.9781L103.18 17.6789C103.105 17.6429 102.986 17.5761 102.835 17.4768C102.59 17.3148 102.342 17.1169 102.105 16.8811C100.488 15.2714 99.9379 11.1049 101.956 8.06454L102.662 8.47546C99.4277 13.1987 103.526 16.9576 103.568 16.9781Z" fill="#28BE35"/>
</svg>
