<svg xmlns="http://www.w3.org/2000/svg" viewBox="0 0 79.23 80.5"><defs><style>.cls-1{fill:#58585b;}</style></defs><g id="Layer_2" data-name="Layer 2"><g id="Layer_1-2" data-name="Layer 1"><path class="cls-1" d="M33.93,28.2a1.39,1.39,0,0,1-1.39,1.39H1.39A1.39,1.39,0,0,1,0,28.2H0a1.39,1.39,0,0,1,1.39-1.39H32.54a1.39,1.39,0,0,1,1.39,1.39Z"/><path class="cls-1" d="M37.43,37.7A1.39,1.39,0,0,1,36,39.09H4.89A1.39,1.39,0,0,1,3.5,37.7h0a1.39,1.39,0,0,1,1.39-1.39H36a1.39,1.39,0,0,1,1.39,1.39Z"/><path class="cls-1" d="M69.62,29.8V20.2H55v9.6H45.39V44.43H55V54H69.62V44.43h9.61V29.8ZM76.82,42H67.21v9.61h-9.8V42H47.8V32.21h9.61v-9.6h9.8v9.6h9.61Z"/><path class="cls-1" d="M64.94,73.54a4.55,4.55,0,0,1-4.55,4.56H25.87a4.55,4.55,0,0,1-4.55-4.56V42H18.91v31.5a7,7,0,0,0,7,7H60.39a7,7,0,0,0,7-7v-14H64.94Z"/><polygon class="cls-1" points="59.38 16.04 59.38 8.04 26.88 8.04 26.88 24.04 29.29 24.04 29.29 10.45 56.97 10.45 56.97 16.04 59.38 16.04"/><path class="cls-1" d="M60.39,0H25.87a7,7,0,0,0-7,7V24h2.41V7a4.55,4.55,0,0,1,4.55-4.55H60.39A4.55,4.55,0,0,1,64.94,7V16h2.41V7A7,7,0,0,0,60.39,0Z"/><polygon class="cls-1" points="59.38 68.04 59.38 59.54 56.97 59.54 56.97 65.63 29.29 65.63 29.29 42.04 26.88 42.04 26.88 68.04 59.38 68.04"/><rect class="cls-1" x="39.52" y="72.04" width="6.5" height="2.5"/></g></g></svg>