<svg xmlns="http://www.w3.org/2000/svg" viewBox="0 0 78.59 74.51"><defs><style>.cls-1{fill:#58585b;}</style></defs><g id="Layer_2" data-name="Layer 2"><g id="Layer_1-2" data-name="Layer 1"><path class="cls-1" d="M0,37.19C0,26.9,0,16.61,0,6.32,0,.72.76,0,6.21,0,14.8,0,23.39-.06,32,.09a6.71,6.71,0,0,1,4.1,1.66q7.65,7.33,14.94,15a6.24,6.24,0,0,1,1.6,3.85c.1,16.34.08,32.67,0,49,0,3.77-1.2,4.87-5,4.88h-42C1,74.51,0,73.65,0,69,0,58.4,0,47.79,0,37.19ZM50,21a8.47,8.47,0,0,0-1.65-.46q-4.29-.11-8.58-.12c-6.73,0-7.39-.67-7.41-7.5,0-2.44-.06-4.88,0-7.31,0-1.93-.52-2.94-2.69-2.92-8.06.08-16.11.05-24.17,0-2,0-2.81.94-2.81,2.91q0,31.63,0,63.28c0,2.17.88,3,3.06,3q20.51-.09,41,0c2.53,0,3.3-.95,3.27-3.39-.11-8.69,0-17.38,0-26.07Zm-3.32-3.61c-3.92-4-7.58-7.68-11.56-11.69,0,3.42-.14,6.57.11,9.69a3,3,0,0,0,2.18,1.91C40.46,17.53,43.52,17.39,46.69,17.39Z"/><path class="cls-1" d="M71.34,9.2h-9.5a1.39,1.39,0,0,0,0,2.78h9.5a1.39,1.39,0,0,0,0-2.78Z"/><path class="cls-1" d="M71.34,16.48h-9.5a1.39,1.39,0,0,0,0,2.78h9.5a1.39,1.39,0,0,0,0-2.78Z"/><path class="cls-1" d="M78.59,36.54V17.87a1.39,1.39,0,0,0-2.78,0V36.54a1.39,1.39,0,0,0,2.78,0Z"/><path class="cls-1" d="M77.2,16.48H67.7a1.39,1.39,0,1,0,0,2.78h9.5a1.39,1.39,0,1,0,0-2.78Z"/><path class="cls-1" d="M41.15,30.66a1.39,1.39,0,0,1-1.39,1.39H8.61a1.39,1.39,0,0,1-1.39-1.39h0a1.39,1.39,0,0,1,1.39-1.39H39.76a1.39,1.39,0,0,1,1.39,1.39Z"/><path class="cls-1" d="M41.15,38.83a1.39,1.39,0,0,1-1.39,1.39H8.61a1.39,1.39,0,0,1-1.39-1.39h0a1.39,1.39,0,0,1,1.39-1.39H39.76a1.39,1.39,0,0,1,1.39,1.39Z"/><path class="cls-1" d="M41.15,47a1.39,1.39,0,0,1-1.39,1.39H8.61A1.39,1.39,0,0,1,7.22,47h0a1.39,1.39,0,0,1,1.39-1.39H39.76A1.39,1.39,0,0,1,41.15,47Z"/><path class="cls-1" d="M28.15,55.19a1.39,1.39,0,0,1-1.39,1.39H8.61a1.39,1.39,0,0,1-1.39-1.39h0A1.39,1.39,0,0,1,8.61,53.8H26.76a1.39,1.39,0,0,1,1.39,1.39Z"/><path class="cls-1" d="M69.93,60c0,.1,0,.2,0,.29a3.36,3.36,0,1,1-6.72,0c0-.09,0-.19,0-.29H60.46c0,.1,0,.2,0,.29a6.15,6.15,0,1,0,12.29,0c0-.09,0-.19,0-.29Z"/><path class="cls-1" d="M72.72,60a.43.43,0,0,0,0-.05V10.58a1.39,1.39,0,1,0-2.78,0V60Z"/><path class="cls-1" d="M63.23,60V10.58a1.39,1.39,0,1,0-2.78,0V59.94a.07.07,0,0,0,0,.05Z"/><path class="cls-1" d="M65.2,64.83V71.1a1.39,1.39,0,0,0,2.78,0V64.83Z"/></g></g></svg>