<svg xmlns="http://www.w3.org/2000/svg" viewBox="0 0 72.71 84.61"><defs><style>.cls-1{fill:#58585b;}.cls-1,.cls-2{fill-rule:evenodd;}.cls-2{fill:#fff;}</style></defs><g id="Layer_2" data-name="Layer 2"><g id="Layer_1-2" data-name="Layer 1"><path class="cls-1" d="M9.56,22.87a7.13,7.13,0,0,1,0-14.25,7.19,7.19,0,0,1,7.16,7.11,7.12,7.12,0,0,1-7.13,7.14ZM9.48,10.6a5.15,5.15,0,1,0,5.26,5.19,5.07,5.07,0,0,0-1.5-3.64A5.15,5.15,0,0,0,9.56,10.6Z"/><path class="cls-1" d="M10.34,48.33l-3.12,15c-.14.69-.29,1.38-.44,2.06v.07c-.2.92.1,1.36,1,1.48a2.86,2.86,0,0,1,2.67,3h0a4.91,4.91,0,0,1-.53,0H7.61c-1.55,0-3.15,0-4.73,0-.31,0-.49,0-.57-.13s-.08-.28,0-.61h0c.31-1.44.61-2.87.92-4.31l.28-1.36L6.07,51.34h-2C3.83,52.58,1.4,64.21,1.14,65.46l-1,5C-.16,71.67,0,71.94,1.26,72h9.52c.72,0,1.49-.14,1.71-1.16a3.43,3.43,0,0,0,.06-.5c.14-2.59-.92-4.3-3.15-5.08-.45-.16-.55-.34-.44-.84H9c.18-.79,2.53-12,2.69-12.77l.66-3.27Z"/><path class="cls-1" d="M28,70.23a7.57,7.57,0,0,0-5.14-5,1.05,1.05,0,0,1-.89-1c-.2-1-4.26-22-4.47-23.08h-2c.1.49,4.06,20.89,4.16,21.39l.5,2.56c.29,1.44.39,1.54,1.84,1.82a5,5,0,0,1,3.76,3h-8a.41.41,0,0,1-.27-.07c-.09-.07-.11-.26-.13-.42l0-.2c-.54-2.68-3.09-15.87-3.62-18.56l0-.13-.43-2.19-2,0c.44,2.32,3.36,17.37,3.81,19.65l.49,2.48c.22,1.13.61,1.45,1.74,1.46h9.51c.67,0,1-.11,1.21-.38S28.27,70.89,28,70.23Z"/><path class="cls-1" d="M17.21,38.78c-.15-.89-.29-1.78-.43-2.67-.31-1.93-.63-3.93-1-5.9a7.33,7.33,0,0,0-2.46-4.28,7.19,7.19,0,0,0-4.65-1.71H6.25v2a2.85,2.85,0,0,1,.29,0h.18c.44,0,.88.05,1.32.05a8.67,8.67,0,0,0,1.06-.06l.34,0a4.24,4.24,0,0,1,2.71,1.09,4.93,4.93,0,0,1,1.66,2.87c.34,2,.67,4.09,1,6.13L15.26,39c.22,1.39.35,2.42.58,3.81a.06.06,0,0,1,0,0l1.84-1.18Z"/><path class="cls-1" d="M8.81,30.83c-.7,3.4-1.47,7.07-1.53,7.39-.25,1.18-.49,2.37-.74,3.55l0,.18a4.55,4.55,0,0,1-.23.73,1.4,1.4,0,0,1-1.35,1,.45.45,0,0,1-.59-.36,1.54,1.54,0,0,1,0-.65c.08-.52.2-1,.31-1.56.06-.24.11-.48.16-.72l3-14.64c.08-.36.15-.73.23-1.1l-1.76-.29c-.24,1.18-2.86,13.82-3.08,15l-.86,3.79c0,.14,0,.28,0,.41a4.06,4.06,0,0,0,.13,1A1.83,1.83,0,0,0,5,45.82,5.08,5.08,0,0,0,8.29,42c.32-1.44.62-2.91.91-4.32,0-.16.68-3.27,1.31-6.34Z"/><path class="cls-1" d="M6.11,44.12a6.43,6.43,0,0,0-2,7.22l.83.57,1.16-.57s-.76-2.23-.26-3.53a17.75,17.75,0,0,1,1.7-3l.1-2.7Z"/><path class="cls-1" d="M27.3,40.58a3.45,3.45,0,0,0-.44-.88l-.22-.35-2.81-2.67c-.67-.69-6.78-6.72-9.57-9.46L14.55,30l8.55,8.42.53.5c.38.37.77.74,1.13,1.13a1.38,1.38,0,0,1,.34.55.45.45,0,0,1-.29.63,1.39,1.39,0,0,1-1.66-.07,4.17,4.17,0,0,1-.6-.48l-.13-.13c-.87-.84-1.73-1.69-2.59-2.54L15,33.27l.46,2.93,2.45,2.41c1,1,2.09,2.07,3.16,3.09A5.08,5.08,0,0,0,26,43,1.83,1.83,0,0,0,27.3,40.58Z"/><path class="cls-1" d="M32.83,0V71H72.71V0ZM70.55,68.85H35V2.16H70.55Z"/><polygon class="cls-1" points="37.53 13.61 37.53 84.61 72.72 71.37 72.72 0.36 37.53 13.61"/><polygon class="cls-2" points="70.56 70.02 39.69 81.64 39.69 14.96 70.56 3.34 70.56 70.02"/><polygon class="cls-1" points="65.68 29.81 58.69 31.93 58.69 24.95 53.63 26.48 53.63 33.47 46.64 35.59 46.64 40.65 53.63 38.53 53.63 45.52 58.69 43.98 58.69 36.99 65.68 34.87 65.68 29.81"/></g></g></svg>