<svg xmlns="http://www.w3.org/2000/svg" viewBox="0 0 142.23 63.8"><defs><style>.cls-1,.cls-2{fill:#58585b;}.cls-1{fill-rule:evenodd;}</style></defs><g id="Layer_2" data-name="Layer 2"><g id="Layer_1-2" data-name="Layer 1"><path class="cls-1" d="M59.79,63.8l-6,0H48.93a1,1,0,1,1,0-2.08H59.29l.8-.06L59.34,61l-.67-.53a14.52,14.52,0,0,1-5.39-12.38,14.59,14.59,0,0,1,1.64-5.8.92.92,0,0,0,.06-.59l-.27-1.26c-.18-.82-.37-1.67-.49-2.5A37.74,37.74,0,0,1,54,34.19c0-.89,0-1.81,0-2.7,0-.38,0-.77,0-1.15a.29.29,0,0,0,0-.18c0-.06,0-.22,0-.63a7.66,7.66,0,0,1,.44-2l.46-1a4.62,4.62,0,0,1,.43-.66l.24-.34a1.45,1.45,0,0,0,.1-.18l.05-.11.19-.39H52.73a3.2,3.2,0,0,1-1.83-.55,3.36,3.36,0,0,1-1.61-2.94V15c0-.38,0-.75,0-1.13V12.68c0-1,0-2,0-3,0-2,0-4.07,0-6.1A3.54,3.54,0,0,1,51.85.13a3.85,3.85,0,0,1,1-.13H74.61A3.46,3.46,0,0,1,78,2.36a4.31,4.31,0,0,1,.22,1.46c0,3.54,0,7.07,0,10.61V18H90.5a3.45,3.45,0,0,1,3.36,4.62,3.46,3.46,0,0,1-2.08,2.07,4.25,4.25,0,0,1-1.37.18h-.66a.59.59,0,0,0-.67.67c0,.8,0,1.6,0,2.41,0,1.48,0,3,0,4.52A9.16,9.16,0,0,0,94.72,41a8.47,8.47,0,0,0,3.66.82,9.37,9.37,0,0,0,2.38-.31A9.2,9.2,0,0,0,107,36.28a9.34,9.34,0,0,0,.79-5.21c-.11-.88-.2-1.77-.28-2.63,0-.44-.09-.88-.13-1.31l-.27-2.6c-.15-1.41-.3-2.81-.44-4.21l-.21-2.22c-.08-.88-.16-1.76-.26-2.64,0-.55-.13-1.09-.21-1.66,0-.26-.15-1.07-.15-1.07l-.79.17-1.07.23-1.29.31c-.94.22-1.91.46-2.87.64a4,4,0,0,1-.68.06,3.49,3.49,0,0,1-2.24-.88,4.17,4.17,0,0,1-1.2-2.15A3.59,3.59,0,0,1,98.7,7l2.8-.47,2-.33.89-.13,1.36-.22a1,1,0,0,0,.59-.34,4.34,4.34,0,0,1,7.18.74,5.58,5.58,0,0,1,.55,2.08c.16,1.22.32,2.43.47,3.65l.18,1.36a1,1,0,0,0,.52.91h0l1.12.32a3.37,3.37,0,0,1,.66.25,9.79,9.79,0,0,1,4.37,4.67c.55,1.18,1.16,2.36,1.74,3.5.3.57.59,1.14.88,1.72.55,1.08,1.1,2.16,1.64,3.25l1.5,3c.61,1.21,1.22,2.42,1.84,3.62a1,1,0,0,0,.6.45,14,14,0,0,1,3.15,1.3,13.14,13.14,0,0,1,2.52,1.8l1.53,1.52a14.72,14.72,0,0,1-2.86,21.54l-.66.49h7.86a1.07,1.07,0,0,1,1.06.77,1,1,0,0,1-.46,1.14,1.76,1.76,0,0,1-.74.17H59.79Zm65.64-27.23A12.65,12.65,0,0,0,113,49.14a12.6,12.6,0,0,0,12.61,12.57h.19a12.57,12.57,0,0,0-.3-25.14ZM67.93,61.7A12.55,12.55,0,0,0,80.45,49,12.57,12.57,0,1,0,59,58a12.39,12.39,0,0,0,8.83,3.69h.11ZM83,50.62a.59.59,0,0,0-.66.53c0,.24-.11.49-.16.75a18.68,18.68,0,0,1-.57,2.23A14.19,14.19,0,0,1,77.71,60c-.32.28-.64.55-1,.82l-.48.4-.57.48h42.17l-.59-.48-.44-.35a7.05,7.05,0,0,1-.82-.68l-2.62-3-.38-.69c-.34-.62-.7-1.27-1-1.92a11.37,11.37,0,0,1-.89-3.39.56.56,0,0,0-.64-.55H83Zm27.33-2A.58.58,0,0,0,111,48a14.53,14.53,0,0,1,5.52-10.32A14,14,0,0,1,122,34.93a14.11,14.11,0,0,1,3.46-.45l.65,0,.46,0-.84-1.69-3.14-6.23-2.36-4.66-.32-.61c-.33-.66-.67-1.33-1-2a6.62,6.62,0,0,0-2.56-2.47,10,10,0,0,0-2.21-.86,8.93,8.93,0,0,0-1.51-.15h-.16c-.74,0-1.49.05-2.22.08l-1,.05h-.85s.13,1.38.16,1.66l.08.8c.16,1.65.32,3.29.49,4.93.07.69.14,1.38.22,2.06.12,1.11.25,2.26.35,3.39s.24,2.72.24,4.14a9.93,9.93,0,0,1-1.31,4.79,11.17,11.17,0,0,1-4.72,4.71,11.47,11.47,0,0,1-5.33,1.36,10.9,10.9,0,0,1-1.87-.16,11.3,11.3,0,0,1-7.26-4.3,11,11,0,0,1-2.39-6.83V31.23L87,31.07l-.06-.19H74.34l-.91,0H72.26a1,1,0,0,1-1.12-1,1,1,0,0,1,.31-.74,1.18,1.18,0,0,1,.83-.31H87l0-.33a2.53,2.53,0,0,0,0-.27v-.86c0-.59,0-1.18,0-1.77a.68.68,0,0,0-.16-.51.66.66,0,0,0-.49-.17H61.5a5.29,5.29,0,0,0-4.78,2.63l-.51,1.13v.05c0,.28-.05.56-.08.84A14.9,14.9,0,0,0,56,31.05c0,1.34,0,2.91.06,4.48,0,.84.14,1.65.24,2.51,0,.37.09.75.14,1.13l0,.45.38-.25.12-.09a.59.59,0,0,0,.18-.13,14.42,14.42,0,0,1,5.72-3.79,14.7,14.7,0,0,1,4.93-.88,14.48,14.48,0,0,1,1.85.12l1.83.34A14.71,14.71,0,0,1,82.5,48a.54.54,0,0,0,.62.57h27.25ZM78.89,20.1l-.23,0-.31,0-.24,2.7H90.49a1.4,1.4,0,0,0,1.43-1,1.42,1.42,0,0,0-.23-1.25,1.39,1.39,0,0,0-1.14-.52H78.89ZM74.5,22.84a1.51,1.51,0,0,0,1.68-1.67V15.26q0-5.76,0-11.53a1.66,1.66,0,0,0-.46-1.2,1.69,1.69,0,0,0-1.18-.46c-1.69,0-3.35,0-5,0H52.94a1.76,1.76,0,0,0-.75.14,1.52,1.52,0,0,0-.86,1.51V21.1a1.55,1.55,0,0,0,1.73,1.74H74.5ZM109.72,6.06a2.68,2.68,0,0,0-.72.11,2.24,2.24,0,0,0-1.57,2.5c.19,1.51.4,3.07.64,4.77a.61.61,0,0,0,.52.46h4.06l-.06-.63c0-.17,0-.33,0-.48l-.09-.71c-.17-1.28-.33-2.55-.51-3.82a3.18,3.18,0,0,0-.34-1.09A2.13,2.13,0,0,0,109.72,6.06Zm-5.78,2.23-1.27.2-1.15.19c-.74.13-1.51.26-2.27.36a1.72,1.72,0,0,0-1.19.67,1.43,1.43,0,0,0-.24,1.1A1.48,1.48,0,0,0,99.31,12a1.89,1.89,0,0,0,.47-.06l1.36-.31.82-.18.28-.07,2.89-.67a.55.55,0,0,0,.42-.5c0-.51-.12-1-.19-1.53l-.08-.63Z"/><path class="cls-1" d="M117.45,34.17a1,1,0,0,1-.9-.55c-.35-.82-.67-1.66-1-2.48l-.23-.59-.86-2.22-.85-2.21c-.25-.67-.51-1.33-.77-2a1,1,0,0,1,.16-.85.94.94,0,0,1,.77-.43h.06c.51,0,.84.17,1.17,1.06.4,1.08.82,2.17,1.24,3.25l1,2.5c.41,1.06.82,2.11,1.22,3.17a1,1,0,0,1-.64,1.27A.84.84,0,0,1,117.45,34.17Z"/><path class="cls-1" d="M69,56.49c-2.74.07-3.53-.28-4.82-1.07a7.22,7.22,0,0,1-3.08-3.72,7,7,0,0,1-.33-3.93A7.22,7.22,0,0,1,64,43a7.34,7.34,0,0,1,10.44,2.7,6.6,6.6,0,0,1,.72,4.75c-.08.37,0,.27-.21,1.13S72.6,56.4,69,56.49Zm-1-2.64a4.72,4.72,0,1,0-4.72-4.73A4.71,4.71,0,0,0,68,53.85Z"/><path class="cls-1" d="M119.3,52.91a7.36,7.36,0,0,1,3.16-10.4,7,7,0,0,1,4.71-.54A7.15,7.15,0,0,1,132,45.62a7,7,0,0,1,.79,4.81,7.22,7.22,0,0,1-3.4,5,7.31,7.31,0,0,1-9.6-1.77Zm2.35-1.09a4.85,4.85,0,0,0,6.7,1.17,4.76,4.76,0,0,0,1-6.8,4.68,4.68,0,0,0-6-1.2,4.87,4.87,0,0,0-2.43,4.74A4.32,4.32,0,0,0,121.65,51.82Z"/><polygon class="cls-1" points="72.26 9.96 66.14 9.96 66.14 3.84 61.72 3.84 61.72 9.96 55.6 9.96 55.6 14.38 61.72 14.38 61.72 20.5 66.14 20.5 66.14 14.38 72.26 14.38 72.26 9.96"/><path class="cls-2" d="M1.26,20.62a1.26,1.26,0,0,1,0-2.52H49.88v2.52Z"/><path class="cls-2" d="M10.36,12.86a1.26,1.26,0,0,1,0-2.52H49.88v2.52Z"/><path class="cls-2" d="M16.35,5.1a1.26,1.26,0,0,1,0-2.52H49.88V5.1Z"/><path class="cls-2" d="M19.84,28.38a1.26,1.26,0,0,1,0-2.52H55.09v2.52Z"/><path class="cls-2" d="M6.43,36.14a1.26,1.26,0,0,1,0-2.52H54.62v2.52Z"/><path class="cls-2" d="M15.1,43.9a1.26,1.26,0,0,1,0-2.52H54.62V43.9Z"/></g></g></svg>