<svg width="30" height="31" viewBox="0 0 30 31" fill="none" xmlns="http://www.w3.org/2000/svg">
<g clip-path="url(#clip0_357_20875)">
<path d="M20.8904 23.2489L20.3728 21.317C20.0982 20.2923 19.4278 19.4186 18.5091 18.8882C17.5904 18.3578 16.4985 18.214 15.4738 18.4886L8.71234 20.3003C7.68762 20.5749 6.81394 21.2453 6.28351 22.164C5.75308 23.0828 5.60934 24.1746 5.88391 25.1993L6.40155 27.1312" stroke="#111111" stroke-width="2" stroke-linecap="round" stroke-linejoin="round"/>
<path d="M11.0573 15.5308C13.1912 14.959 14.4575 12.7656 13.8857 10.6318C13.314 8.49791 11.1206 7.23158 8.98675 7.80335C6.85289 8.37512 5.58656 10.5685 6.15832 12.7023C6.73009 14.8362 8.92344 16.1025 11.0573 15.5308Z" stroke="#111111" stroke-width="2" stroke-linecap="round" stroke-linejoin="round"/>
<path d="M19.2676 13.3308L21.7171 14.745L24.5456 9.84603" stroke="#111111" stroke-width="2" stroke-linecap="round" stroke-linejoin="round"/>
</g>
<defs>
<clipPath id="clip0_357_20875">
<rect width="24" height="24" fill="white" transform="translate(0 7.10553) rotate(-15)"/>
</clipPath>
</defs>
</svg>
