<svg xmlns="http://www.w3.org/2000/svg" viewBox="0 0 75.93 81.52"><defs><style>.cls-1{fill:#58585b;fill-rule:evenodd;}</style></defs><g id="Layer_2" data-name="Layer 2"><g id="Layer_1-2" data-name="Layer 1"><path class="cls-1" d="M60,81.52H15.92c-.25,0-.91,0-.92-.77a.75.75,0,0,1,.18-.58,1,1,0,0,1,.71-.21H26.56V75.78a2.83,2.83,0,0,0-3.12-3.13H4.82A4.58,4.58,0,0,1,.11,69,5.43,5.43,0,0,1,0,67.87V10.74A4.49,4.49,0,0,1,4.66,6c2.61,0,5.22,0,7.83,0,3.32,0,6.31,0,9.15,0h0a3.14,3.14,0,0,0,1.61-.43C26.27,4,29.56,2.35,33.59.31A2.69,2.69,0,1,1,36.05,5.1c-.46.25-.91.49-1.37.72L34.29,6H71a4.55,4.55,0,0,1,4.9,4.9q0,7.43,0,14.84c0,13.7,0,27.86,0,41.79a5.1,5.1,0,0,1-1.43,3.71,5,5,0,0,1-3.61,1.41h-.08c-2.49,0-5.16-.05-8.41-.05l-6.43,0H52.34a2.78,2.78,0,0,0-3,3V76c0,.65,0,1.31,0,2a4.1,4.1,0,0,1,0,.6,2.06,2.06,0,0,0,.17,1.28c.09.1.3.15.65.15l.57,0,.57,0H60a.63.63,0,0,1,.34.08c.21.12.56.41.56.7s-.34.59-.54.72A.7.7,0,0,1,60,81.52ZM38.25,80c3,0,5.93,0,8.89,0h0c.31,0,.48,0,.56-.13a.71.71,0,0,0,.1-.52c0-.51,0-1,0-1.52s0-.94,0-1.41a5.5,5.5,0,0,1,.94-3.72H27.21c.88,1.82.9,1.9.9,3.15v2.35c0,1.78,0,1.78,1.79,1.78ZM74.36,59.4q0-19.62,0-39.25V11c0-2.28-1.17-3.45-3.47-3.45H32.3l-.38,0h-.21a1.45,1.45,0,0,0-.53.07c-1.5.74-2.71,1.36-3.8,2a.85.85,0,0,0-.4.57c-.28,2.83-.51,5.41-.69,7.89a1,1,0,0,0,.36.72c.76.55,1.54,1.09,2.3,1.61.57.38,1.13.76,1.68,1.16a4.31,4.31,0,0,1,.95.91l3.74,5,1,1.35a3.12,3.12,0,0,1,.75,2.63,3.21,3.21,0,0,1-1.92,2l-4.19,2c-1.68.82-3.35,1.65-5,2.46-.37.18-.43.32-.33.72.79,3.14,1.55,6.25,2.38,9.69a.71.71,0,0,0,.57.6,5,5,0,0,1,3.77,4.31c.09.56,0,.88-.14,1.1s-.51.32-1.09.32H24.17c-1.06,0-1.2-.11-1.45-1.12L19.41,40l-.28-1.07-.08-.29,0,0-.23.42-1.49,3Q14.42,48,11.53,53.86a1.27,1.27,0,0,1-1.25.83c-1.23,0-2.43,0-3.63,0H3.76a1.11,1.11,0,0,1-.88-.27,1.08,1.08,0,0,1-.17-.9,4.91,4.91,0,0,1,3.35-4.39A2,2,0,0,0,7.32,48q3.47-7.07,7-14.13,3-6.18,6.08-12.36a3.5,3.5,0,0,0,.32-1.17c.21-2.24.4-4.49.58-6.73l.13-1.51c.09-1,.17-2,.25-3l.12-1.47H5c-2.29,0-3.45,1.16-3.45,3.46v48.3c0,.82,0,.82.82.82H60.09a.26.26,0,0,0,.14,0c.2-.09.36-.25.37-.33,0-.37,0-.75,0-1.12s0-.48,0-.73a1.88,1.88,0,0,1,1.81-2,2.19,2.19,0,0,1,1,.25c1.86.95,3.79,2,5.74,3a1.85,1.85,0,0,1,0,3.28c-1.81,1-3.7,2-5.8,3.07a2.12,2.12,0,0,1-1,.24A1.88,1.88,0,0,1,60.62,64v-.09a8.54,8.54,0,0,1,0-1.43.74.74,0,0,0-.08-.58c-.1-.11-.31-.16-.68-.16l-31.63,0h-18l-8,0v0c-.3,0-.47,0-.55.13s-.12.25-.12.51c0,1.09,0,2.2,0,3.28,0,.81,0,1.62,0,2.43a3,3,0,0,0,2.63,3,7.46,7.46,0,0,0,1,0l.08.15V71.1H70.93c2.24,0,3.42-1.2,3.42-3.45V66c0-1.18,0-2.4,0-3.59ZM62.17,60.94v.82c0,.62,0,1.25,0,1.88s.18.66.26.66h0a1.23,1.23,0,0,0,.52-.18c1.84-1,3.49-1.83,5.15-2.73a.89.89,0,0,0,.43-.49,1,1,0,0,0-.41-.37c-1.51-.82-3.12-1.68-5.21-2.77a1.18,1.18,0,0,0-.49-.16c-.08,0-.25,0-.26.64s0,1.26,0,1.9v.8Zm-55-7.82,2.33,0h0a.89.89,0,0,0,.95-.6c2-4.06,4-8.12,6-12.18L18,37.26c.06-.12.11-.24.17-.37a5.82,5.82,0,0,1,.49-.92,1,1,0,0,1,.7-.4h.06c.28,0,.52.34.64.53a1.14,1.14,0,0,1,.16.47l0,.18L21,40q1.54,6.33,3.08,12.65c.09.39.23.52.58.52l1.3,0h4.68a3.36,3.36,0,0,0-2.77-2.72,1.48,1.48,0,0,1-1.33-1.34c-.89-3.76-1.82-7.48-2.53-10.31a.85.85,0,0,0-.4-.5,2.65,2.65,0,0,1-1.88-2.55,2.75,2.75,0,0,1,1.65-2.56,2,2,0,0,0,.8-.8c.73-1.44,1.46-2.91,2.16-4.33q.54-1.12,1.11-2.25c.26-.53.53-.77.84-.77s.55.19.86.6c.91,1.19,1.8,2.4,2.69,3.6.3.4.48.73.41,1s-.4.52-.86.75L24.24,34.5a2.4,2.4,0,0,0-.57.35,1.12,1.12,0,0,0-.19,1.44,1,1,0,0,0,.91.5,1.7,1.7,0,0,0,.75-.19l9.53-4.67a1.47,1.47,0,0,0,.88-.9,1.45,1.45,0,0,0-.38-1.2l-1.59-2.12c-.85-1.14-1.74-2.32-2.58-3.49a7.8,7.8,0,0,0-2.16-2.06c-.65-.41-1.29-.86-1.91-1.29s-1-.73-1.57-1.07a1.32,1.32,0,0,1-.68-1.37l.3-3.5c.16-1.79.32-3.64.5-5.45a1.57,1.57,0,0,1,.69-1c.54-.33,1.11-.62,1.67-.9l.67-.33,1.92-1L35.18,3.8a1.38,1.38,0,0,0,.79-1,1.05,1.05,0,0,0-.31-.9,1.1,1.1,0,0,0-.8-.35,1.64,1.64,0,0,0-.74.21L31.88,2.93l-7.73,4a1.55,1.55,0,0,0-.9,1.41c-.36,4.4-.7,8.46-1.06,12.43A3.58,3.58,0,0,1,21.83,22l-5,10.26q-4,8.05-7.91,16.1A3.49,3.49,0,0,1,6.4,50.66a2.73,2.73,0,0,0-1.95,2.47ZM26.24,31.78l4.08-2-1.86-2.5Z"/><path class="cls-1" d="M64.38,54.68c-.89,0-1.15-.26-1.15-1.15v-2c0-2,0-4.12,0-6.18,0-.31,0-.47-.13-.56a.66.66,0,0,0-.47-.12c-.75,0-1.46,0-2.17,0H59c-.72,0-1.44,0-2.16,0a1.72,1.72,0,0,0-1,.43c-1.51,1.45-3,2.93-4.34,4.32a4.23,4.23,0,0,1-3.14,1.35H45.4l-1.88,0h0c-.39,0-.53.11-.66.49a4.64,4.64,0,0,1-4,3.32l-.4,0c-.8,0-.91-.58-.91-1.15V46c0-1,.21-1.17,1.2-1.17h3.91c1.45,0,2.9,0,4.36,0a1.69,1.69,0,0,0,1-.41c.36-.31.7-.66,1-1a15.12,15.12,0,0,1,1.3-1.23,2.18,2.18,0,0,0,.69-1.63l.06-.46c.1-.63-.08-1-.71-1.28-1.54-.79-3.08-1.65-4.57-2.48L45.26,36a2.63,2.63,0,0,1-1.45-1.93,2.67,2.67,0,0,1,.93-2.25l3.58-3.41,3.39-3.23a2.91,2.91,0,0,1,2.11-.87h2.25a4.25,4.25,0,0,1,4.44,4.72c-.1,1.55-.23,3.12-.36,4.64L60,35.81l-.22,2.95h6.36a3,3,0,0,1,3.07,3.07c0,2.38,0,4.6,0,6.78a.65.65,0,0,0,.55.76A4.59,4.59,0,0,1,73,53.33a1.27,1.27,0,0,1-.14,1.05,1.24,1.24,0,0,1-1,.3H64.38Zm-.87-11.49c1.06,0,1.24.19,1.25,1.26v1.77c0,2.12,0,4.24,0,6.35v.16c0,.13,0,.27,0,.33a.27.27,0,0,0,.2.06h6.3a3,3,0,0,0-2.5-2.38c-1.1-.22-1.16-.3-1.17-1.44v-2c0-1.71,0-3.41,0-5.12,0-1.33-.53-1.85-1.85-1.86H59.14a1.1,1.1,0,0,1-.84-.25,1,1,0,0,1-.18-.78c.09-1.09.18-2.19.28-3.28l.18-2.19L59,29a3,3,0,0,0-.76-2.26,2.59,2.59,0,0,0-1.92-.85H56a7.28,7.28,0,0,1-.84,0c-.35,0-.69,0-1,0H54a1.92,1.92,0,0,0-1.41.63q-2.6,2.49-5.2,5l-1.45,1.38c-.43.41-.62.76-.58,1s.29.56.79.84L50,36.84l2,1.09.44.25c.32.19.65.37,1,.53a1.11,1.11,0,0,0,.49.12.58.58,0,0,0,.57-.35,1.85,1.85,0,0,0,0-1.14c0-.1-.26-.23-.42-.31L53.89,37l-2.23-1.22L49,34.26c-.41-.23-.62-.46-.65-.73s.11-.55.47-.88l3.15-2.92,2.29-2.11a1.22,1.22,0,0,1,.75-.39.72.72,0,0,1,.51.24.74.74,0,0,1,.24.54,1.2,1.2,0,0,1-.44.76c-.8.72-1.59,1.45-2.38,2.19l-2.48,2.31.14.08.39.23,1.29.7c.89.48,1.82,1,2.71,1.5a2.4,2.4,0,0,1,1.12,3.11,2.33,2.33,0,0,1-2.23,1.47,3,3,0,0,1-.77-.1l-.31-.08h-.08c0,.12,0,.24,0,.36a9.64,9.64,0,0,1-.13,1.11,2.09,2.09,0,0,1-.45,1c-.58.61-1.19,1.21-1.77,1.79l-1.4,1.4a1.89,1.89,0,0,1-1.47.59H43.07l-3.38,0h0a.72.72,0,0,0-.48.11.68.68,0,0,0-.1.47c0,1.24,0,2.51,0,3.73v1.76c0,.14,0,.28,0,.42v0a2.93,2.93,0,0,0,2.36-2.6,1,1,0,0,1,1.17-1H46l2.09,0h.08a3,3,0,0,0,2.24-.94c1.79-1.82,3.28-3.31,4.71-4.67a2,2,0,0,1,1.21-.5l3.6,0Z"/><path class="cls-1" d="M56.94,23.91a5.57,5.57,0,0,1-5.59-5.64A5.61,5.61,0,1,1,57,23.91Zm-.06-9.65a4.08,4.08,0,0,0-4,4.1,4,4,0,1,0,4-4.1Z"/><path class="cls-1" d="M32.49,20.17a5.33,5.33,0,0,1-3.83-1.62,5.5,5.5,0,1,1,9.41-3.78,5.55,5.55,0,0,1-5.54,5.41Zm.07-9.44a3.95,3.95,0,1,0,3.95,4,3.94,3.94,0,0,0-3.95-4l0-.14Z"/></g></g></svg>