<svg xmlns="http://www.w3.org/2000/svg" viewBox="0 0 115.63 98.18"><defs><style>.cls-1,.cls-2{fill:#58585b;}.cls-2,.cls-3{fill-rule:evenodd;}.cls-3{fill:#fff;}</style></defs><g id="Layer_2" data-name="Layer 2"><g id="Layer_1-2" data-name="Layer 1"><polygon class="cls-1" points="46.27 67.69 46.27 92.26 38.91 92.26 38.91 67.69 37.49 67.69 37.49 98.18 47.69 98.18 47.69 67.69 46.27 67.69"/><polygon class="cls-1" points="61.85 67.69 61.85 92.26 54.48 92.26 54.48 67.69 53.06 67.69 53.06 98.18 63.26 98.18 63.26 67.69 61.85 67.69"/><path class="cls-1" d="M111.41,59.93H4.23a4.23,4.23,0,1,0,0,8.45H111.41a4.23,4.23,0,0,0,0-8.45Zm0,7H4.23a2.81,2.81,0,1,1,0-5.61H111.41a2.81,2.81,0,1,1,0,5.61Z"/><path class="cls-2" d="M48.83,0c-4,0-7.21,4.22-7.21,9.41s3.24,9.42,7.21,9.42S56,14.61,56,9.41,52.8,0,48.83,0Zm0,17.41c-3.2,0-5.79-3.58-5.79-8s2.59-8,5.79-8,5.79,3.58,5.79,8S52,17.41,48.83,17.41Z"/><path class="cls-2" d="M18,46.86c-5.2,0-9.42,3.24-9.42,7.21s4.22,7.2,9.42,7.2,9.41-3.23,9.41-7.2S23.14,46.86,18,46.86Zm0,13c-4.42,0-8-2.6-8-5.79s3.58-5.79,8-5.79,8,2.59,8,5.79S22.36,59.86,18,59.86Z"/><path class="cls-2" d="M100.19,46.8l-1-.29a3.93,3.93,0,0,0-1.14-.15c-1.26,0-4.11.53-5,5.13L57.2,49.14,56.09,46.9l-21,.06-.31.18c-.7.41-6.78,4.13-6.54,8.51.13,2.2,1.74,4,4.79,5.37l.27.12h67.21ZM33.65,59.72c-9.9-4.41,1.89-11.36,1.89-11.36H56.37v2.11L94.25,53c.63-6.31,4.55-5.13,4.55-5.13l.29,11.86Z"/><path class="cls-2" d="M90,23c-4.29.16-5.8,4.16-6.11,7.13h-8c-.41,0-.82,0-1.21,0-4.08,0-5.89,1.69-6.09,1.89l-13.7,15,1.54,3.53L66.7,51,68,49.11l6-8.54H91.46V22.9ZM90,36.66v2.49H73.31L66.9,48.23l-1,1.6L57,49.3l-.79-1.76L69.57,32.92s1.78-1.78,6.23-1.43h9.44s-.18-6.94,4.8-7.12Z"/><path class="cls-3" d="M54,97.43V96a3.23,3.23,0,0,1,3.23-3.23h2A3.23,3.23,0,0,1,62.37,96v1.47Zm-15.58,0V96a3.24,3.24,0,0,1,3.24-3.23h1.94A3.23,3.23,0,0,1,46.79,96v1.47Z"/><path class="cls-1" d="M18.41,67.49V95.31a1.39,1.39,0,0,0,2.78,0V67.49Z"/><path class="cls-1" d="M90.63,67.49V95.31a1.39,1.39,0,0,0,2.78,0V67.49Z"/><path class="cls-1" d="M37.1,39l2.47,5.84h.69V30l-4,5.9S35.84,36.71,37.1,39Zm1.74-4.43v5l-.45-1.16,0-.08a5.24,5.24,0,0,1-.74-2Z"/><path class="cls-1" d="M29.1,37.76C29.31,35.23,36.89,22,36.89,22a8.61,8.61,0,0,1,6.52-.42,9.81,9.81,0,0,0,1.92.48h6.33a9.81,9.81,0,0,0,1.92-.48A8.59,8.59,0,0,1,60.1,22s3.36,5.88,5.67,10.56l1-1.16c-1.92-3.85-4.39-8.25-5.46-10.11l-.2-.35-.36-.19a10.37,10.37,0,0,0-4.54-1.06,9,9,0,0,0-3.15.56,8,8,0,0,1-1.24.34H45.16a8.4,8.4,0,0,1-1.25-.34,9,9,0,0,0-3.14-.56,10.38,10.38,0,0,0-4.55,1.06l-.36.19-.2.35c-1.81,3.18-7.75,13.74-8,16.37-.15,1.83,1.43,4.85,2.89,7.22h1.7C30.87,42.66,29,39.36,29.1,37.76Z"/><path class="cls-1" d="M58.15,39.58v-5l2.05,3,1-1L56.74,30l0,11.29Z"/></g></g></svg>