<svg xmlns="http://www.w3.org/2000/svg" viewBox="0 0 100.32 100.46"><defs><style>.cls-1,.cls-2{fill:#58585b;}.cls-2,.cls-3{fill-rule:evenodd;}.cls-3,.cls-4{fill:#fff;}</style></defs><g id="Layer_2" data-name="Layer 2"><g id="Layer_1-2" data-name="Layer 1"><path class="cls-1" d="M37.17.41a1.39,1.39,0,0,1,0,2L2.37,37.17a1.39,1.39,0,0,1-2,0h0a1.38,1.38,0,0,1,0-2L35.2.41a1.38,1.38,0,0,1,2,0Z"/><path class="cls-1" d="M72,37.17a1.4,1.4,0,0,1-2,0L35.19,2.37a1.39,1.39,0,0,1,0-2h0a1.38,1.38,0,0,1,2,0L72,35.2a1.4,1.4,0,0,1,0,2Z"/><polygon class="cls-1" points="65.41 70.41 8.74 70.41 8.5 28.17 11.34 28.17 11.58 67.58 62.58 67.58 62.34 28.17 65.17 28.17 65.41 70.41"/><polygon class="cls-1" points="58.96 23.22 56.13 23.22 56.13 6.4 50.26 6.4 50.26 14.2 47.43 14.2 47.43 3.56 58.96 3.56 58.96 23.22"/><path class="cls-2" d="M36.51,42.56c4,0,7.2-4.23,7.2-9.42s-3.23-9.41-7.2-9.41S29.3,28,29.3,33.14,32.54,42.56,36.51,42.56Zm0-17.41c3.19,0,5.78,3.58,5.78,8s-2.59,8-5.78,8-5.79-3.58-5.79-8S33.31,25.15,36.51,25.15Z"/><path class="cls-1" d="M22.68,41c.1-.14,2.53-3.45,8-3.45H31l-.63-1.41a11.22,11.22,0,0,0-8.83,4l-.26.35L16.4,55.43l11,13.14-.67-3L18,55.12l4.56-13.95Z"/><path class="cls-1" d="M46.5,68.57l11-13.14L52.64,40.52l-.25-.35c-.12-.17-3-4.05-9.16-4.05-.32,0-.65,0-1,0l-.62,1.48a14.62,14.62,0,0,1,1.6-.1c5.48,0,7.9,3.31,8,3.45l.12.18,4.56,13.95L47.16,65.57Z"/><path class="cls-1" d="M44.22,48.73H29.69a5.4,5.4,0,0,0-5.4,5.4v9.2a5.4,5.4,0,0,0,5.4,5.4H44.22a5.4,5.4,0,0,0,5.4-5.4v-9.2A5.4,5.4,0,0,0,44.22,48.73Zm4,14.6a4,4,0,0,1-4,4H29.69a4,4,0,0,1-4-4v-9.2a4,4,0,0,1,4-4H44.22a4,4,0,0,1,4,4Z"/><path class="cls-2" d="M77,48.5c-.61-.58-1.21-1.12-1.78-1.69a1.7,1.7,0,0,1,0-2.72q.41-.42.81-.81a1.69,1.69,0,0,1,2.59,0c1.62,1.61,3.22,3.22,4.83,4.84a4.58,4.58,0,0,1,.44.57C86,46.6,88,44.59,90,42.52c-.51-.52-1.1-1.12-1.7-1.71a2.43,2.43,0,0,1-.78-2.13,2.43,2.43,0,0,1,4.13-1.4l7,7c.3.3.61.59.9.91a2.43,2.43,0,0,1-3.45,3.42c-.64-.6-1.22-1.25-1.79-1.84L88.22,53c1,.92,2,1.89,3,2.87l2.44,2.44a1.66,1.66,0,0,1,0,2.53c-.33.33-.65.67-1,1a1.63,1.63,0,0,1-2.35,0c-.33-.3-.65-.62-1-1s-.58-.67-1-1.16c-.71.76-1.27,1.41-1.88,2L61.35,86.83a3.19,3.19,0,0,1-4.8.07l-.45-.37c-.7.73-1.37,1.47-2.07,2.17-1.46,1.47-3,1.48-4.46,0-.12-.12-.25-.22-.48-.42-1,1.05-2,2.1-3,3.12-2.88,2.9-5.77,5.78-8.66,8.67-.12.12-.24.29-.38.33a.72.72,0,0,1-.56-.09c-.09-.07-.09-.37,0-.5a2.7,2.7,0,0,1,.51-.56L47.89,88.37c.19-.2.41-.37.67-.6l-.65-.7a2.78,2.78,0,0,1,.06-4c.77-.78,1.53-1.58,2.21-2.29a15.79,15.79,0,0,1-1.07-2,2.91,2.91,0,0,1,.9-3.18q6.16-6.16,12.32-12.32,3.89-3.89,7.76-7.76L76.57,49Zm1,1.21c-2.47,2.58-4.89,5.18-7.38,7.7-4.39,4.45-8.82,8.86-13.24,13.29l-6.18,6.19a1.32,1.32,0,0,0,0,2.15c.78.77,1.56,1.56,2.34,2.34l4.24,4.24a1.34,1.34,0,0,0,1.73.34,4.91,4.91,0,0,0,.82-.7L86.58,59c.15-.14.27-.31.37-.42Zm14.2,9.94-15-15c-.22.24-.49.51-.67.7l15,15ZM51.59,81.94c-.85.87-1.65,1.66-2.41,2.48a.92.92,0,0,0,0,1.37c.61.65,1.25,1.28,1.89,1.9a.86.86,0,0,0,1.21.12c.89-.81,1.7-1.7,2.55-2.56Zm39.9-37.87-6,5.94,1.29,1.39,6-5.94Zm7.13,2.85a8.47,8.47,0,0,0-.58-.73L90.7,38.84c-.1-.1-.21-.27-.33-.29-.28,0-.69-.09-.83.06s0,.55,0,.84c0,.12.19.21.29.32q2.58,2.56,5.14,5.14c.79.78,1.55,1.58,2.36,2.32a1.09,1.09,0,0,0,.79.22C98.29,47.43,98.42,47.15,98.62,46.92Z"/><path class="cls-2" d="M92.72,52.82a3.19,3.19,0,0,1,0-.76c0-.16.23-.28.36-.42.12.12.34.24.35.37a10,10,0,0,1,0,1.64c0,.14-.26.26-.4.39-.11-.13-.28-.25-.31-.4A4.5,4.5,0,0,1,92.72,52.82Z"/><path class="cls-3" d="M78.05,49.71,87,58.62c-.1.11-.22.28-.37.42L60.37,85.26a4.91,4.91,0,0,1-.82.7,1.34,1.34,0,0,1-1.73-.34l-4.24-4.24C52.8,80.6,52,79.81,51.24,79a1.32,1.32,0,0,1,0-2.15l6.18-6.19c4.42-4.43,8.85-8.84,13.24-13.29C73.16,54.89,75.58,52.29,78.05,49.71ZM72.37,64.27a3.21,3.21,0,0,0-.28-.43c-1-1-1.9-1.93-2.88-2.87-.14-.13-.45-.08-.67-.11,0,.24-.07.56.06.71a18.8,18.8,0,0,0,1.32,1.36c.53.53,1,1.06,1.59,1.56a.82.82,0,0,0,.56.13C72.17,64.61,72.25,64.42,72.37,64.27Zm-18.16,11c-.15.13-.37.23-.37.33a1,1,0,0,0,.19.61c.91,1,1.83,1.88,2.79,2.78.16.15.5.11.76.16,0-.26,0-.6-.16-.76-.88-.94-1.8-1.84-2.72-2.75C54.57,75.53,54.4,75.44,54.21,75.29Zm3.66-3.64c-.15.12-.36.22-.37.32a1,1,0,0,0,.18.61c.91,1,1.86,1.87,2.79,2.81.23.23.52.42.75.1a.75.75,0,0,0-.12-.7c-.9-1-1.85-1.88-2.78-2.81A5.33,5.33,0,0,0,57.87,71.65Zm10.84-3.77a4,4,0,0,0-.31-.43c-.92-.93-1.85-1.88-2.8-2.78-.15-.14-.48-.1-.72-.14,0,.21-.11.51,0,.62,1,1,2,2.06,3.06,3.06.1.1.36.08.52,0S68.62,68,68.71,67.88ZM76,60.63a1.71,1.71,0,0,0-.19-.36c-1-1-2-2-3-3-.11-.1-.38,0-.58,0,0,.21-.07.48,0,.6,1,1,2,2,3,3a.65.65,0,0,0,.52.06C75.85,60.93,75.92,60.75,76,60.63ZM61.53,68c-.16.13-.38.23-.39.33a.91.91,0,0,0,.19.61c.89.93,1.81,1.84,2.73,2.75.23.23.48.5.8.19s.08-.57-.16-.81L62,68.36C61.87,68.23,61.71,68.13,61.53,68ZM76.17,53.43c-.13.09-.33.18-.33.27a.94.94,0,0,0,.17.6c.88,1,1.78,1.89,2.71,2.79.16.15.5.12.75.18,0-.26,0-.61-.14-.76-.9-1-1.84-1.89-2.77-2.82C76.45,53.6,76.32,53.53,76.17,53.43Z"/><path class="cls-4" d="M92.25,59.65l-.7.68-15-15c.18-.19.45-.46.67-.7Z"/><path class="cls-4" d="M51.59,81.94l3.26,3.31c-.85.86-1.66,1.75-2.55,2.56a.86.86,0,0,1-1.21-.12c-.64-.62-1.28-1.25-1.89-1.9a.92.92,0,0,1,0-1.37C49.94,83.6,50.74,82.81,51.59,81.94Z"/><path class="cls-4" d="M91.49,44.07l1.3,1.39-6,5.94L85.53,50Z"/><path class="cls-3" d="M98.62,46.92c-.2.23-.33.51-.49.53a1.09,1.09,0,0,1-.79-.22c-.81-.74-1.57-1.54-2.36-2.32q-2.57-2.58-5.14-5.14c-.1-.11-.27-.2-.29-.32,0-.29-.15-.68,0-.84s.55-.09.83-.06c.12,0,.23.19.33.29L98,46.19A8.47,8.47,0,0,1,98.62,46.92Z"/><path class="cls-2" d="M72.37,64.27c-.12.15-.2.34-.3.35a.82.82,0,0,1-.56-.13c-.55-.5-1.06-1-1.59-1.56a18.8,18.8,0,0,1-1.32-1.36c-.13-.15,0-.47-.06-.71.22,0,.53,0,.67.11,1,.94,1.92,1.9,2.88,2.87A3.21,3.21,0,0,1,72.37,64.27Z"/><path class="cls-2" d="M54.21,75.29c.19.15.36.24.49.37.92.91,1.84,1.81,2.72,2.75.15.16.11.5.16.76-.26,0-.6,0-.76-.16-1-.9-1.88-1.83-2.79-2.78a1,1,0,0,1-.19-.61C53.84,75.52,54.06,75.42,54.21,75.29Z"/><path class="cls-2" d="M57.87,71.65a5.33,5.33,0,0,1,.45.33c.93.93,1.88,1.85,2.78,2.81a.75.75,0,0,1,.12.7c-.23.32-.52.13-.75-.1-.93-.94-1.88-1.86-2.79-2.81A1,1,0,0,1,57.5,72C57.51,71.87,57.72,71.77,57.87,71.65Z"/><path class="cls-2" d="M68.71,67.88c-.09.14-.15.33-.25.36s-.42.07-.52,0c-1-1-2.07-2-3.06-3.06-.11-.11,0-.41,0-.62.24,0,.57,0,.72.14,1,.9,1.88,1.85,2.8,2.78A4,4,0,0,1,68.71,67.88Z"/><path class="cls-2" d="M76,60.63c-.09.12-.16.3-.27.32a.65.65,0,0,1-.52-.06c-1-1-2-2-3-3-.11-.12,0-.39,0-.6.2,0,.47,0,.58,0,1,1,2,2,3,3A1.71,1.71,0,0,1,76,60.63Z"/><path class="cls-2" d="M61.53,68c.18.15.34.25.47.38l2.7,2.69c.24.24.48.5.16.81s-.57,0-.8-.19c-.92-.91-1.84-1.82-2.73-2.75a.91.91,0,0,1-.19-.61C61.15,68.21,61.37,68.11,61.53,68Z"/><path class="cls-2" d="M76.17,53.43c.15.1.28.17.39.26.93.93,1.87,1.85,2.77,2.82.15.15.1.5.14.76-.25-.06-.59,0-.75-.18-.93-.9-1.83-1.84-2.71-2.79a.94.94,0,0,1-.17-.6C75.84,53.61,76,53.52,76.17,53.43Z"/></g></g></svg>