<svg xmlns="http://www.w3.org/2000/svg" viewBox="0 0 105.02 94.51"><defs><style>.cls-1{fill:#58585b;}.cls-2{fill:none;stroke:#58585b;stroke-miterlimit:10;}</style></defs><g id="Layer_2" data-name="Layer 2"><g id="Layer_1-2" data-name="Layer 1"><path class="cls-1" d="M61.37,27.46a9.61,9.61,0,0,1-6.21-4.73L55,23c-2.4,2.94-7.3,4.4-14.57,4.33l0-2.24c8.13.07,11.41-1.84,12.76-3.46a4.32,4.32,0,0,0,1-2.2,7.47,7.47,0,0,1,0-1.27L56.38,18a4.68,4.68,0,0,1,0,1.45c.2,1.6,1.18,4.55,5.57,5.85Z"/><path class="cls-1" d="M80,59.85c-3.36-2.23-15.74-6.6-18.81-7.66l-.7-6.31c6.21-11.67,7.56-21,4-27.68-4.27-8-13.95-9.15-14.36-9.2H50l-.17,0c-6.67,1.42-11.19,4.62-13.45,9.52-4.8,10.4,2.34,24.84,3.46,27l.08,6.65c-4.48,1.26-13.69,5.54-14.52,5.93-4.55,1.66-7.61,5.94-8.83,12.38a35.19,35.19,0,0,0-.5,9.11l2.23-.22c0-.15-1.37-15.83,7.91-19.17l.09,0c.07,0,4.84-2.26,9.19-4a36.72,36.72,0,0,0-.89,6c-2.77.33-5.08,2.82-6.86,7.43a37.69,37.69,0,0,0-1.91,7l0,.13a2.64,2.64,0,0,0,.92,2.17c1.72,1.47,5.31.85,6,.72l-.44-2.21c-1.32.26-3.48.33-4.12-.22a.34.34,0,0,1-.13-.31c.54-3.29,2.93-12.28,7-12.47a9.63,9.63,0,0,1,4,2.48c2.5,2.54,3.6,6.26,3.29,11.07l-2.37-.8-.72,2.13,5,1.7.16-1.38c1.35-11.65-4.85-15.71-7.69-16.95.12-2,.53-5.74,1.43-7.52h0c.8-.29,1.54-.54,2.17-.72C41.52,56.73,44.85,63,49.73,65L50,65l.27,0c.31,0,7.44-.79,10.68-10.56l2.88,1a36,36,0,0,1,1.37,9,9.12,9.12,0,1,0,2.25,0,40.18,40.18,0,0,0-1-8c4.65,1.71,10.41,4,12.4,5.29,3.09,2.07,5,11.93,5.33,18l2.24-.12C86.14,75.09,84.54,62.85,80,59.85ZM50.29,62.74c-4.47-2-7.58-8.72-8.11-9.93L42.09,45,42,44.71c-.08-.15-8.15-15.21-3.53-25.23,1.93-4.17,5.86-6.94,11.69-8.22,1.24.18,9,1.55,12.45,8,3.19,6.05,1.78,14.75-4.18,25.85l-.17.31.83,7.49C56.69,61.09,51.5,62.52,50.29,62.74Zm23.3,10.73a7.26,7.26,0,1,1-7.26-7.26A7.27,7.27,0,0,1,73.59,73.47Z"/><path class="cls-2" d="M41.06,53.05,41,45.25s-16.15-29.76,9.1-35.13c0,0,26.9,2.81,9.31,35.54L60.2,53"/><path class="cls-1" d="M37.9,94.51H20.55V91.26H37.9V83.21H12.84A12.85,12.85,0,0,1,0,70.37V12.84A12.85,12.85,0,0,1,12.84,0H92.18A12.85,12.85,0,0,1,105,12.84V70.37A12.85,12.85,0,0,1,92.18,83.21H67.11v8.05H84.47v3.25H37.9Zm27.31-3.1V83.19H39.81v8.22ZM12.84,1.91A10.94,10.94,0,0,0,1.91,12.84V70.37A10.94,10.94,0,0,0,12.84,81.3H92.18a10.94,10.94,0,0,0,10.93-10.93V12.84A10.94,10.94,0,0,0,92.18,1.91Z"/><circle class="cls-1" cx="66.35" cy="73.27" r="3.33"/></g></g></svg>