<svg xmlns="http://www.w3.org/2000/svg" viewBox="0 0 76.19 69.64"><defs><style>.cls-1{fill:#58585b;fill-rule:evenodd;}</style></defs><g id="Layer_2" data-name="Layer 2"><g id="Layer_1-2" data-name="Layer 1"><path class="cls-1" d="M21.5,26.75a14.13,14.13,0,0,0,0,28.25h0a14.13,14.13,0,1,0,0-28.25Zm0,25.69h-.21a11.57,11.57,0,0,1,.11-23.14h.18a11.57,11.57,0,0,1-.08,23.14Z"/><path class="cls-1" d="M26.94,40.91c0,1-.92,1.2-1.45,1.22h-2.7v1.32c0,.49,0,.95,0,1.4,0,.89-.53,1.47-1.26,1.47h-.05c-.73,0-1.19-.56-1.23-1.45l0-1.09c0-.28,0-.57,0-.85a.75.75,0,0,0-.15-.39L20,42.39l-.17-.26H18.23c-.26,0-.53,0-.79,0a1.24,1.24,0,0,1-1.35-1.19c0-1.06.82-1.28,1.33-1.32.26,0,.52,0,.79,0h2V39c0-.28,0-.53,0-.78,0-.52,0-1,0-1.47a1.29,1.29,0,0,1,1.25-1.37,1.32,1.32,0,0,1,1.28,1.35c0,.47,0,.95,0,1.47V39.6h2.68C26,39.63,27,39.84,26.94,40.91ZM76.19,67.54c0,1.78-.32,2.09-2.09,2.09H14.75C6.21,69.62,0,63.4,0,54.83V14.92C0,6.19,6.12.06,14.87,0Q22,0,29.2,0H74c2,0,2.2.23,2.2,2.2ZM54,50.55H49.94a6,6,0,0,1-6-6.06c0-2.41,0-4.85,0-7.12a6,6,0,0,1,6.21-6.16H54V16.6H2.55v7.93q0,15.26,0,30.5a10.45,10.45,0,0,0,.12,1.81,11.85,11.85,0,0,0,12.2,10.24H54Zm19.57.07H56.69V67H73.58Zm0-16.75-.51,0-.2,0-.38,0H60l-9.89,0a3.35,3.35,0,0,0-3.56,3.61c0,1.71,0,3.44,0,5.12v1.44c0,2.76,1.29,4.05,4.06,4.05h23Zm0-2.74V16.62H56.67V31.13Zm0-28.48-.85-.06-.52,0H14.72a11.82,11.82,0,0,0-12,10.72l-.07.63H73.57V9.65H19.64a4.28,4.28,0,0,1-.56,0A1.13,1.13,0,0,1,18,8.48a1.1,1.1,0,0,1,.93-1.27,6.28,6.28,0,0,1,1.37-.1H73.6ZM51.79,38.77A2.26,2.26,0,1,0,54,41,2.25,2.25,0,0,0,51.79,38.77Z"/></g></g></svg>