<svg width="19" height="19" viewBox="0 0 19 19" fill="none" xmlns="http://www.w3.org/2000/svg">
<path d="M6.33337 3.16683V12.6668C6.33337 13.0868 6.50019 13.4895 6.79712 13.7864C7.09405 14.0833 7.49678 14.2502 7.91671 14.2502H14.25C14.67 14.2502 15.0727 14.0833 15.3696 13.7864C15.6666 13.4895 15.8334 13.0868 15.8334 12.6668V5.73341C15.8333 5.52248 15.7912 5.31368 15.7093 5.11927C15.6275 4.92487 15.5076 4.74877 15.3568 4.60133L12.7324 2.03475C12.4366 1.74552 12.0394 1.58355 11.6257 1.5835H7.91671C7.49678 1.5835 7.09405 1.75031 6.79712 2.04724C6.50019 2.34418 6.33337 2.7469 6.33337 3.16683V3.16683Z" stroke="#0061FE" stroke-width="1.6" stroke-linecap="round" stroke-linejoin="round"/>
<path d="M12.6667 14.2503V15.8337C12.6667 16.2536 12.4999 16.6563 12.2029 16.9532C11.906 17.2502 11.5033 17.417 11.0834 17.417H4.75002C4.33009 17.417 3.92737 17.2502 3.63043 16.9532C3.3335 16.6563 3.16669 16.2536 3.16669 15.8337V7.12533C3.16669 6.7054 3.3335 6.30267 3.63043 6.00574C3.92737 5.70881 4.33009 5.54199 4.75002 5.54199H6.33335" stroke="#0061FE" stroke-width="1.6" stroke-linecap="round" stroke-linejoin="round"/>
</svg>
