<svg width="17" height="17" viewBox="0 0 17 17" fill="none" xmlns="http://www.w3.org/2000/svg">
<path d="M9.6087 1.1087C9.6087 0.814651 9.49189 0.53265 9.28397 0.324729C9.07605 0.116809 8.79404 0 8.5 0C8.20596 0 7.92395 0.116809 7.71603 0.324729C7.50811 0.53265 7.3913 0.814651 7.3913 1.1087V7.3913H1.1087C0.814651 7.3913 0.53265 7.50811 0.324729 7.71603C0.116809 7.92395 0 8.20596 0 8.5C0 8.79404 0.116809 9.07605 0.324729 9.28397C0.53265 9.49189 0.814651 9.6087 1.1087 9.6087H7.3913V15.8913C7.3913 16.1853 7.50811 16.4674 7.71603 16.6753C7.92395 16.8832 8.20596 17 8.5 17C8.79404 17 9.07605 16.8832 9.28397 16.6753C9.49189 16.4674 9.6087 16.1853 9.6087 15.8913V9.6087H15.8913C16.1853 9.6087 16.4674 9.49189 16.6753 9.28397C16.8832 9.07605 17 8.79404 17 8.5C17 8.20596 16.8832 7.92395 16.6753 7.71603C16.4674 7.50811 16.1853 7.3913 15.8913 7.3913H9.6087V1.1087Z" fill="black"/>
</svg>
