<svg width="20" height="20" viewBox="0 0 20 20" fill="none" xmlns="http://www.w3.org/2000/svg">
<path d="M18.457 8.04688H13.457C13.3711 8.04688 13.3008 8.11719 13.3008 8.20312V9.14062C13.3008 9.22656 13.3711 9.29688 13.457 9.29688H18.457C18.543 9.29688 18.6133 9.22656 18.6133 9.14062V8.20312C18.6133 8.11719 18.543 8.04688 18.457 8.04688ZM15.8398 10.7031H13.457C13.3711 10.7031 13.3008 10.7734 13.3008 10.8594V11.7969C13.3008 11.8828 13.3711 11.9531 13.457 11.9531H15.8398C15.9258 11.9531 15.9961 11.8828 15.9961 11.7969V10.8594C15.9961 10.7734 15.9258 10.7031 15.8398 10.7031ZM9.32227 6.29883H8.47656C8.35547 6.29883 8.25781 6.39648 8.25781 6.51758V11.3613C8.25781 11.4316 8.29102 11.4961 8.34766 11.5371L11.2559 13.6582C11.3535 13.7285 11.4902 13.709 11.5605 13.6113L12.0625 12.9258V12.9238C12.1328 12.8262 12.1113 12.6895 12.0137 12.6191L9.53906 10.8301V6.51758C9.54102 6.39648 9.44141 6.29883 9.32227 6.29883Z" fill="#0061FE"/>
<path d="M15.7188 13.1621H14.5899C14.4805 13.1621 14.377 13.2187 14.3184 13.3125C14.0703 13.7051 13.7813 14.0683 13.4492 14.4004C12.877 14.9726 12.211 15.4219 11.4707 15.7344C10.7031 16.0586 9.88869 16.2226 9.04884 16.2226C8.20704 16.2226 7.39259 16.0586 6.62697 15.7344C5.88673 15.4219 5.22072 14.9726 4.64845 14.4004C4.07619 13.8281 3.62697 13.1621 3.31447 12.4219C2.99025 11.6562 2.82619 10.8418 2.82619 9.99999C2.82619 9.15819 2.99025 8.34569 3.31447 7.57811C3.62697 6.83788 4.07619 6.17186 4.64845 5.5996C5.22072 5.02733 5.88673 4.57811 6.62697 4.26561C7.39259 3.94139 8.209 3.77733 9.04884 3.77733C9.89064 3.77733 10.7051 3.94139 11.4707 4.26561C12.211 4.57811 12.877 5.02733 13.4492 5.5996C13.7813 5.93163 14.0703 6.29491 14.3184 6.68749C14.377 6.78124 14.4805 6.83788 14.5899 6.83788H15.7188C15.8535 6.83788 15.9395 6.69725 15.8789 6.57811C14.6055 4.04491 12.0235 2.39842 9.14064 2.36522C4.91993 2.31249 1.41408 5.76756 1.40626 9.98436C1.39845 14.209 4.82228 17.6367 9.04689 17.6367C11.9668 17.6367 14.5918 15.9844 15.8789 13.4219C15.9395 13.3027 15.8516 13.1621 15.7188 13.1621Z" fill="#0061FE"/>
</svg>
